<?xml version="1.0" encoding="utf-8" standalone="no"?>
<!DOCTYPE svg PUBLIC "-//W3C//DTD SVG 1.1//EN"
  "http://www.w3.org/Graphics/SVG/1.1/DTD/svg11.dtd">
<!-- Created with matplotlib (https://matplotlib.org/) -->
<svg height="288pt" version="1.1" viewBox="0 0 864 288" width="864pt" xmlns="http://www.w3.org/2000/svg" xmlns:xlink="http://www.w3.org/1999/xlink">
 <metadata>
  <rdf:RDF xmlns:cc="http://creativecommons.org/ns#" xmlns:dc="http://purl.org/dc/elements/1.1/" xmlns:rdf="http://www.w3.org/1999/02/22-rdf-syntax-ns#">
   <cc:Work>
    <dc:type rdf:resource="http://purl.org/dc/dcmitype/StillImage"/>
    <dc:date>2021-11-11T13:38:03.103886</dc:date>
    <dc:format>image/svg+xml</dc:format>
    <dc:creator>
     <cc:Agent>
      <dc:title>Matplotlib v3.3.2, https://matplotlib.org/</dc:title>
     </cc:Agent>
    </dc:creator>
   </cc:Work>
  </rdf:RDF>
 </metadata>
 <defs>
  <style type="text/css">*{stroke-linecap:butt;stroke-linejoin:round;}</style>
 </defs>
 <g id="figure_1">
  <g id="patch_1">
   <path d="M 0 288 
L 864 288 
L 864 0 
L 0 0 
z
" style="fill:#ffffff;"/>
  </g>
  <g id="axes_1">
   <g id="patch_2">
    <path d="M 108 252 
L 399.130435 252 
L 399.130435 34.56 
L 108 34.56 
z
" style="fill:#ffffff;"/>
   </g>
   <g id="matplotlib.axis_1">
    <g id="xtick_1">
     <g id="line2d_1">
      <defs>
       <path d="M 0 0 
L 0 3.5 
" id="m462ba52421" style="stroke:#000000;stroke-width:0.8;"/>
      </defs>
      <g>
       <use style="stroke:#000000;stroke-width:0.8;" x="121.233202" xlink:href="#m462ba52421" y="252"/>
      </g>
     </g>
     <g id="text_1">
      <!-- 100 -->
      <g transform="translate(111.689452 266.598437)scale(0.1 -0.1)">
       <defs>
        <path d="M 12.40625 8.296875 
L 28.515625 8.296875 
L 28.515625 63.921875 
L 10.984375 60.40625 
L 10.984375 69.390625 
L 28.421875 72.90625 
L 38.28125 72.90625 
L 38.28125 8.296875 
L 54.390625 8.296875 
L 54.390625 0 
L 12.40625 0 
z
" id="DejaVuSans-49"/>
        <path d="M 31.78125 66.40625 
Q 24.171875 66.40625 20.328125 58.90625 
Q 16.5 51.421875 16.5 36.375 
Q 16.5 21.390625 20.328125 13.890625 
Q 24.171875 6.390625 31.78125 6.390625 
Q 39.453125 6.390625 43.28125 13.890625 
Q 47.125 21.390625 47.125 36.375 
Q 47.125 51.421875 43.28125 58.90625 
Q 39.453125 66.40625 31.78125 66.40625 
z
M 31.78125 74.21875 
Q 44.046875 74.21875 50.515625 64.515625 
Q 56.984375 54.828125 56.984375 36.375 
Q 56.984375 17.96875 50.515625 8.265625 
Q 44.046875 -1.421875 31.78125 -1.421875 
Q 19.53125 -1.421875 13.0625 8.265625 
Q 6.59375 17.96875 6.59375 36.375 
Q 6.59375 54.828125 13.0625 64.515625 
Q 19.53125 74.21875 31.78125 74.21875 
z
" id="DejaVuSans-48"/>
       </defs>
       <use xlink:href="#DejaVuSans-49"/>
       <use x="63.623047" xlink:href="#DejaVuSans-48"/>
       <use x="127.246094" xlink:href="#DejaVuSans-48"/>
      </g>
     </g>
    </g>
    <g id="xtick_2">
     <g id="line2d_2">
      <g>
       <use style="stroke:#000000;stroke-width:0.8;" x="147.831937" xlink:href="#m462ba52421" y="252"/>
      </g>
     </g>
     <g id="text_2">
      <!-- 90 -->
      <g transform="translate(141.469437 266.598437)scale(0.1 -0.1)">
       <defs>
        <path d="M 10.984375 1.515625 
L 10.984375 10.5 
Q 14.703125 8.734375 18.5 7.8125 
Q 22.3125 6.890625 25.984375 6.890625 
Q 35.75 6.890625 40.890625 13.453125 
Q 46.046875 20.015625 46.78125 33.40625 
Q 43.953125 29.203125 39.59375 26.953125 
Q 35.25 24.703125 29.984375 24.703125 
Q 19.046875 24.703125 12.671875 31.3125 
Q 6.296875 37.9375 6.296875 49.421875 
Q 6.296875 60.640625 12.9375 67.421875 
Q 19.578125 74.21875 30.609375 74.21875 
Q 43.265625 74.21875 49.921875 64.515625 
Q 56.59375 54.828125 56.59375 36.375 
Q 56.59375 19.140625 48.40625 8.859375 
Q 40.234375 -1.421875 26.421875 -1.421875 
Q 22.703125 -1.421875 18.890625 -0.6875 
Q 15.09375 0.046875 10.984375 1.515625 
z
M 30.609375 32.421875 
Q 37.25 32.421875 41.125 36.953125 
Q 45.015625 41.5 45.015625 49.421875 
Q 45.015625 57.28125 41.125 61.84375 
Q 37.25 66.40625 30.609375 66.40625 
Q 23.96875 66.40625 20.09375 61.84375 
Q 16.21875 57.28125 16.21875 49.421875 
Q 16.21875 41.5 20.09375 36.953125 
Q 23.96875 32.421875 30.609375 32.421875 
z
" id="DejaVuSans-57"/>
       </defs>
       <use xlink:href="#DejaVuSans-57"/>
       <use x="63.623047" xlink:href="#DejaVuSans-48"/>
      </g>
     </g>
    </g>
    <g id="xtick_3">
     <g id="line2d_3">
      <g>
       <use style="stroke:#000000;stroke-width:0.8;" x="174.430672" xlink:href="#m462ba52421" y="252"/>
      </g>
     </g>
     <g id="text_3">
      <!-- 80 -->
      <g transform="translate(168.068172 266.598437)scale(0.1 -0.1)">
       <defs>
        <path d="M 31.78125 34.625 
Q 24.75 34.625 20.71875 30.859375 
Q 16.703125 27.09375 16.703125 20.515625 
Q 16.703125 13.921875 20.71875 10.15625 
Q 24.75 6.390625 31.78125 6.390625 
Q 38.8125 6.390625 42.859375 10.171875 
Q 46.921875 13.96875 46.921875 20.515625 
Q 46.921875 27.09375 42.890625 30.859375 
Q 38.875 34.625 31.78125 34.625 
z
M 21.921875 38.8125 
Q 15.578125 40.375 12.03125 44.71875 
Q 8.5 49.078125 8.5 55.328125 
Q 8.5 64.0625 14.71875 69.140625 
Q 20.953125 74.21875 31.78125 74.21875 
Q 42.671875 74.21875 48.875 69.140625 
Q 55.078125 64.0625 55.078125 55.328125 
Q 55.078125 49.078125 51.53125 44.71875 
Q 48 40.375 41.703125 38.8125 
Q 48.828125 37.15625 52.796875 32.3125 
Q 56.78125 27.484375 56.78125 20.515625 
Q 56.78125 9.90625 50.3125 4.234375 
Q 43.84375 -1.421875 31.78125 -1.421875 
Q 19.734375 -1.421875 13.25 4.234375 
Q 6.78125 9.90625 6.78125 20.515625 
Q 6.78125 27.484375 10.78125 32.3125 
Q 14.796875 37.15625 21.921875 38.8125 
z
M 18.3125 54.390625 
Q 18.3125 48.734375 21.84375 45.5625 
Q 25.390625 42.390625 31.78125 42.390625 
Q 38.140625 42.390625 41.71875 45.5625 
Q 45.3125 48.734375 45.3125 54.390625 
Q 45.3125 60.0625 41.71875 63.234375 
Q 38.140625 66.40625 31.78125 66.40625 
Q 25.390625 66.40625 21.84375 63.234375 
Q 18.3125 60.0625 18.3125 54.390625 
z
" id="DejaVuSans-56"/>
       </defs>
       <use xlink:href="#DejaVuSans-56"/>
       <use x="63.623047" xlink:href="#DejaVuSans-48"/>
      </g>
     </g>
    </g>
    <g id="xtick_4">
     <g id="line2d_4">
      <g>
       <use style="stroke:#000000;stroke-width:0.8;" x="201.029407" xlink:href="#m462ba52421" y="252"/>
      </g>
     </g>
     <g id="text_4">
      <!-- 70 -->
      <g transform="translate(194.666907 266.598437)scale(0.1 -0.1)">
       <defs>
        <path d="M 8.203125 72.90625 
L 55.078125 72.90625 
L 55.078125 68.703125 
L 28.609375 0 
L 18.3125 0 
L 43.21875 64.59375 
L 8.203125 64.59375 
z
" id="DejaVuSans-55"/>
       </defs>
       <use xlink:href="#DejaVuSans-55"/>
       <use x="63.623047" xlink:href="#DejaVuSans-48"/>
      </g>
     </g>
    </g>
    <g id="xtick_5">
     <g id="line2d_5">
      <g>
       <use style="stroke:#000000;stroke-width:0.8;" x="227.628142" xlink:href="#m462ba52421" y="252"/>
      </g>
     </g>
     <g id="text_5">
      <!-- 60 -->
      <g transform="translate(221.265642 266.598437)scale(0.1 -0.1)">
       <defs>
        <path d="M 33.015625 40.375 
Q 26.375 40.375 22.484375 35.828125 
Q 18.609375 31.296875 18.609375 23.390625 
Q 18.609375 15.53125 22.484375 10.953125 
Q 26.375 6.390625 33.015625 6.390625 
Q 39.65625 6.390625 43.53125 10.953125 
Q 47.40625 15.53125 47.40625 23.390625 
Q 47.40625 31.296875 43.53125 35.828125 
Q 39.65625 40.375 33.015625 40.375 
z
M 52.59375 71.296875 
L 52.59375 62.3125 
Q 48.875 64.0625 45.09375 64.984375 
Q 41.3125 65.921875 37.59375 65.921875 
Q 27.828125 65.921875 22.671875 59.328125 
Q 17.53125 52.734375 16.796875 39.40625 
Q 19.671875 43.65625 24.015625 45.921875 
Q 28.375 48.1875 33.59375 48.1875 
Q 44.578125 48.1875 50.953125 41.515625 
Q 57.328125 34.859375 57.328125 23.390625 
Q 57.328125 12.15625 50.6875 5.359375 
Q 44.046875 -1.421875 33.015625 -1.421875 
Q 20.359375 -1.421875 13.671875 8.265625 
Q 6.984375 17.96875 6.984375 36.375 
Q 6.984375 53.65625 15.1875 63.9375 
Q 23.390625 74.21875 37.203125 74.21875 
Q 40.921875 74.21875 44.703125 73.484375 
Q 48.484375 72.75 52.59375 71.296875 
z
" id="DejaVuSans-54"/>
       </defs>
       <use xlink:href="#DejaVuSans-54"/>
       <use x="63.623047" xlink:href="#DejaVuSans-48"/>
      </g>
     </g>
    </g>
    <g id="xtick_6">
     <g id="line2d_6">
      <g>
       <use style="stroke:#000000;stroke-width:0.8;" x="254.226877" xlink:href="#m462ba52421" y="252"/>
      </g>
     </g>
     <g id="text_6">
      <!-- 50 -->
      <g transform="translate(247.864377 266.598437)scale(0.1 -0.1)">
       <defs>
        <path d="M 10.796875 72.90625 
L 49.515625 72.90625 
L 49.515625 64.59375 
L 19.828125 64.59375 
L 19.828125 46.734375 
Q 21.96875 47.46875 24.109375 47.828125 
Q 26.265625 48.1875 28.421875 48.1875 
Q 40.625 48.1875 47.75 41.5 
Q 54.890625 34.8125 54.890625 23.390625 
Q 54.890625 11.625 47.5625 5.09375 
Q 40.234375 -1.421875 26.90625 -1.421875 
Q 22.3125 -1.421875 17.546875 -0.640625 
Q 12.796875 0.140625 7.71875 1.703125 
L 7.71875 11.625 
Q 12.109375 9.234375 16.796875 8.0625 
Q 21.484375 6.890625 26.703125 6.890625 
Q 35.15625 6.890625 40.078125 11.328125 
Q 45.015625 15.765625 45.015625 23.390625 
Q 45.015625 31 40.078125 35.4375 
Q 35.15625 39.890625 26.703125 39.890625 
Q 22.75 39.890625 18.8125 39.015625 
Q 14.890625 38.140625 10.796875 36.28125 
z
" id="DejaVuSans-53"/>
       </defs>
       <use xlink:href="#DejaVuSans-53"/>
       <use x="63.623047" xlink:href="#DejaVuSans-48"/>
      </g>
     </g>
    </g>
    <g id="xtick_7">
     <g id="line2d_7">
      <g>
       <use style="stroke:#000000;stroke-width:0.8;" x="280.825613" xlink:href="#m462ba52421" y="252"/>
      </g>
     </g>
     <g id="text_7">
      <!-- 40 -->
      <g transform="translate(274.463113 266.598437)scale(0.1 -0.1)">
       <defs>
        <path d="M 37.796875 64.3125 
L 12.890625 25.390625 
L 37.796875 25.390625 
z
M 35.203125 72.90625 
L 47.609375 72.90625 
L 47.609375 25.390625 
L 58.015625 25.390625 
L 58.015625 17.1875 
L 47.609375 17.1875 
L 47.609375 0 
L 37.796875 0 
L 37.796875 17.1875 
L 4.890625 17.1875 
L 4.890625 26.703125 
z
" id="DejaVuSans-52"/>
       </defs>
       <use xlink:href="#DejaVuSans-52"/>
       <use x="63.623047" xlink:href="#DejaVuSans-48"/>
      </g>
     </g>
    </g>
    <g id="xtick_8">
     <g id="line2d_8">
      <g>
       <use style="stroke:#000000;stroke-width:0.8;" x="307.424348" xlink:href="#m462ba52421" y="252"/>
      </g>
     </g>
     <g id="text_8">
      <!-- 30 -->
      <g transform="translate(301.061848 266.598437)scale(0.1 -0.1)">
       <defs>
        <path d="M 40.578125 39.3125 
Q 47.65625 37.796875 51.625 33 
Q 55.609375 28.21875 55.609375 21.1875 
Q 55.609375 10.40625 48.1875 4.484375 
Q 40.765625 -1.421875 27.09375 -1.421875 
Q 22.515625 -1.421875 17.65625 -0.515625 
Q 12.796875 0.390625 7.625 2.203125 
L 7.625 11.71875 
Q 11.71875 9.328125 16.59375 8.109375 
Q 21.484375 6.890625 26.8125 6.890625 
Q 36.078125 6.890625 40.9375 10.546875 
Q 45.796875 14.203125 45.796875 21.1875 
Q 45.796875 27.640625 41.28125 31.265625 
Q 36.765625 34.90625 28.71875 34.90625 
L 20.21875 34.90625 
L 20.21875 43.015625 
L 29.109375 43.015625 
Q 36.375 43.015625 40.234375 45.921875 
Q 44.09375 48.828125 44.09375 54.296875 
Q 44.09375 59.90625 40.109375 62.90625 
Q 36.140625 65.921875 28.71875 65.921875 
Q 24.65625 65.921875 20.015625 65.03125 
Q 15.375 64.15625 9.8125 62.3125 
L 9.8125 71.09375 
Q 15.4375 72.65625 20.34375 73.4375 
Q 25.25 74.21875 29.59375 74.21875 
Q 40.828125 74.21875 47.359375 69.109375 
Q 53.90625 64.015625 53.90625 55.328125 
Q 53.90625 49.265625 50.4375 45.09375 
Q 46.96875 40.921875 40.578125 39.3125 
z
" id="DejaVuSans-51"/>
       </defs>
       <use xlink:href="#DejaVuSans-51"/>
       <use x="63.623047" xlink:href="#DejaVuSans-48"/>
      </g>
     </g>
    </g>
    <g id="xtick_9">
     <g id="line2d_9">
      <g>
       <use style="stroke:#000000;stroke-width:0.8;" x="334.023083" xlink:href="#m462ba52421" y="252"/>
      </g>
     </g>
     <g id="text_9">
      <!-- 20 -->
      <g transform="translate(327.660583 266.598437)scale(0.1 -0.1)">
       <defs>
        <path d="M 19.1875 8.296875 
L 53.609375 8.296875 
L 53.609375 0 
L 7.328125 0 
L 7.328125 8.296875 
Q 12.9375 14.109375 22.625 23.890625 
Q 32.328125 33.6875 34.8125 36.53125 
Q 39.546875 41.84375 41.421875 45.53125 
Q 43.3125 49.21875 43.3125 52.78125 
Q 43.3125 58.59375 39.234375 62.25 
Q 35.15625 65.921875 28.609375 65.921875 
Q 23.96875 65.921875 18.8125 64.3125 
Q 13.671875 62.703125 7.8125 59.421875 
L 7.8125 69.390625 
Q 13.765625 71.78125 18.9375 73 
Q 24.125 74.21875 28.421875 74.21875 
Q 39.75 74.21875 46.484375 68.546875 
Q 53.21875 62.890625 53.21875 53.421875 
Q 53.21875 48.921875 51.53125 44.890625 
Q 49.859375 40.875 45.40625 35.40625 
Q 44.1875 33.984375 37.640625 27.21875 
Q 31.109375 20.453125 19.1875 8.296875 
z
" id="DejaVuSans-50"/>
       </defs>
       <use xlink:href="#DejaVuSans-50"/>
       <use x="63.623047" xlink:href="#DejaVuSans-48"/>
      </g>
     </g>
    </g>
    <g id="xtick_10">
     <g id="line2d_10">
      <g>
       <use style="stroke:#000000;stroke-width:0.8;" x="360.621818" xlink:href="#m462ba52421" y="252"/>
      </g>
     </g>
     <g id="text_10">
      <!-- 10 -->
      <g transform="translate(354.259318 266.598437)scale(0.1 -0.1)">
       <use xlink:href="#DejaVuSans-49"/>
       <use x="63.623047" xlink:href="#DejaVuSans-48"/>
      </g>
     </g>
    </g>
    <g id="xtick_11">
     <g id="line2d_11">
      <g>
       <use style="stroke:#000000;stroke-width:0.8;" x="387.220553" xlink:href="#m462ba52421" y="252"/>
      </g>
     </g>
     <g id="text_11">
      <!-- 0 -->
      <g transform="translate(384.039303 266.598437)scale(0.1 -0.1)">
       <use xlink:href="#DejaVuSans-48"/>
      </g>
     </g>
    </g>
    <g id="text_12">
     <!-- % of compounds ranked by uncertainty -->
     <g transform="translate(154.913655 280.276563)scale(0.1 -0.1)">
      <defs>
       <path d="M 72.703125 32.078125 
Q 68.453125 32.078125 66.03125 28.46875 
Q 63.625 24.859375 63.625 18.40625 
Q 63.625 12.0625 66.03125 8.421875 
Q 68.453125 4.78125 72.703125 4.78125 
Q 76.859375 4.78125 79.265625 8.421875 
Q 81.6875 12.0625 81.6875 18.40625 
Q 81.6875 24.8125 79.265625 28.4375 
Q 76.859375 32.078125 72.703125 32.078125 
z
M 72.703125 38.28125 
Q 80.421875 38.28125 84.953125 32.90625 
Q 89.5 27.546875 89.5 18.40625 
Q 89.5 9.28125 84.9375 3.921875 
Q 80.375 -1.421875 72.703125 -1.421875 
Q 64.890625 -1.421875 60.34375 3.921875 
Q 55.8125 9.28125 55.8125 18.40625 
Q 55.8125 27.59375 60.375 32.9375 
Q 64.9375 38.28125 72.703125 38.28125 
z
M 22.3125 68.015625 
Q 18.109375 68.015625 15.6875 64.375 
Q 13.28125 60.75 13.28125 54.390625 
Q 13.28125 47.953125 15.671875 44.328125 
Q 18.0625 40.71875 22.3125 40.71875 
Q 26.5625 40.71875 28.96875 44.328125 
Q 31.390625 47.953125 31.390625 54.390625 
Q 31.390625 60.6875 28.953125 64.34375 
Q 26.515625 68.015625 22.3125 68.015625 
z
M 66.40625 74.21875 
L 74.21875 74.21875 
L 28.609375 -1.421875 
L 20.796875 -1.421875 
z
M 22.3125 74.21875 
Q 30.03125 74.21875 34.609375 68.875 
Q 39.203125 63.53125 39.203125 54.390625 
Q 39.203125 45.171875 34.640625 39.84375 
Q 30.078125 34.515625 22.3125 34.515625 
Q 14.546875 34.515625 10.03125 39.859375 
Q 5.515625 45.21875 5.515625 54.390625 
Q 5.515625 63.484375 10.046875 68.84375 
Q 14.59375 74.21875 22.3125 74.21875 
z
" id="DejaVuSans-37"/>
       <path id="DejaVuSans-32"/>
       <path d="M 30.609375 48.390625 
Q 23.390625 48.390625 19.1875 42.75 
Q 14.984375 37.109375 14.984375 27.296875 
Q 14.984375 17.484375 19.15625 11.84375 
Q 23.34375 6.203125 30.609375 6.203125 
Q 37.796875 6.203125 41.984375 11.859375 
Q 46.1875 17.53125 46.1875 27.296875 
Q 46.1875 37.015625 41.984375 42.703125 
Q 37.796875 48.390625 30.609375 48.390625 
z
M 30.609375 56 
Q 42.328125 56 49.015625 48.375 
Q 55.71875 40.765625 55.71875 27.296875 
Q 55.71875 13.875 49.015625 6.21875 
Q 42.328125 -1.421875 30.609375 -1.421875 
Q 18.84375 -1.421875 12.171875 6.21875 
Q 5.515625 13.875 5.515625 27.296875 
Q 5.515625 40.765625 12.171875 48.375 
Q 18.84375 56 30.609375 56 
z
" id="DejaVuSans-111"/>
       <path d="M 37.109375 75.984375 
L 37.109375 68.5 
L 28.515625 68.5 
Q 23.6875 68.5 21.796875 66.546875 
Q 19.921875 64.59375 19.921875 59.515625 
L 19.921875 54.6875 
L 34.71875 54.6875 
L 34.71875 47.703125 
L 19.921875 47.703125 
L 19.921875 0 
L 10.890625 0 
L 10.890625 47.703125 
L 2.296875 47.703125 
L 2.296875 54.6875 
L 10.890625 54.6875 
L 10.890625 58.5 
Q 10.890625 67.625 15.140625 71.796875 
Q 19.390625 75.984375 28.609375 75.984375 
z
" id="DejaVuSans-102"/>
       <path d="M 48.78125 52.59375 
L 48.78125 44.1875 
Q 44.96875 46.296875 41.140625 47.34375 
Q 37.3125 48.390625 33.40625 48.390625 
Q 24.65625 48.390625 19.8125 42.84375 
Q 14.984375 37.3125 14.984375 27.296875 
Q 14.984375 17.28125 19.8125 11.734375 
Q 24.65625 6.203125 33.40625 6.203125 
Q 37.3125 6.203125 41.140625 7.25 
Q 44.96875 8.296875 48.78125 10.40625 
L 48.78125 2.09375 
Q 45.015625 0.34375 40.984375 -0.53125 
Q 36.96875 -1.421875 32.421875 -1.421875 
Q 20.0625 -1.421875 12.78125 6.34375 
Q 5.515625 14.109375 5.515625 27.296875 
Q 5.515625 40.671875 12.859375 48.328125 
Q 20.21875 56 33.015625 56 
Q 37.15625 56 41.109375 55.140625 
Q 45.0625 54.296875 48.78125 52.59375 
z
" id="DejaVuSans-99"/>
       <path d="M 52 44.1875 
Q 55.375 50.25 60.0625 53.125 
Q 64.75 56 71.09375 56 
Q 79.640625 56 84.28125 50.015625 
Q 88.921875 44.046875 88.921875 33.015625 
L 88.921875 0 
L 79.890625 0 
L 79.890625 32.71875 
Q 79.890625 40.578125 77.09375 44.375 
Q 74.3125 48.1875 68.609375 48.1875 
Q 61.625 48.1875 57.5625 43.546875 
Q 53.515625 38.921875 53.515625 30.90625 
L 53.515625 0 
L 44.484375 0 
L 44.484375 32.71875 
Q 44.484375 40.625 41.703125 44.40625 
Q 38.921875 48.1875 33.109375 48.1875 
Q 26.21875 48.1875 22.15625 43.53125 
Q 18.109375 38.875 18.109375 30.90625 
L 18.109375 0 
L 9.078125 0 
L 9.078125 54.6875 
L 18.109375 54.6875 
L 18.109375 46.1875 
Q 21.1875 51.21875 25.484375 53.609375 
Q 29.78125 56 35.6875 56 
Q 41.65625 56 45.828125 52.96875 
Q 50 49.953125 52 44.1875 
z
" id="DejaVuSans-109"/>
       <path d="M 18.109375 8.203125 
L 18.109375 -20.796875 
L 9.078125 -20.796875 
L 9.078125 54.6875 
L 18.109375 54.6875 
L 18.109375 46.390625 
Q 20.953125 51.265625 25.265625 53.625 
Q 29.59375 56 35.59375 56 
Q 45.5625 56 51.78125 48.09375 
Q 58.015625 40.1875 58.015625 27.296875 
Q 58.015625 14.40625 51.78125 6.484375 
Q 45.5625 -1.421875 35.59375 -1.421875 
Q 29.59375 -1.421875 25.265625 0.953125 
Q 20.953125 3.328125 18.109375 8.203125 
z
M 48.6875 27.296875 
Q 48.6875 37.203125 44.609375 42.84375 
Q 40.53125 48.484375 33.40625 48.484375 
Q 26.265625 48.484375 22.1875 42.84375 
Q 18.109375 37.203125 18.109375 27.296875 
Q 18.109375 17.390625 22.1875 11.75 
Q 26.265625 6.109375 33.40625 6.109375 
Q 40.53125 6.109375 44.609375 11.75 
Q 48.6875 17.390625 48.6875 27.296875 
z
" id="DejaVuSans-112"/>
       <path d="M 8.5 21.578125 
L 8.5 54.6875 
L 17.484375 54.6875 
L 17.484375 21.921875 
Q 17.484375 14.15625 20.5 10.265625 
Q 23.53125 6.390625 29.59375 6.390625 
Q 36.859375 6.390625 41.078125 11.03125 
Q 45.3125 15.671875 45.3125 23.6875 
L 45.3125 54.6875 
L 54.296875 54.6875 
L 54.296875 0 
L 45.3125 0 
L 45.3125 8.40625 
Q 42.046875 3.421875 37.71875 1 
Q 33.40625 -1.421875 27.6875 -1.421875 
Q 18.265625 -1.421875 13.375 4.4375 
Q 8.5 10.296875 8.5 21.578125 
z
M 31.109375 56 
z
" id="DejaVuSans-117"/>
       <path d="M 54.890625 33.015625 
L 54.890625 0 
L 45.90625 0 
L 45.90625 32.71875 
Q 45.90625 40.484375 42.875 44.328125 
Q 39.84375 48.1875 33.796875 48.1875 
Q 26.515625 48.1875 22.3125 43.546875 
Q 18.109375 38.921875 18.109375 30.90625 
L 18.109375 0 
L 9.078125 0 
L 9.078125 54.6875 
L 18.109375 54.6875 
L 18.109375 46.1875 
Q 21.34375 51.125 25.703125 53.5625 
Q 30.078125 56 35.796875 56 
Q 45.21875 56 50.046875 50.171875 
Q 54.890625 44.34375 54.890625 33.015625 
z
" id="DejaVuSans-110"/>
       <path d="M 45.40625 46.390625 
L 45.40625 75.984375 
L 54.390625 75.984375 
L 54.390625 0 
L 45.40625 0 
L 45.40625 8.203125 
Q 42.578125 3.328125 38.25 0.953125 
Q 33.9375 -1.421875 27.875 -1.421875 
Q 17.96875 -1.421875 11.734375 6.484375 
Q 5.515625 14.40625 5.515625 27.296875 
Q 5.515625 40.1875 11.734375 48.09375 
Q 17.96875 56 27.875 56 
Q 33.9375 56 38.25 53.625 
Q 42.578125 51.265625 45.40625 46.390625 
z
M 14.796875 27.296875 
Q 14.796875 17.390625 18.875 11.75 
Q 22.953125 6.109375 30.078125 6.109375 
Q 37.203125 6.109375 41.296875 11.75 
Q 45.40625 17.390625 45.40625 27.296875 
Q 45.40625 37.203125 41.296875 42.84375 
Q 37.203125 48.484375 30.078125 48.484375 
Q 22.953125 48.484375 18.875 42.84375 
Q 14.796875 37.203125 14.796875 27.296875 
z
" id="DejaVuSans-100"/>
       <path d="M 44.28125 53.078125 
L 44.28125 44.578125 
Q 40.484375 46.53125 36.375 47.5 
Q 32.28125 48.484375 27.875 48.484375 
Q 21.1875 48.484375 17.84375 46.4375 
Q 14.5 44.390625 14.5 40.28125 
Q 14.5 37.15625 16.890625 35.375 
Q 19.28125 33.59375 26.515625 31.984375 
L 29.59375 31.296875 
Q 39.15625 29.25 43.1875 25.515625 
Q 47.21875 21.78125 47.21875 15.09375 
Q 47.21875 7.46875 41.1875 3.015625 
Q 35.15625 -1.421875 24.609375 -1.421875 
Q 20.21875 -1.421875 15.453125 -0.5625 
Q 10.6875 0.296875 5.421875 2 
L 5.421875 11.28125 
Q 10.40625 8.6875 15.234375 7.390625 
Q 20.0625 6.109375 24.8125 6.109375 
Q 31.15625 6.109375 34.5625 8.28125 
Q 37.984375 10.453125 37.984375 14.40625 
Q 37.984375 18.0625 35.515625 20.015625 
Q 33.0625 21.96875 24.703125 23.78125 
L 21.578125 24.515625 
Q 13.234375 26.265625 9.515625 29.90625 
Q 5.8125 33.546875 5.8125 39.890625 
Q 5.8125 47.609375 11.28125 51.796875 
Q 16.75 56 26.8125 56 
Q 31.78125 56 36.171875 55.265625 
Q 40.578125 54.546875 44.28125 53.078125 
z
" id="DejaVuSans-115"/>
       <path d="M 41.109375 46.296875 
Q 39.59375 47.171875 37.8125 47.578125 
Q 36.03125 48 33.890625 48 
Q 26.265625 48 22.1875 43.046875 
Q 18.109375 38.09375 18.109375 28.8125 
L 18.109375 0 
L 9.078125 0 
L 9.078125 54.6875 
L 18.109375 54.6875 
L 18.109375 46.1875 
Q 20.953125 51.171875 25.484375 53.578125 
Q 30.03125 56 36.53125 56 
Q 37.453125 56 38.578125 55.875 
Q 39.703125 55.765625 41.0625 55.515625 
z
" id="DejaVuSans-114"/>
       <path d="M 34.28125 27.484375 
Q 23.390625 27.484375 19.1875 25 
Q 14.984375 22.515625 14.984375 16.5 
Q 14.984375 11.71875 18.140625 8.90625 
Q 21.296875 6.109375 26.703125 6.109375 
Q 34.1875 6.109375 38.703125 11.40625 
Q 43.21875 16.703125 43.21875 25.484375 
L 43.21875 27.484375 
z
M 52.203125 31.203125 
L 52.203125 0 
L 43.21875 0 
L 43.21875 8.296875 
Q 40.140625 3.328125 35.546875 0.953125 
Q 30.953125 -1.421875 24.3125 -1.421875 
Q 15.921875 -1.421875 10.953125 3.296875 
Q 6 8.015625 6 15.921875 
Q 6 25.140625 12.171875 29.828125 
Q 18.359375 34.515625 30.609375 34.515625 
L 43.21875 34.515625 
L 43.21875 35.40625 
Q 43.21875 41.609375 39.140625 45 
Q 35.0625 48.390625 27.6875 48.390625 
Q 23 48.390625 18.546875 47.265625 
Q 14.109375 46.140625 10.015625 43.890625 
L 10.015625 52.203125 
Q 14.9375 54.109375 19.578125 55.046875 
Q 24.21875 56 28.609375 56 
Q 40.484375 56 46.34375 49.84375 
Q 52.203125 43.703125 52.203125 31.203125 
z
" id="DejaVuSans-97"/>
       <path d="M 9.078125 75.984375 
L 18.109375 75.984375 
L 18.109375 31.109375 
L 44.921875 54.6875 
L 56.390625 54.6875 
L 27.390625 29.109375 
L 57.625 0 
L 45.90625 0 
L 18.109375 26.703125 
L 18.109375 0 
L 9.078125 0 
z
" id="DejaVuSans-107"/>
       <path d="M 56.203125 29.59375 
L 56.203125 25.203125 
L 14.890625 25.203125 
Q 15.484375 15.921875 20.484375 11.0625 
Q 25.484375 6.203125 34.421875 6.203125 
Q 39.59375 6.203125 44.453125 7.46875 
Q 49.3125 8.734375 54.109375 11.28125 
L 54.109375 2.78125 
Q 49.265625 0.734375 44.1875 -0.34375 
Q 39.109375 -1.421875 33.890625 -1.421875 
Q 20.796875 -1.421875 13.15625 6.1875 
Q 5.515625 13.8125 5.515625 26.8125 
Q 5.515625 40.234375 12.765625 48.109375 
Q 20.015625 56 32.328125 56 
Q 43.359375 56 49.78125 48.890625 
Q 56.203125 41.796875 56.203125 29.59375 
z
M 47.21875 32.234375 
Q 47.125 39.59375 43.09375 43.984375 
Q 39.0625 48.390625 32.421875 48.390625 
Q 24.90625 48.390625 20.390625 44.140625 
Q 15.875 39.890625 15.1875 32.171875 
z
" id="DejaVuSans-101"/>
       <path d="M 48.6875 27.296875 
Q 48.6875 37.203125 44.609375 42.84375 
Q 40.53125 48.484375 33.40625 48.484375 
Q 26.265625 48.484375 22.1875 42.84375 
Q 18.109375 37.203125 18.109375 27.296875 
Q 18.109375 17.390625 22.1875 11.75 
Q 26.265625 6.109375 33.40625 6.109375 
Q 40.53125 6.109375 44.609375 11.75 
Q 48.6875 17.390625 48.6875 27.296875 
z
M 18.109375 46.390625 
Q 20.953125 51.265625 25.265625 53.625 
Q 29.59375 56 35.59375 56 
Q 45.5625 56 51.78125 48.09375 
Q 58.015625 40.1875 58.015625 27.296875 
Q 58.015625 14.40625 51.78125 6.484375 
Q 45.5625 -1.421875 35.59375 -1.421875 
Q 29.59375 -1.421875 25.265625 0.953125 
Q 20.953125 3.328125 18.109375 8.203125 
L 18.109375 0 
L 9.078125 0 
L 9.078125 75.984375 
L 18.109375 75.984375 
z
" id="DejaVuSans-98"/>
       <path d="M 32.171875 -5.078125 
Q 28.375 -14.84375 24.75 -17.8125 
Q 21.140625 -20.796875 15.09375 -20.796875 
L 7.90625 -20.796875 
L 7.90625 -13.28125 
L 13.1875 -13.28125 
Q 16.890625 -13.28125 18.9375 -11.515625 
Q 21 -9.765625 23.484375 -3.21875 
L 25.09375 0.875 
L 2.984375 54.6875 
L 12.5 54.6875 
L 29.59375 11.921875 
L 46.6875 54.6875 
L 56.203125 54.6875 
z
" id="DejaVuSans-121"/>
       <path d="M 18.3125 70.21875 
L 18.3125 54.6875 
L 36.8125 54.6875 
L 36.8125 47.703125 
L 18.3125 47.703125 
L 18.3125 18.015625 
Q 18.3125 11.328125 20.140625 9.421875 
Q 21.96875 7.515625 27.59375 7.515625 
L 36.8125 7.515625 
L 36.8125 0 
L 27.59375 0 
Q 17.1875 0 13.234375 3.875 
Q 9.28125 7.765625 9.28125 18.015625 
L 9.28125 47.703125 
L 2.6875 47.703125 
L 2.6875 54.6875 
L 9.28125 54.6875 
L 9.28125 70.21875 
z
" id="DejaVuSans-116"/>
       <path d="M 9.421875 54.6875 
L 18.40625 54.6875 
L 18.40625 0 
L 9.421875 0 
z
M 9.421875 75.984375 
L 18.40625 75.984375 
L 18.40625 64.59375 
L 9.421875 64.59375 
z
" id="DejaVuSans-105"/>
      </defs>
      <use xlink:href="#DejaVuSans-37"/>
      <use x="95.019531" xlink:href="#DejaVuSans-32"/>
      <use x="126.806641" xlink:href="#DejaVuSans-111"/>
      <use x="187.988281" xlink:href="#DejaVuSans-102"/>
      <use x="223.193359" xlink:href="#DejaVuSans-32"/>
      <use x="254.980469" xlink:href="#DejaVuSans-99"/>
      <use x="309.960938" xlink:href="#DejaVuSans-111"/>
      <use x="371.142578" xlink:href="#DejaVuSans-109"/>
      <use x="468.554688" xlink:href="#DejaVuSans-112"/>
      <use x="532.03125" xlink:href="#DejaVuSans-111"/>
      <use x="593.212891" xlink:href="#DejaVuSans-117"/>
      <use x="656.591797" xlink:href="#DejaVuSans-110"/>
      <use x="719.970703" xlink:href="#DejaVuSans-100"/>
      <use x="783.447266" xlink:href="#DejaVuSans-115"/>
      <use x="835.546875" xlink:href="#DejaVuSans-32"/>
      <use x="867.333984" xlink:href="#DejaVuSans-114"/>
      <use x="908.447266" xlink:href="#DejaVuSans-97"/>
      <use x="969.726562" xlink:href="#DejaVuSans-110"/>
      <use x="1033.105469" xlink:href="#DejaVuSans-107"/>
      <use x="1087.390625" xlink:href="#DejaVuSans-101"/>
      <use x="1148.914062" xlink:href="#DejaVuSans-100"/>
      <use x="1212.390625" xlink:href="#DejaVuSans-32"/>
      <use x="1244.177734" xlink:href="#DejaVuSans-98"/>
      <use x="1307.654297" xlink:href="#DejaVuSans-121"/>
      <use x="1366.833984" xlink:href="#DejaVuSans-32"/>
      <use x="1398.621094" xlink:href="#DejaVuSans-117"/>
      <use x="1462" xlink:href="#DejaVuSans-110"/>
      <use x="1525.378906" xlink:href="#DejaVuSans-99"/>
      <use x="1580.359375" xlink:href="#DejaVuSans-101"/>
      <use x="1641.882812" xlink:href="#DejaVuSans-114"/>
      <use x="1682.996094" xlink:href="#DejaVuSans-116"/>
      <use x="1722.205078" xlink:href="#DejaVuSans-97"/>
      <use x="1783.484375" xlink:href="#DejaVuSans-105"/>
      <use x="1811.267578" xlink:href="#DejaVuSans-110"/>
      <use x="1874.646484" xlink:href="#DejaVuSans-116"/>
      <use x="1913.855469" xlink:href="#DejaVuSans-121"/>
     </g>
    </g>
   </g>
   <g id="matplotlib.axis_2">
    <g id="ytick_1">
     <g id="line2d_12">
      <defs>
       <path d="M 0 0 
L -3.5 0 
" id="m0cf0ba286b" style="stroke:#000000;stroke-width:0.8;"/>
      </defs>
      <g>
       <use style="stroke:#000000;stroke-width:0.8;" x="108" xlink:href="#m0cf0ba286b" y="231.845942"/>
      </g>
     </g>
     <g id="text_13">
      <!-- 0.15 -->
      <g transform="translate(78.734375 235.64516)scale(0.1 -0.1)">
       <defs>
        <path d="M 10.6875 12.40625 
L 21 12.40625 
L 21 0 
L 10.6875 0 
z
" id="DejaVuSans-46"/>
       </defs>
       <use xlink:href="#DejaVuSans-48"/>
       <use x="63.623047" xlink:href="#DejaVuSans-46"/>
       <use x="95.410156" xlink:href="#DejaVuSans-49"/>
       <use x="159.033203" xlink:href="#DejaVuSans-53"/>
      </g>
     </g>
    </g>
    <g id="ytick_2">
     <g id="line2d_13">
      <g>
       <use style="stroke:#000000;stroke-width:0.8;" x="108" xlink:href="#m0cf0ba286b" y="197.264833"/>
      </g>
     </g>
     <g id="text_14">
      <!-- 0.20 -->
      <g transform="translate(78.734375 201.064052)scale(0.1 -0.1)">
       <use xlink:href="#DejaVuSans-48"/>
       <use x="63.623047" xlink:href="#DejaVuSans-46"/>
       <use x="95.410156" xlink:href="#DejaVuSans-50"/>
       <use x="159.033203" xlink:href="#DejaVuSans-48"/>
      </g>
     </g>
    </g>
    <g id="ytick_3">
     <g id="line2d_14">
      <g>
       <use style="stroke:#000000;stroke-width:0.8;" x="108" xlink:href="#m0cf0ba286b" y="162.683725"/>
      </g>
     </g>
     <g id="text_15">
      <!-- 0.25 -->
      <g transform="translate(78.734375 166.482943)scale(0.1 -0.1)">
       <use xlink:href="#DejaVuSans-48"/>
       <use x="63.623047" xlink:href="#DejaVuSans-46"/>
       <use x="95.410156" xlink:href="#DejaVuSans-50"/>
       <use x="159.033203" xlink:href="#DejaVuSans-53"/>
      </g>
     </g>
    </g>
    <g id="ytick_4">
     <g id="line2d_15">
      <g>
       <use style="stroke:#000000;stroke-width:0.8;" x="108" xlink:href="#m0cf0ba286b" y="128.102616"/>
      </g>
     </g>
     <g id="text_16">
      <!-- 0.30 -->
      <g transform="translate(78.734375 131.901835)scale(0.1 -0.1)">
       <use xlink:href="#DejaVuSans-48"/>
       <use x="63.623047" xlink:href="#DejaVuSans-46"/>
       <use x="95.410156" xlink:href="#DejaVuSans-51"/>
       <use x="159.033203" xlink:href="#DejaVuSans-48"/>
      </g>
     </g>
    </g>
    <g id="ytick_5">
     <g id="line2d_16">
      <g>
       <use style="stroke:#000000;stroke-width:0.8;" x="108" xlink:href="#m0cf0ba286b" y="93.521508"/>
      </g>
     </g>
     <g id="text_17">
      <!-- 0.35 -->
      <g transform="translate(78.734375 97.320726)scale(0.1 -0.1)">
       <use xlink:href="#DejaVuSans-48"/>
       <use x="63.623047" xlink:href="#DejaVuSans-46"/>
       <use x="95.410156" xlink:href="#DejaVuSans-51"/>
       <use x="159.033203" xlink:href="#DejaVuSans-53"/>
      </g>
     </g>
    </g>
    <g id="ytick_6">
     <g id="line2d_17">
      <g>
       <use style="stroke:#000000;stroke-width:0.8;" x="108" xlink:href="#m0cf0ba286b" y="58.940399"/>
      </g>
     </g>
     <g id="text_18">
      <!-- 0.40 -->
      <g transform="translate(78.734375 62.739618)scale(0.1 -0.1)">
       <use xlink:href="#DejaVuSans-48"/>
       <use x="63.623047" xlink:href="#DejaVuSans-46"/>
       <use x="95.410156" xlink:href="#DejaVuSans-52"/>
       <use x="159.033203" xlink:href="#DejaVuSans-48"/>
      </g>
     </g>
    </g>
    <g id="text_19">
     <!-- Mean prediction error -->
     <g transform="translate(72.654687 197.2675)rotate(-90)scale(0.1 -0.1)">
      <defs>
       <path d="M 9.8125 72.90625 
L 24.515625 72.90625 
L 43.109375 23.296875 
L 61.8125 72.90625 
L 76.515625 72.90625 
L 76.515625 0 
L 66.890625 0 
L 66.890625 64.015625 
L 48.09375 14.015625 
L 38.1875 14.015625 
L 19.390625 64.015625 
L 19.390625 0 
L 9.8125 0 
z
" id="DejaVuSans-77"/>
      </defs>
      <use xlink:href="#DejaVuSans-77"/>
      <use x="86.279297" xlink:href="#DejaVuSans-101"/>
      <use x="147.802734" xlink:href="#DejaVuSans-97"/>
      <use x="209.082031" xlink:href="#DejaVuSans-110"/>
      <use x="272.460938" xlink:href="#DejaVuSans-32"/>
      <use x="304.248047" xlink:href="#DejaVuSans-112"/>
      <use x="367.724609" xlink:href="#DejaVuSans-114"/>
      <use x="406.587891" xlink:href="#DejaVuSans-101"/>
      <use x="468.111328" xlink:href="#DejaVuSans-100"/>
      <use x="531.587891" xlink:href="#DejaVuSans-105"/>
      <use x="559.371094" xlink:href="#DejaVuSans-99"/>
      <use x="614.351562" xlink:href="#DejaVuSans-116"/>
      <use x="653.560547" xlink:href="#DejaVuSans-105"/>
      <use x="681.34375" xlink:href="#DejaVuSans-111"/>
      <use x="742.525391" xlink:href="#DejaVuSans-110"/>
      <use x="805.904297" xlink:href="#DejaVuSans-32"/>
      <use x="837.691406" xlink:href="#DejaVuSans-101"/>
      <use x="899.214844" xlink:href="#DejaVuSans-114"/>
      <use x="938.578125" xlink:href="#DejaVuSans-114"/>
      <use x="977.441406" xlink:href="#DejaVuSans-111"/>
      <use x="1038.623047" xlink:href="#DejaVuSans-114"/>
     </g>
    </g>
   </g>
   <g id="line2d_18">
    <path clip-path="url(#p13364bb8fe)" d="M 121.233202 44.443636 
L 122.556522 49.135048 
L 123.879842 50.272998 
L 125.203162 53.220391 
L 126.526482 53.782568 
L 127.849802 53.337782 
L 129.173123 53.369182 
L 131.819763 53.198626 
L 133.143083 52.25391 
L 134.466403 52.433783 
L 135.789723 51.216674 
L 137.113043 50.644476 
L 138.436364 54.523332 
L 139.759684 55.283142 
L 141.083004 57.740287 
L 142.406324 57.704552 
L 143.729644 58.505997 
L 145.052964 60.65956 
L 146.376285 59.8081 
L 147.699605 61.855881 
L 149.022925 68.134873 
L 150.346245 71.617124 
L 151.669565 70.801885 
L 152.992885 70.885635 
L 154.316206 69.46347 
L 155.639526 71.141307 
L 156.962846 74.168002 
L 158.286166 81.92219 
L 159.609486 84.421932 
L 162.256126 87.883735 
L 163.579447 91.821587 
L 164.902767 92.518448 
L 167.549407 95.876445 
L 168.872727 98.35976 
L 170.196047 97.300979 
L 171.519368 106.075262 
L 172.842688 108.639216 
L 174.166008 109.901899 
L 175.489328 112.149874 
L 178.135968 112.971082 
L 179.459289 114.057634 
L 180.782609 116.348945 
L 182.105929 117.688364 
L 183.429249 117.508046 
L 186.075889 115.350992 
L 187.399209 116.991695 
L 188.72253 115.797872 
L 190.04585 115.24781 
L 191.36917 113.898034 
L 192.69249 112.928805 
L 194.01581 112.550925 
L 195.33913 113.107205 
L 196.662451 112.190148 
L 197.985771 112.866129 
L 199.309091 112.681504 
L 201.955731 116.584681 
L 203.279051 116.572424 
L 204.602372 120.264354 
L 205.925692 123.339929 
L 207.249012 122.575785 
L 208.572332 125.397194 
L 209.895652 125.334564 
L 211.218972 124.337012 
L 212.542292 126.742925 
L 213.865613 125.279512 
L 215.188933 127.003742 
L 216.512253 127.839587 
L 217.835573 128.95503 
L 219.158893 130.567676 
L 220.482213 130.716819 
L 221.805534 133.891052 
L 223.128854 132.702575 
L 224.452174 133.959109 
L 225.775494 134.340341 
L 227.098814 140.710848 
L 228.422134 142.327376 
L 229.745455 141.035925 
L 231.068775 143.577952 
L 232.392095 143.189959 
L 233.715415 145.561665 
L 235.038735 145.366204 
L 236.362055 147.965988 
L 237.685375 148.502008 
L 239.008696 148.358308 
L 240.332016 149.567547 
L 241.655336 149.35176 
L 242.978656 150.479701 
L 244.301976 148.785118 
L 245.625296 147.862266 
L 246.948617 153.732728 
L 248.271937 153.006867 
L 249.595257 156.894041 
L 250.918577 155.720114 
L 252.241897 156.391515 
L 253.565217 164.601347 
L 256.211858 163.294131 
L 257.535178 162.078127 
L 258.858498 160.480855 
L 260.181818 163.725547 
L 261.505138 166.482837 
L 262.828458 165.744436 
L 264.151779 166.161595 
L 265.475099 164.513614 
L 266.798419 164.489899 
L 268.121739 164.892588 
L 269.445059 164.103342 
L 270.768379 162.951772 
L 272.0917 166.181115 
L 273.41502 166.453115 
L 274.73834 164.754003 
L 276.06166 169.204792 
L 278.7083 165.657147 
L 280.031621 166.332698 
L 281.354941 165.644613 
L 282.678261 167.650417 
L 284.001581 168.425822 
L 285.324901 167.993659 
L 287.971542 164.220165 
L 289.294862 163.16933 
L 290.618182 162.425207 
L 291.941502 167.271784 
L 293.264822 170.516334 
L 295.911462 178.773632 
L 297.234783 184.31584 
L 298.558103 190.678175 
L 299.881423 188.959368 
L 301.204743 186.925849 
L 302.528063 188.988376 
L 305.174704 185.506167 
L 306.498024 185.131881 
L 307.821344 186.308411 
L 309.144664 185.83479 
L 310.467984 186.319138 
L 311.791304 187.925071 
L 313.114625 194.897853 
L 314.437945 194.300206 
L 315.761265 192.613933 
L 317.084585 190.452809 
L 318.407905 189.733098 
L 319.731225 186.980743 
L 321.054545 196.545866 
L 322.377866 195.246052 
L 323.701186 195.215138 
L 325.024506 195.966931 
L 326.347826 195.004497 
L 327.671146 193.373566 
L 328.994466 194.813729 
L 330.317787 198.725313 
L 331.641107 196.881801 
L 332.964427 205.135176 
L 334.287747 203.532317 
L 335.611067 201.037467 
L 336.934387 198.868902 
L 338.257708 196.924602 
L 340.904348 189.461389 
L 342.227668 187.093212 
L 343.550988 187.404731 
L 344.874308 195.490974 
L 346.197628 191.618409 
L 347.520949 190.031248 
L 348.844269 192.660189 
L 350.167589 204.584407 
L 351.490909 202.937254 
L 352.814229 198.626093 
L 354.137549 205.062799 
L 355.46087 202.916659 
L 356.78419 198.465991 
L 358.10751 193.07302 
L 359.43083 196.415069 
L 360.75415 194.70341 
L 362.07747 188.337864 
L 363.400791 184.286367 
L 364.724111 178.273171 
L 366.047431 169.741879 
L 368.694071 184.694341 
L 370.017391 181.62977 
L 371.340711 193.53286 
L 372.664032 188.540634 
L 373.987352 218.952582 
L 375.310672 207.9816 
L 376.633992 201.960826 
L 377.957312 188.310974 
L 379.280632 240.522545 
L 380.603953 239.160388 
L 381.927273 242.116364 
L 383.250593 224.528997 
L 384.573913 222.164761 
L 385.897233 166.581157 
L 385.897233 166.581157 
" style="fill:none;stroke:#1f77b4;stroke-linecap:square;stroke-width:1.5;"/>
   </g>
   <g id="patch_3">
    <path d="M 108 252 
L 108 34.56 
" style="fill:none;stroke:#000000;stroke-linecap:square;stroke-linejoin:miter;stroke-width:0.8;"/>
   </g>
   <g id="patch_4">
    <path d="M 399.130435 252 
L 399.130435 34.56 
" style="fill:none;stroke:#000000;stroke-linecap:square;stroke-linejoin:miter;stroke-width:0.8;"/>
   </g>
   <g id="patch_5">
    <path d="M 108 252 
L 399.130435 252 
" style="fill:none;stroke:#000000;stroke-linecap:square;stroke-linejoin:miter;stroke-width:0.8;"/>
   </g>
   <g id="patch_6">
    <path d="M 108 34.56 
L 399.130435 34.56 
" style="fill:none;stroke:#000000;stroke-linecap:square;stroke-linejoin:miter;stroke-width:0.8;"/>
   </g>
   <g id="text_20">
    <!-- ESOL data -->
    <g transform="translate(222.47678 28.56)scale(0.12 -0.12)">
     <defs>
      <path d="M 9.8125 72.90625 
L 55.90625 72.90625 
L 55.90625 64.59375 
L 19.671875 64.59375 
L 19.671875 43.015625 
L 54.390625 43.015625 
L 54.390625 34.71875 
L 19.671875 34.71875 
L 19.671875 8.296875 
L 56.78125 8.296875 
L 56.78125 0 
L 9.8125 0 
z
" id="DejaVuSans-69"/>
      <path d="M 53.515625 70.515625 
L 53.515625 60.890625 
Q 47.90625 63.578125 42.921875 64.890625 
Q 37.9375 66.21875 33.296875 66.21875 
Q 25.25 66.21875 20.875 63.09375 
Q 16.5 59.96875 16.5 54.203125 
Q 16.5 49.359375 19.40625 46.890625 
Q 22.3125 44.4375 30.421875 42.921875 
L 36.375 41.703125 
Q 47.40625 39.59375 52.65625 34.296875 
Q 57.90625 29 57.90625 20.125 
Q 57.90625 9.515625 50.796875 4.046875 
Q 43.703125 -1.421875 29.984375 -1.421875 
Q 24.8125 -1.421875 18.96875 -0.25 
Q 13.140625 0.921875 6.890625 3.21875 
L 6.890625 13.375 
Q 12.890625 10.015625 18.65625 8.296875 
Q 24.421875 6.59375 29.984375 6.59375 
Q 38.421875 6.59375 43.015625 9.90625 
Q 47.609375 13.234375 47.609375 19.390625 
Q 47.609375 24.75 44.3125 27.78125 
Q 41.015625 30.8125 33.5 32.328125 
L 27.484375 33.5 
Q 16.453125 35.6875 11.515625 40.375 
Q 6.59375 45.0625 6.59375 53.421875 
Q 6.59375 63.09375 13.40625 68.65625 
Q 20.21875 74.21875 32.171875 74.21875 
Q 37.3125 74.21875 42.625 73.28125 
Q 47.953125 72.359375 53.515625 70.515625 
z
" id="DejaVuSans-83"/>
      <path d="M 39.40625 66.21875 
Q 28.65625 66.21875 22.328125 58.203125 
Q 16.015625 50.203125 16.015625 36.375 
Q 16.015625 22.609375 22.328125 14.59375 
Q 28.65625 6.59375 39.40625 6.59375 
Q 50.140625 6.59375 56.421875 14.59375 
Q 62.703125 22.609375 62.703125 36.375 
Q 62.703125 50.203125 56.421875 58.203125 
Q 50.140625 66.21875 39.40625 66.21875 
z
M 39.40625 74.21875 
Q 54.734375 74.21875 63.90625 63.9375 
Q 73.09375 53.65625 73.09375 36.375 
Q 73.09375 19.140625 63.90625 8.859375 
Q 54.734375 -1.421875 39.40625 -1.421875 
Q 24.03125 -1.421875 14.8125 8.828125 
Q 5.609375 19.09375 5.609375 36.375 
Q 5.609375 53.65625 14.8125 63.9375 
Q 24.03125 74.21875 39.40625 74.21875 
z
" id="DejaVuSans-79"/>
      <path d="M 9.8125 72.90625 
L 19.671875 72.90625 
L 19.671875 8.296875 
L 55.171875 8.296875 
L 55.171875 0 
L 9.8125 0 
z
" id="DejaVuSans-76"/>
     </defs>
     <use xlink:href="#DejaVuSans-69"/>
     <use x="63.183594" xlink:href="#DejaVuSans-83"/>
     <use x="126.660156" xlink:href="#DejaVuSans-79"/>
     <use x="205.371094" xlink:href="#DejaVuSans-76"/>
     <use x="261.083984" xlink:href="#DejaVuSans-32"/>
     <use x="292.871094" xlink:href="#DejaVuSans-100"/>
     <use x="356.347656" xlink:href="#DejaVuSans-97"/>
     <use x="417.626953" xlink:href="#DejaVuSans-116"/>
     <use x="456.835938" xlink:href="#DejaVuSans-97"/>
    </g>
   </g>
  </g>
  <g id="axes_2">
   <g id="patch_7">
    <path d="M 486.469565 252 
L 777.6 252 
L 777.6 34.56 
L 486.469565 34.56 
z
" style="fill:#ffffff;"/>
   </g>
   <g id="matplotlib.axis_3">
    <g id="xtick_12">
     <g id="line2d_19">
      <g>
       <use style="stroke:#000000;stroke-width:0.8;" x="499.702767" xlink:href="#m462ba52421" y="252"/>
      </g>
     </g>
     <g id="text_21">
      <!-- 100 -->
      <g transform="translate(490.159017 266.598437)scale(0.1 -0.1)">
       <use xlink:href="#DejaVuSans-49"/>
       <use x="63.623047" xlink:href="#DejaVuSans-48"/>
       <use x="127.246094" xlink:href="#DejaVuSans-48"/>
      </g>
     </g>
    </g>
    <g id="xtick_13">
     <g id="line2d_20">
      <g>
       <use style="stroke:#000000;stroke-width:0.8;" x="526.200715" xlink:href="#m462ba52421" y="252"/>
      </g>
     </g>
     <g id="text_22">
      <!-- 90 -->
      <g transform="translate(519.838215 266.598437)scale(0.1 -0.1)">
       <use xlink:href="#DejaVuSans-57"/>
       <use x="63.623047" xlink:href="#DejaVuSans-48"/>
      </g>
     </g>
    </g>
    <g id="xtick_14">
     <g id="line2d_21">
      <g>
       <use style="stroke:#000000;stroke-width:0.8;" x="552.698663" xlink:href="#m462ba52421" y="252"/>
      </g>
     </g>
     <g id="text_23">
      <!-- 80 -->
      <g transform="translate(546.336163 266.598437)scale(0.1 -0.1)">
       <use xlink:href="#DejaVuSans-56"/>
       <use x="63.623047" xlink:href="#DejaVuSans-48"/>
      </g>
     </g>
    </g>
    <g id="xtick_15">
     <g id="line2d_22">
      <g>
       <use style="stroke:#000000;stroke-width:0.8;" x="579.196612" xlink:href="#m462ba52421" y="252"/>
      </g>
     </g>
     <g id="text_24">
      <!-- 70 -->
      <g transform="translate(572.834112 266.598437)scale(0.1 -0.1)">
       <use xlink:href="#DejaVuSans-55"/>
       <use x="63.623047" xlink:href="#DejaVuSans-48"/>
      </g>
     </g>
    </g>
    <g id="xtick_16">
     <g id="line2d_23">
      <g>
       <use style="stroke:#000000;stroke-width:0.8;" x="605.69456" xlink:href="#m462ba52421" y="252"/>
      </g>
     </g>
     <g id="text_25">
      <!-- 60 -->
      <g transform="translate(599.33206 266.598437)scale(0.1 -0.1)">
       <use xlink:href="#DejaVuSans-54"/>
       <use x="63.623047" xlink:href="#DejaVuSans-48"/>
      </g>
     </g>
    </g>
    <g id="xtick_17">
     <g id="line2d_24">
      <g>
       <use style="stroke:#000000;stroke-width:0.8;" x="632.192508" xlink:href="#m462ba52421" y="252"/>
      </g>
     </g>
     <g id="text_26">
      <!-- 50 -->
      <g transform="translate(625.830008 266.598437)scale(0.1 -0.1)">
       <use xlink:href="#DejaVuSans-53"/>
       <use x="63.623047" xlink:href="#DejaVuSans-48"/>
      </g>
     </g>
    </g>
    <g id="xtick_18">
     <g id="line2d_25">
      <g>
       <use style="stroke:#000000;stroke-width:0.8;" x="658.690457" xlink:href="#m462ba52421" y="252"/>
      </g>
     </g>
     <g id="text_27">
      <!-- 40 -->
      <g transform="translate(652.327957 266.598437)scale(0.1 -0.1)">
       <use xlink:href="#DejaVuSans-52"/>
       <use x="63.623047" xlink:href="#DejaVuSans-48"/>
      </g>
     </g>
    </g>
    <g id="xtick_19">
     <g id="line2d_26">
      <g>
       <use style="stroke:#000000;stroke-width:0.8;" x="685.188405" xlink:href="#m462ba52421" y="252"/>
      </g>
     </g>
     <g id="text_28">
      <!-- 30 -->
      <g transform="translate(678.825905 266.598437)scale(0.1 -0.1)">
       <use xlink:href="#DejaVuSans-51"/>
       <use x="63.623047" xlink:href="#DejaVuSans-48"/>
      </g>
     </g>
    </g>
    <g id="xtick_20">
     <g id="line2d_27">
      <g>
       <use style="stroke:#000000;stroke-width:0.8;" x="711.686354" xlink:href="#m462ba52421" y="252"/>
      </g>
     </g>
     <g id="text_29">
      <!-- 20 -->
      <g transform="translate(705.323854 266.598437)scale(0.1 -0.1)">
       <use xlink:href="#DejaVuSans-50"/>
       <use x="63.623047" xlink:href="#DejaVuSans-48"/>
      </g>
     </g>
    </g>
    <g id="xtick_21">
     <g id="line2d_28">
      <g>
       <use style="stroke:#000000;stroke-width:0.8;" x="738.184302" xlink:href="#m462ba52421" y="252"/>
      </g>
     </g>
     <g id="text_30">
      <!-- 10 -->
      <g transform="translate(731.821802 266.598437)scale(0.1 -0.1)">
       <use xlink:href="#DejaVuSans-49"/>
       <use x="63.623047" xlink:href="#DejaVuSans-48"/>
      </g>
     </g>
    </g>
    <g id="xtick_22">
     <g id="line2d_29">
      <g>
       <use style="stroke:#000000;stroke-width:0.8;" x="764.68225" xlink:href="#m462ba52421" y="252"/>
      </g>
     </g>
     <g id="text_31">
      <!-- 0 -->
      <g transform="translate(761.501 266.598437)scale(0.1 -0.1)">
       <use xlink:href="#DejaVuSans-48"/>
      </g>
     </g>
    </g>
    <g id="text_32">
     <!-- % of compounds ranked by uncertainty -->
     <g transform="translate(533.38322 280.276563)scale(0.1 -0.1)">
      <use xlink:href="#DejaVuSans-37"/>
      <use x="95.019531" xlink:href="#DejaVuSans-32"/>
      <use x="126.806641" xlink:href="#DejaVuSans-111"/>
      <use x="187.988281" xlink:href="#DejaVuSans-102"/>
      <use x="223.193359" xlink:href="#DejaVuSans-32"/>
      <use x="254.980469" xlink:href="#DejaVuSans-99"/>
      <use x="309.960938" xlink:href="#DejaVuSans-111"/>
      <use x="371.142578" xlink:href="#DejaVuSans-109"/>
      <use x="468.554688" xlink:href="#DejaVuSans-112"/>
      <use x="532.03125" xlink:href="#DejaVuSans-111"/>
      <use x="593.212891" xlink:href="#DejaVuSans-117"/>
      <use x="656.591797" xlink:href="#DejaVuSans-110"/>
      <use x="719.970703" xlink:href="#DejaVuSans-100"/>
      <use x="783.447266" xlink:href="#DejaVuSans-115"/>
      <use x="835.546875" xlink:href="#DejaVuSans-32"/>
      <use x="867.333984" xlink:href="#DejaVuSans-114"/>
      <use x="908.447266" xlink:href="#DejaVuSans-97"/>
      <use x="969.726562" xlink:href="#DejaVuSans-110"/>
      <use x="1033.105469" xlink:href="#DejaVuSans-107"/>
      <use x="1087.390625" xlink:href="#DejaVuSans-101"/>
      <use x="1148.914062" xlink:href="#DejaVuSans-100"/>
      <use x="1212.390625" xlink:href="#DejaVuSans-32"/>
      <use x="1244.177734" xlink:href="#DejaVuSans-98"/>
      <use x="1307.654297" xlink:href="#DejaVuSans-121"/>
      <use x="1366.833984" xlink:href="#DejaVuSans-32"/>
      <use x="1398.621094" xlink:href="#DejaVuSans-117"/>
      <use x="1462" xlink:href="#DejaVuSans-110"/>
      <use x="1525.378906" xlink:href="#DejaVuSans-99"/>
      <use x="1580.359375" xlink:href="#DejaVuSans-101"/>
      <use x="1641.882812" xlink:href="#DejaVuSans-114"/>
      <use x="1682.996094" xlink:href="#DejaVuSans-116"/>
      <use x="1722.205078" xlink:href="#DejaVuSans-97"/>
      <use x="1783.484375" xlink:href="#DejaVuSans-105"/>
      <use x="1811.267578" xlink:href="#DejaVuSans-110"/>
      <use x="1874.646484" xlink:href="#DejaVuSans-116"/>
      <use x="1913.855469" xlink:href="#DejaVuSans-121"/>
     </g>
    </g>
   </g>
   <g id="matplotlib.axis_4">
    <g id="ytick_7">
     <g id="line2d_30">
      <g>
       <use style="stroke:#000000;stroke-width:0.8;" x="486.469565" xlink:href="#m0cf0ba286b" y="248.093808"/>
      </g>
     </g>
     <g id="text_33">
      <!-- 0.0 -->
      <g transform="translate(463.56644 251.893027)scale(0.1 -0.1)">
       <use xlink:href="#DejaVuSans-48"/>
       <use x="63.623047" xlink:href="#DejaVuSans-46"/>
       <use x="95.410156" xlink:href="#DejaVuSans-48"/>
      </g>
     </g>
    </g>
    <g id="ytick_8">
     <g id="line2d_31">
      <g>
       <use style="stroke:#000000;stroke-width:0.8;" x="486.469565" xlink:href="#m0cf0ba286b" y="201.510173"/>
      </g>
     </g>
     <g id="text_34">
      <!-- 0.1 -->
      <g transform="translate(463.56644 205.309392)scale(0.1 -0.1)">
       <use xlink:href="#DejaVuSans-48"/>
       <use x="63.623047" xlink:href="#DejaVuSans-46"/>
       <use x="95.410156" xlink:href="#DejaVuSans-49"/>
      </g>
     </g>
    </g>
    <g id="ytick_9">
     <g id="line2d_32">
      <g>
       <use style="stroke:#000000;stroke-width:0.8;" x="486.469565" xlink:href="#m0cf0ba286b" y="154.926538"/>
      </g>
     </g>
     <g id="text_35">
      <!-- 0.2 -->
      <g transform="translate(463.56644 158.725757)scale(0.1 -0.1)">
       <use xlink:href="#DejaVuSans-48"/>
       <use x="63.623047" xlink:href="#DejaVuSans-46"/>
       <use x="95.410156" xlink:href="#DejaVuSans-50"/>
      </g>
     </g>
    </g>
    <g id="ytick_10">
     <g id="line2d_33">
      <g>
       <use style="stroke:#000000;stroke-width:0.8;" x="486.469565" xlink:href="#m0cf0ba286b" y="108.342903"/>
      </g>
     </g>
     <g id="text_36">
      <!-- 0.3 -->
      <g transform="translate(463.56644 112.142122)scale(0.1 -0.1)">
       <use xlink:href="#DejaVuSans-48"/>
       <use x="63.623047" xlink:href="#DejaVuSans-46"/>
       <use x="95.410156" xlink:href="#DejaVuSans-51"/>
      </g>
     </g>
    </g>
    <g id="ytick_11">
     <g id="line2d_34">
      <g>
       <use style="stroke:#000000;stroke-width:0.8;" x="486.469565" xlink:href="#m0cf0ba286b" y="61.759268"/>
      </g>
     </g>
     <g id="text_37">
      <!-- 0.4 -->
      <g transform="translate(463.56644 65.558487)scale(0.1 -0.1)">
       <use xlink:href="#DejaVuSans-48"/>
       <use x="63.623047" xlink:href="#DejaVuSans-46"/>
       <use x="95.410156" xlink:href="#DejaVuSans-52"/>
      </g>
     </g>
    </g>
    <g id="text_38">
     <!-- Mean prediction error -->
     <g transform="translate(457.486753 197.2675)rotate(-90)scale(0.1 -0.1)">
      <use xlink:href="#DejaVuSans-77"/>
      <use x="86.279297" xlink:href="#DejaVuSans-101"/>
      <use x="147.802734" xlink:href="#DejaVuSans-97"/>
      <use x="209.082031" xlink:href="#DejaVuSans-110"/>
      <use x="272.460938" xlink:href="#DejaVuSans-32"/>
      <use x="304.248047" xlink:href="#DejaVuSans-112"/>
      <use x="367.724609" xlink:href="#DejaVuSans-114"/>
      <use x="406.587891" xlink:href="#DejaVuSans-101"/>
      <use x="468.111328" xlink:href="#DejaVuSans-100"/>
      <use x="531.587891" xlink:href="#DejaVuSans-105"/>
      <use x="559.371094" xlink:href="#DejaVuSans-99"/>
      <use x="614.351562" xlink:href="#DejaVuSans-116"/>
      <use x="653.560547" xlink:href="#DejaVuSans-105"/>
      <use x="681.34375" xlink:href="#DejaVuSans-111"/>
      <use x="742.525391" xlink:href="#DejaVuSans-110"/>
      <use x="805.904297" xlink:href="#DejaVuSans-32"/>
      <use x="837.691406" xlink:href="#DejaVuSans-101"/>
      <use x="899.214844" xlink:href="#DejaVuSans-114"/>
      <use x="938.578125" xlink:href="#DejaVuSans-114"/>
      <use x="977.441406" xlink:href="#DejaVuSans-111"/>
      <use x="1038.623047" xlink:href="#DejaVuSans-114"/>
     </g>
    </g>
   </g>
   <g id="line2d_35">
    <path clip-path="url(#pfc6d04da6d)" d="M 499.702767 44.443636 
L 500.33367 46.615769 
L 500.649122 46.904097 
L 500.964574 46.885569 
L 501.280026 47.242605 
L 501.595477 47.187487 
L 501.910929 47.27227 
L 502.541833 47.225962 
L 502.857284 48.181729 
L 503.172736 48.315301 
L 503.80364 48.167015 
L 504.434543 48.524819 
L 505.380899 47.999502 
L 505.69635 48.57779 
L 506.327254 48.521194 
L 506.642706 48.768574 
L 507.273609 48.554915 
L 507.904513 48.935736 
L 508.219964 49.210164 
L 508.850868 48.84605 
L 509.481772 49.787097 
L 510.112675 49.572656 
L 510.428127 50.117396 
L 511.05903 50.580396 
L 511.374482 50.743561 
L 511.689934 51.219619 
L 512.005386 51.317536 
L 512.320837 51.854186 
L 512.636289 51.742792 
L 512.951741 52.080621 
L 513.267193 51.881365 
L 513.582644 51.87527 
L 514.213548 52.255828 
L 514.529 53.048218 
L 515.159903 53.076866 
L 515.475355 52.858436 
L 515.790807 52.888327 
L 516.106259 53.084135 
L 516.42171 52.90153 
L 517.052614 53.30025 
L 517.368066 53.512407 
L 518.314421 53.077514 
L 518.945325 53.423781 
L 519.260776 53.951701 
L 519.576228 53.716077 
L 520.838035 54.702181 
L 521.153487 54.507363 
L 521.468939 55.152172 
L 521.78439 54.942716 
L 522.415294 54.757303 
L 522.730746 54.965338 
L 523.046197 54.821798 
L 523.361649 55.177446 
L 523.677101 55.11249 
L 524.308005 55.55295 
L 524.623456 55.309479 
L 524.938908 55.308245 
L 525.569812 54.884544 
L 525.885263 54.883957 
L 526.516167 54.674432 
L 527.462522 54.602063 
L 527.777974 54.406332 
L 528.093426 54.744162 
L 528.724329 54.404794 
L 529.039781 54.935089 
L 529.355233 54.944434 
L 530.301588 54.27874 
L 530.932492 54.115278 
L 531.247943 54.742006 
L 531.563395 54.653722 
L 532.194299 54.881317 
L 532.50975 54.701294 
L 532.825202 54.953381 
L 533.140654 54.770767 
L 533.456106 54.959314 
L 533.771558 54.795356 
L 534.402461 54.952842 
L 534.717913 55.270957 
L 535.033365 56.239095 
L 535.664268 56.810696 
L 535.97972 56.623225 
L 536.295172 57.138468 
L 537.241527 56.898036 
L 538.187882 56.545495 
L 538.503334 56.627661 
L 538.818786 57.115352 
L 539.134238 57.116054 
L 539.449689 57.640196 
L 539.765141 57.65399 
L 540.080593 58.01317 
L 540.396045 58.11262 
L 540.711496 58.509836 
L 541.026948 58.392428 
L 541.3424 58.621085 
L 542.288755 58.78271 
L 542.919659 58.3749 
L 543.23511 58.516327 
L 543.866014 58.397868 
L 544.181466 58.605591 
L 544.496918 58.394599 
L 544.812369 58.745082 
L 545.127821 58.484821 
L 545.443273 58.496305 
L 545.758725 58.804306 
L 546.074176 58.717026 
L 546.389628 59.091702 
L 546.70508 59.284139 
L 547.335983 59.33982 
L 547.651435 59.809273 
L 548.282339 59.425953 
L 548.597791 59.508892 
L 548.913242 59.286836 
L 549.228694 59.285976 
L 549.544146 59.505247 
L 551.121405 58.721243 
L 551.436856 58.762016 
L 552.06776 58.412626 
L 552.383212 58.331548 
L 552.698663 58.422715 
L 553.329567 58.897215 
L 553.645019 59.922359 
L 553.960471 59.909365 
L 554.275922 60.217757 
L 554.591374 60.061842 
L 554.906826 61.021599 
L 555.222278 60.890744 
L 555.537729 61.462445 
L 555.853181 61.364367 
L 556.168633 61.139643 
L 556.484085 61.246957 
L 556.799536 60.992382 
L 557.114988 61.241363 
L 557.43044 61.287813 
L 557.745892 61.168305 
L 558.061343 61.208344 
L 559.007699 60.566342 
L 559.323151 60.501351 
L 559.638602 60.670075 
L 559.954054 60.704142 
L 560.584958 60.225632 
L 561.215861 60.919777 
L 561.531313 60.650608 
L 561.846765 61.296021 
L 562.79312 60.843668 
L 563.739475 60.070452 
L 564.054927 60.255035 
L 564.370379 60.036147 
L 564.685831 60.591922 
L 565.001282 60.740261 
L 565.316734 61.639176 
L 565.947638 61.735941 
L 566.263089 61.470208 
L 566.578541 61.867835 
L 567.209445 61.913732 
L 568.1558 61.496806 
L 568.471252 62.513514 
L 569.102155 62.373908 
L 569.417607 62.692027 
L 569.733059 62.511569 
L 570.048511 62.981868 
L 570.363962 62.698223 
L 572.887576 61.77189 
L 573.203028 61.859473 
L 573.51848 61.621281 
L 574.780287 61.517086 
L 575.095739 61.721575 
L 575.726642 61.660326 
L 576.042094 61.494745 
L 576.357546 62.056442 
L 576.672998 62.180288 
L 576.988449 62.691036 
L 577.619353 62.326012 
L 577.934805 62.434099 
L 579.512064 61.248776 
L 579.827515 61.407482 
L 580.142967 61.707516 
L 580.773871 61.481461 
L 581.720226 60.686079 
L 582.035678 61.541453 
L 582.982033 61.773573 
L 583.612937 62.231321 
L 583.928388 62.791399 
L 584.24384 62.572695 
L 584.559292 62.533692 
L 584.874744 62.668616 
L 585.821099 62.087808 
L 587.082906 61.214131 
L 587.398358 61.354885 
L 587.713809 62.023181 
L 588.029261 61.73197 
L 588.344713 61.691284 
L 588.660165 61.994029 
L 588.975617 61.885492 
L 589.291068 62.491896 
L 589.60652 62.295765 
L 589.921972 62.32856 
L 590.237424 63.800796 
L 590.552875 63.618268 
L 590.868327 63.890239 
L 591.499231 63.916769 
L 591.814682 63.791843 
L 592.130134 64.520596 
L 593.07649 63.67455 
L 593.391941 64.332255 
L 593.707393 64.647003 
L 594.022845 65.213443 
L 594.653748 65.232488 
L 594.9692 65.169744 
L 595.284652 65.29168 
L 595.600104 65.232618 
L 596.546459 64.488413 
L 596.861911 64.756441 
L 597.492814 64.288827 
L 597.808266 63.998342 
L 598.754621 64.486294 
L 599.070073 64.218617 
L 599.385525 64.218118 
L 600.33188 65.253173 
L 600.962784 65.083663 
L 601.278235 64.779711 
L 602.540042 64.697085 
L 602.855494 65.369725 
L 603.80185 64.665352 
L 604.117301 64.828845 
L 604.432753 65.11889 
L 604.748205 65.254459 
L 605.063657 65.653964 
L 605.379108 66.353522 
L 606.010012 66.652347 
L 606.325464 66.333569 
L 606.640915 66.19808 
L 606.956367 66.233582 
L 607.271819 67.088387 
L 607.902723 66.918876 
L 608.218174 67.474057 
L 608.533626 67.400862 
L 608.849078 67.499053 
L 609.16453 68.131923 
L 609.795433 68.234918 
L 610.110885 67.997822 
L 610.426337 68.365441 
L 610.741788 68.184502 
L 611.05724 68.169771 
L 611.372692 69.193819 
L 611.688144 68.970348 
L 612.319047 69.018192 
L 612.634499 69.124985 
L 612.949951 68.822032 
L 613.265403 69.295532 
L 613.580854 69.02832 
L 613.896306 68.924827 
L 614.211758 69.051025 
L 614.52721 68.930125 
L 614.842661 69.214229 
L 615.158113 69.664243 
L 615.473565 69.351164 
L 615.789017 69.297291 
L 616.41992 68.75984 
L 617.050824 69.175257 
L 617.366275 69.129102 
L 617.681727 69.221772 
L 617.997179 68.849053 
L 618.312631 69.998748 
L 618.628083 69.817284 
L 618.943534 70.08401 
L 619.258986 70.85762 
L 619.88989 70.275456 
L 620.205341 70.357345 
L 620.520793 70.056117 
L 620.836245 72.163172 
L 621.151697 71.906633 
L 621.467148 72.327035 
L 621.7826 72.016726 
L 622.098052 72.044724 
L 622.413504 71.771365 
L 622.728956 71.777556 
L 623.359859 72.326839 
L 623.990763 71.823433 
L 624.306214 71.857196 
L 624.621666 71.775729 
L 624.937118 72.796132 
L 625.25257 72.862159 
L 625.568021 72.754917 
L 625.883473 73.195065 
L 626.198925 72.880544 
L 626.514377 73.068798 
L 626.829828 73.015131 
L 627.14528 72.645264 
L 627.460732 72.58069 
L 627.776184 73.122829 
L 628.407087 72.343576 
L 628.722539 72.320045 
L 629.353443 71.892682 
L 630.299798 71.505857 
L 630.61525 71.626092 
L 630.930701 71.552618 
L 631.246153 72.490101 
L 631.561605 72.39623 
L 631.877057 72.144246 
L 632.192508 72.212943 
L 632.50796 72.449413 
L 632.823412 72.112859 
L 633.138864 71.969118 
L 633.769767 71.267749 
L 634.085219 71.188435 
L 634.400671 70.903482 
L 634.716123 70.969913 
L 635.031574 70.57595 
L 635.347026 70.894713 
L 635.662478 70.795419 
L 635.97793 71.30685 
L 636.293381 72.277166 
L 636.608833 72.265037 
L 636.924285 72.077343 
L 637.239737 71.711749 
L 637.555189 71.793822 
L 637.87064 71.360835 
L 638.186092 71.226485 
L 638.501544 71.687812 
L 638.816996 71.295798 
L 639.132447 72.058903 
L 639.763351 72.87233 
L 640.078803 72.592795 
L 640.394254 72.788855 
L 640.709706 72.674075 
L 641.025158 75.523903 
L 641.656061 75.104075 
L 641.971513 76.029574 
L 642.286965 77.512838 
L 642.602417 77.41929 
L 642.917869 77.449186 
L 643.23332 77.226786 
L 643.548772 77.368515 
L 643.864224 78.95098 
L 644.179676 78.89071 
L 645.126031 77.996308 
L 645.441483 78.649854 
L 645.756934 78.383149 
L 646.072386 79.323887 
L 646.70329 79.157191 
L 647.018741 79.127814 
L 647.334193 78.969659 
L 647.649645 79.229901 
L 647.965097 78.789256 
L 648.280549 78.83235 
L 648.596 79.081727 
L 648.911452 79.049694 
L 649.226904 79.270337 
L 649.542356 78.906281 
L 649.857807 79.483358 
L 650.173259 80.871968 
L 650.488711 80.438585 
L 650.804163 80.726822 
L 651.750518 80.672068 
L 652.381422 79.991944 
L 652.696873 80.707021 
L 653.012325 80.641894 
L 653.643229 80.089967 
L 653.95868 79.759843 
L 654.274132 80.080675 
L 654.589584 79.945887 
L 654.905036 81.219112 
L 655.220487 81.352431 
L 655.535939 81.2559 
L 655.851391 81.405052 
L 656.166843 80.935389 
L 656.482294 80.66715 
L 656.797746 81.464647 
L 657.113198 81.193662 
L 657.42865 81.308302 
L 657.744102 81.685063 
L 658.375005 81.147308 
L 658.690457 82.718088 
L 659.005909 83.583163 
L 659.32136 83.383576 
L 659.636812 83.539663 
L 659.952264 84.247255 
L 660.267716 83.851659 
L 660.583167 84.632942 
L 660.898619 84.51207 
L 661.214071 84.610577 
L 661.529523 84.840928 
L 661.844974 84.412883 
L 662.475878 84.599888 
L 662.79133 85.553712 
L 663.106782 85.778894 
L 663.422233 85.330643 
L 663.737685 85.312507 
L 664.053137 85.677607 
L 664.368589 85.759627 
L 664.68404 86.159388 
L 664.999492 85.740714 
L 665.314944 87.03157 
L 665.945847 86.126585 
L 666.261299 86.993818 
L 666.892203 86.535035 
L 667.207655 87.305938 
L 667.838558 86.83373 
L 668.15401 87.35265 
L 668.469462 87.117277 
L 669.100365 86.377131 
L 670.04672 85.962434 
L 670.677624 86.30117 
L 670.993076 86.244156 
L 671.623979 87.084006 
L 672.254883 87.092358 
L 672.570335 89.262851 
L 672.885786 88.87556 
L 673.201238 88.858626 
L 673.51669 88.958733 
L 673.832142 88.683933 
L 674.147593 89.311746 
L 674.463045 89.612479 
L 674.778497 89.212049 
L 675.093949 89.962516 
L 675.4094 89.466427 
L 675.724852 89.338557 
L 676.040304 88.821761 
L 676.355756 89.450245 
L 676.671207 90.866614 
L 676.986659 90.879086 
L 677.617563 90.506941 
L 678.248466 89.73669 
L 678.87937 90.278656 
L 679.194822 89.937731 
L 679.510273 90.192681 
L 679.825725 90.24703 
L 680.141177 91.593594 
L 680.456629 91.314913 
L 681.087532 91.255955 
L 681.402984 90.698254 
L 681.718436 90.474212 
L 682.033888 89.921202 
L 682.349339 89.993796 
L 682.664791 91.622115 
L 682.980243 91.527099 
L 683.295695 92.021288 
L 683.611146 91.874309 
L 683.926598 92.007237 
L 684.24205 92.779616 
L 684.557502 94.307619 
L 684.872953 94.215276 
L 685.188405 94.329578 
L 685.503857 93.803869 
L 685.819309 93.915169 
L 686.450212 93.226286 
L 686.765664 92.720285 
L 687.081116 93.076403 
L 687.396568 92.588353 
L 687.712019 92.442222 
L 688.027471 92.441279 
L 688.342923 92.719338 
L 688.658375 92.6406 
L 688.973826 92.688536 
L 689.289278 94.377387 
L 689.60473 94.673081 
L 689.920182 94.610391 
L 690.235633 95.10316 
L 690.551085 94.65058 
L 690.866537 94.885415 
L 691.181989 95.397446 
L 691.812892 94.973863 
L 692.128344 95.565416 
L 692.443796 95.81782 
L 693.074699 95.716837 
L 693.390151 95.837238 
L 693.705603 95.6623 
L 694.651958 94.171885 
L 695.282862 94.526406 
L 696.229217 93.259718 
L 696.544669 93.923474 
L 697.175572 93.176094 
L 697.491024 93.976856 
L 697.806476 93.920346 
L 698.121928 93.638476 
L 698.437379 94.179307 
L 698.752831 94.168738 
L 699.068283 93.820255 
L 699.383735 93.181066 
L 699.699186 93.206014 
L 700.014638 94.866619 
L 700.645542 94.034121 
L 700.960993 94.657057 
L 701.276445 93.953728 
L 701.591897 96.166644 
L 701.907349 96.604963 
L 702.222801 96.41439 
L 702.538252 96.514415 
L 702.853704 96.091584 
L 703.169156 95.324088 
L 703.484608 97.44651 
L 703.800059 97.622628 
L 704.115511 97.382927 
L 704.746415 100.376187 
L 705.377318 99.557628 
L 705.69277 98.791545 
L 706.008222 99.689387 
L 706.639125 99.061197 
L 706.954577 98.963729 
L 707.585481 97.915545 
L 707.900932 98.751261 
L 708.531836 98.4855 
L 708.847288 98.86844 
L 709.162739 98.1582 
L 709.478191 101.338499 
L 710.424546 99.102062 
L 710.739998 99.410921 
L 711.370902 98.583283 
L 711.686354 98.449834 
L 712.001805 100.782407 
L 712.317257 100.625359 
L 712.632709 101.92146 
L 713.263612 100.442682 
L 713.579064 103.655556 
L 713.894516 104.084822 
L 714.209968 104.09212 
L 714.525419 103.267168 
L 714.840871 103.70434 
L 715.156323 103.256834 
L 715.471775 103.821837 
L 715.787226 103.66492 
L 716.102678 102.913328 
L 716.41813 103.813985 
L 716.733582 103.828965 
L 717.049034 102.972219 
L 717.364485 103.509273 
L 717.679937 103.046606 
L 717.995389 102.790713 
L 718.310841 102.117772 
L 718.626292 102.200293 
L 718.941744 102.69571 
L 719.257196 101.77454 
L 719.572648 101.367689 
L 719.888099 101.976835 
L 720.203551 101.454177 
L 720.519003 101.294349 
L 720.834455 103.301663 
L 721.149906 102.97163 
L 721.465358 103.030647 
L 721.78081 105.585799 
L 722.096262 104.83907 
L 722.411714 104.758567 
L 722.727165 103.781121 
L 723.042617 104.883383 
L 723.358069 105.161837 
L 724.935328 102.681726 
L 725.250779 102.90155 
L 725.566231 104.046225 
L 725.881683 103.250359 
L 726.197135 102.969544 
L 727.458942 99.90316 
L 727.774394 99.64082 
L 728.089845 99.608822 
L 728.405297 99.251474 
L 729.036201 97.334784 
L 729.351652 98.407169 
L 729.667104 97.412491 
L 729.982556 98.27811 
L 730.298008 99.865972 
L 730.613459 99.408337 
L 731.244363 102.330041 
L 731.875267 100.555912 
L 732.190718 100.092201 
L 732.50617 98.965644 
L 732.821622 98.670677 
L 733.137074 98.913677 
L 733.452525 99.74521 
L 733.767977 98.277253 
L 734.083429 99.379418 
L 734.714332 97.057502 
L 735.029784 97.545095 
L 735.345236 97.552915 
L 735.660688 100.545345 
L 735.976139 99.065326 
L 736.922495 96.610698 
L 737.553398 93.539373 
L 737.86885 92.725121 
L 738.184302 91.194483 
L 738.499754 90.531019 
L 738.815205 95.331777 
L 739.130657 96.864084 
L 739.446109 99.834014 
L 739.761561 107.484789 
L 740.077012 106.056319 
L 740.392464 106.162121 
L 741.023368 104.459985 
L 741.33882 107.138495 
L 741.654271 106.617838 
L 742.916078 99.942553 
L 743.23153 99.88258 
L 743.546982 106.785359 
L 743.862434 105.21046 
L 744.177885 105.303667 
L 744.493337 104.583205 
L 744.808789 108.630845 
L 745.124241 106.851154 
L 745.439692 107.348911 
L 745.755144 107.289023 
L 746.070596 105.043571 
L 746.386048 105.409123 
L 746.7015 103.130314 
L 747.016951 102.031294 
L 747.332403 100.509461 
L 747.647855 98.145583 
L 747.963307 99.279178 
L 748.278758 100.897475 
L 748.59421 107.429954 
L 749.225114 103.640107 
L 749.540565 105.166703 
L 749.856017 104.406721 
L 750.171469 105.505414 
L 750.486921 102.664306 
L 750.802372 105.88304 
L 751.748728 102.823171 
L 752.379631 103.436308 
L 752.695083 106.655104 
L 753.010535 108.619754 
L 753.641438 101.945646 
L 753.95689 98.145273 
L 754.272342 98.023607 
L 754.587794 101.761518 
L 754.903245 108.495974 
L 755.534149 106.624797 
L 755.849601 112.406074 
L 756.165053 111.624386 
L 756.480504 118.11977 
L 756.795956 114.881301 
L 757.111408 128.46653 
L 757.42686 125.476265 
L 757.742311 135.563514 
L 758.373215 133.586364 
L 758.688667 130.3547 
L 759.004118 133.59814 
L 759.31957 127.879642 
L 759.950474 137.211175 
L 760.265925 131.500083 
L 760.581377 129.199754 
L 760.896829 149.679884 
L 761.212281 154.80102 
L 761.527733 148.715029 
L 761.843184 168.183342 
L 762.158636 165.933276 
L 762.474088 160.252975 
L 762.78954 163.381711 
L 763.104991 152.674791 
L 763.420443 149.358256 
L 763.735895 205.037643 
L 764.051347 235.505626 
L 764.366798 242.116364 
L 764.366798 242.116364 
" style="fill:none;stroke:#1f77b4;stroke-linecap:square;stroke-width:1.5;"/>
   </g>
   <g id="patch_8">
    <path d="M 486.469565 252 
L 486.469565 34.56 
" style="fill:none;stroke:#000000;stroke-linecap:square;stroke-linejoin:miter;stroke-width:0.8;"/>
   </g>
   <g id="patch_9">
    <path d="M 777.6 252 
L 777.6 34.56 
" style="fill:none;stroke:#000000;stroke-linecap:square;stroke-linejoin:miter;stroke-width:0.8;"/>
   </g>
   <g id="patch_10">
    <path d="M 486.469565 252 
L 777.6 252 
" style="fill:none;stroke:#000000;stroke-linecap:square;stroke-linejoin:miter;stroke-width:0.8;"/>
   </g>
   <g id="patch_11">
    <path d="M 486.469565 34.56 
L 777.6 34.56 
" style="fill:none;stroke:#000000;stroke-linecap:square;stroke-linejoin:miter;stroke-width:0.8;"/>
   </g>
   <g id="text_39">
    <!-- lipophilicity data -->
    <g transform="translate(582.317283 28.56)scale(0.12 -0.12)">
     <defs>
      <path d="M 9.421875 75.984375 
L 18.40625 75.984375 
L 18.40625 0 
L 9.421875 0 
z
" id="DejaVuSans-108"/>
      <path d="M 54.890625 33.015625 
L 54.890625 0 
L 45.90625 0 
L 45.90625 32.71875 
Q 45.90625 40.484375 42.875 44.328125 
Q 39.84375 48.1875 33.796875 48.1875 
Q 26.515625 48.1875 22.3125 43.546875 
Q 18.109375 38.921875 18.109375 30.90625 
L 18.109375 0 
L 9.078125 0 
L 9.078125 75.984375 
L 18.109375 75.984375 
L 18.109375 46.1875 
Q 21.34375 51.125 25.703125 53.5625 
Q 30.078125 56 35.796875 56 
Q 45.21875 56 50.046875 50.171875 
Q 54.890625 44.34375 54.890625 33.015625 
z
" id="DejaVuSans-104"/>
     </defs>
     <use xlink:href="#DejaVuSans-108"/>
     <use x="27.783203" xlink:href="#DejaVuSans-105"/>
     <use x="55.566406" xlink:href="#DejaVuSans-112"/>
     <use x="119.042969" xlink:href="#DejaVuSans-111"/>
     <use x="180.224609" xlink:href="#DejaVuSans-112"/>
     <use x="243.701172" xlink:href="#DejaVuSans-104"/>
     <use x="307.080078" xlink:href="#DejaVuSans-105"/>
     <use x="334.863281" xlink:href="#DejaVuSans-108"/>
     <use x="362.646484" xlink:href="#DejaVuSans-105"/>
     <use x="390.429688" xlink:href="#DejaVuSans-99"/>
     <use x="445.410156" xlink:href="#DejaVuSans-105"/>
     <use x="473.193359" xlink:href="#DejaVuSans-116"/>
     <use x="512.402344" xlink:href="#DejaVuSans-121"/>
     <use x="571.582031" xlink:href="#DejaVuSans-32"/>
     <use x="603.369141" xlink:href="#DejaVuSans-100"/>
     <use x="666.845703" xlink:href="#DejaVuSans-97"/>
     <use x="728.125" xlink:href="#DejaVuSans-116"/>
     <use x="767.333984" xlink:href="#DejaVuSans-97"/>
    </g>
   </g>
  </g>
  <g id="text_40">
   <!-- Confidence curves of Maxsmi models -->
   <g transform="translate(320.064375 14.878125)scale(0.12 -0.12)">
    <defs>
     <path d="M 64.40625 67.28125 
L 64.40625 56.890625 
Q 59.421875 61.53125 53.78125 63.8125 
Q 48.140625 66.109375 41.796875 66.109375 
Q 29.296875 66.109375 22.65625 58.46875 
Q 16.015625 50.828125 16.015625 36.375 
Q 16.015625 21.96875 22.65625 14.328125 
Q 29.296875 6.6875 41.796875 6.6875 
Q 48.140625 6.6875 53.78125 8.984375 
Q 59.421875 11.28125 64.40625 15.921875 
L 64.40625 5.609375 
Q 59.234375 2.09375 53.4375 0.328125 
Q 47.65625 -1.421875 41.21875 -1.421875 
Q 24.65625 -1.421875 15.125 8.703125 
Q 5.609375 18.84375 5.609375 36.375 
Q 5.609375 53.953125 15.125 64.078125 
Q 24.65625 74.21875 41.21875 74.21875 
Q 47.75 74.21875 53.53125 72.484375 
Q 59.328125 70.75 64.40625 67.28125 
z
" id="DejaVuSans-67"/>
     <path d="M 2.984375 54.6875 
L 12.5 54.6875 
L 29.59375 8.796875 
L 46.6875 54.6875 
L 56.203125 54.6875 
L 35.6875 0 
L 23.484375 0 
z
" id="DejaVuSans-118"/>
     <path d="M 54.890625 54.6875 
L 35.109375 28.078125 
L 55.90625 0 
L 45.3125 0 
L 29.390625 21.484375 
L 13.484375 0 
L 2.875 0 
L 24.125 28.609375 
L 4.6875 54.6875 
L 15.28125 54.6875 
L 29.78125 35.203125 
L 44.28125 54.6875 
z
" id="DejaVuSans-120"/>
    </defs>
    <use xlink:href="#DejaVuSans-67"/>
    <use x="69.824219" xlink:href="#DejaVuSans-111"/>
    <use x="131.005859" xlink:href="#DejaVuSans-110"/>
    <use x="194.384766" xlink:href="#DejaVuSans-102"/>
    <use x="229.589844" xlink:href="#DejaVuSans-105"/>
    <use x="257.373047" xlink:href="#DejaVuSans-100"/>
    <use x="320.849609" xlink:href="#DejaVuSans-101"/>
    <use x="382.373047" xlink:href="#DejaVuSans-110"/>
    <use x="445.751953" xlink:href="#DejaVuSans-99"/>
    <use x="500.732422" xlink:href="#DejaVuSans-101"/>
    <use x="562.255859" xlink:href="#DejaVuSans-32"/>
    <use x="594.042969" xlink:href="#DejaVuSans-99"/>
    <use x="649.023438" xlink:href="#DejaVuSans-117"/>
    <use x="712.402344" xlink:href="#DejaVuSans-114"/>
    <use x="753.515625" xlink:href="#DejaVuSans-118"/>
    <use x="812.695312" xlink:href="#DejaVuSans-101"/>
    <use x="874.21875" xlink:href="#DejaVuSans-115"/>
    <use x="926.318359" xlink:href="#DejaVuSans-32"/>
    <use x="958.105469" xlink:href="#DejaVuSans-111"/>
    <use x="1019.287109" xlink:href="#DejaVuSans-102"/>
    <use x="1054.492188" xlink:href="#DejaVuSans-32"/>
    <use x="1086.279297" xlink:href="#DejaVuSans-77"/>
    <use x="1172.558594" xlink:href="#DejaVuSans-97"/>
    <use x="1233.837891" xlink:href="#DejaVuSans-120"/>
    <use x="1293.017578" xlink:href="#DejaVuSans-115"/>
    <use x="1345.117188" xlink:href="#DejaVuSans-109"/>
    <use x="1442.529297" xlink:href="#DejaVuSans-105"/>
    <use x="1470.3125" xlink:href="#DejaVuSans-32"/>
    <use x="1502.099609" xlink:href="#DejaVuSans-109"/>
    <use x="1599.511719" xlink:href="#DejaVuSans-111"/>
    <use x="1660.693359" xlink:href="#DejaVuSans-100"/>
    <use x="1724.169922" xlink:href="#DejaVuSans-101"/>
    <use x="1785.693359" xlink:href="#DejaVuSans-108"/>
    <use x="1813.476562" xlink:href="#DejaVuSans-115"/>
   </g>
  </g>
 </g>
 <defs>
  <clipPath id="p13364bb8fe">
   <rect height="217.44" width="291.130435" x="108" y="34.56"/>
  </clipPath>
  <clipPath id="pfc6d04da6d">
   <rect height="217.44" width="291.130435" x="486.469565" y="34.56"/>
  </clipPath>
 </defs>
</svg>
