<?xml version="1.0" encoding="utf-8" standalone="no"?>
<!DOCTYPE svg PUBLIC "-//W3C//DTD SVG 1.1//EN"
  "http://www.w3.org/Graphics/SVG/1.1/DTD/svg11.dtd">
<!-- Created with matplotlib (https://matplotlib.org/) -->
<svg height="288pt" version="1.1" viewBox="0 0 432 288" width="432pt" xmlns="http://www.w3.org/2000/svg" xmlns:xlink="http://www.w3.org/1999/xlink">
 <metadata>
  <rdf:RDF xmlns:cc="http://creativecommons.org/ns#" xmlns:dc="http://purl.org/dc/elements/1.1/" xmlns:rdf="http://www.w3.org/1999/02/22-rdf-syntax-ns#">
   <cc:Work>
    <dc:type rdf:resource="http://purl.org/dc/dcmitype/StillImage"/>
    <dc:date>2021-11-10T09:37:32.124485</dc:date>
    <dc:format>image/svg+xml</dc:format>
    <dc:creator>
     <cc:Agent>
      <dc:title>Matplotlib v3.3.2, https://matplotlib.org/</dc:title>
     </cc:Agent>
    </dc:creator>
   </cc:Work>
  </rdf:RDF>
 </metadata>
 <defs>
  <style type="text/css">*{stroke-linecap:butt;stroke-linejoin:round;}</style>
 </defs>
 <g id="figure_1">
  <g id="patch_1">
   <path d="M 0 288 
L 432 288 
L 432 0 
L 0 0 
z
" style="fill:#ffffff;"/>
  </g>
  <g id="axes_1">
   <g id="patch_2">
    <path d="M 54 252 
L 388.8 252 
L 388.8 34.56 
L 54 34.56 
z
" style="fill:#ffffff;"/>
   </g>
   <g id="patch_3">
    <path clip-path="url(#p5bd0225cb0)" d="M 69.218182 252 
L 77.022378 252 
L 77.022378 113.942857 
L 69.218182 113.942857 
z
" style="fill:#1f77b4;opacity:0.5;"/>
   </g>
   <g id="patch_4">
    <path clip-path="url(#p5bd0225cb0)" d="M 77.022378 252 
L 84.826573 252 
L 84.826573 104.081633 
L 77.022378 104.081633 
z
" style="fill:#1f77b4;opacity:0.5;"/>
   </g>
   <g id="patch_5">
    <path clip-path="url(#p5bd0225cb0)" d="M 84.826573 252 
L 92.630769 252 
L 92.630769 99.15102 
L 84.826573 99.15102 
z
" style="fill:#1f77b4;opacity:0.5;"/>
   </g>
   <g id="patch_6">
    <path clip-path="url(#p5bd0225cb0)" d="M 92.630769 252 
L 100.434965 252 
L 100.434965 133.665306 
L 92.630769 133.665306 
z
" style="fill:#1f77b4;opacity:0.5;"/>
   </g>
   <g id="patch_7">
    <path clip-path="url(#p5bd0225cb0)" d="M 100.434965 252 
L 108.239161 252 
L 108.239161 178.040816 
L 100.434965 178.040816 
z
" style="fill:#1f77b4;opacity:0.5;"/>
   </g>
   <g id="patch_8">
    <path clip-path="url(#p5bd0225cb0)" d="M 108.239161 252 
L 116.043357 252 
L 116.043357 187.902041 
L 108.239161 187.902041 
z
" style="fill:#1f77b4;opacity:0.5;"/>
   </g>
   <g id="patch_9">
    <path clip-path="url(#p5bd0225cb0)" d="M 116.043357 252 
L 123.847552 252 
L 123.847552 182.971429 
L 116.043357 182.971429 
z
" style="fill:#1f77b4;opacity:0.5;"/>
   </g>
   <g id="patch_10">
    <path clip-path="url(#p5bd0225cb0)" d="M 123.847552 252 
L 131.651748 252 
L 131.651748 202.693878 
L 123.847552 202.693878 
z
" style="fill:#1f77b4;opacity:0.5;"/>
   </g>
   <g id="patch_11">
    <path clip-path="url(#p5bd0225cb0)" d="M 131.651748 252 
L 139.455944 252 
L 139.455944 192.832653 
L 131.651748 192.832653 
z
" style="fill:#1f77b4;opacity:0.5;"/>
   </g>
   <g id="patch_12">
    <path clip-path="url(#p5bd0225cb0)" d="M 139.455944 252 
L 147.26014 252 
L 147.26014 192.832653 
L 139.455944 192.832653 
z
" style="fill:#1f77b4;opacity:0.5;"/>
   </g>
   <g id="patch_13">
    <path clip-path="url(#p5bd0225cb0)" d="M 147.26014 252 
L 155.064336 252 
L 155.064336 212.555102 
L 147.26014 212.555102 
z
" style="fill:#1f77b4;opacity:0.5;"/>
   </g>
   <g id="patch_14">
    <path clip-path="url(#p5bd0225cb0)" d="M 155.064336 252 
L 162.868531 252 
L 162.868531 232.277551 
L 155.064336 232.277551 
z
" style="fill:#1f77b4;opacity:0.5;"/>
   </g>
   <g id="patch_15">
    <path clip-path="url(#p5bd0225cb0)" d="M 162.868531 252 
L 170.672727 252 
L 170.672727 237.208163 
L 162.868531 237.208163 
z
" style="fill:#1f77b4;opacity:0.5;"/>
   </g>
   <g id="patch_16">
    <path clip-path="url(#p5bd0225cb0)" d="M 170.672727 252 
L 178.476923 252 
L 178.476923 247.069388 
L 170.672727 247.069388 
z
" style="fill:#1f77b4;opacity:0.5;"/>
   </g>
   <g id="patch_17">
    <path clip-path="url(#p5bd0225cb0)" d="M 178.476923 252 
L 186.281119 252 
L 186.281119 227.346939 
L 178.476923 227.346939 
z
" style="fill:#1f77b4;opacity:0.5;"/>
   </g>
   <g id="patch_18">
    <path clip-path="url(#p5bd0225cb0)" d="M 186.281119 252 
L 194.085315 252 
L 194.085315 247.069388 
L 186.281119 247.069388 
z
" style="fill:#1f77b4;opacity:0.5;"/>
   </g>
   <g id="patch_19">
    <path clip-path="url(#p5bd0225cb0)" d="M 194.085315 252 
L 201.88951 252 
L 201.88951 232.277551 
L 194.085315 232.277551 
z
" style="fill:#1f77b4;opacity:0.5;"/>
   </g>
   <g id="patch_20">
    <path clip-path="url(#p5bd0225cb0)" d="M 201.88951 252 
L 209.693706 252 
L 209.693706 237.208163 
L 201.88951 237.208163 
z
" style="fill:#1f77b4;opacity:0.5;"/>
   </g>
   <g id="patch_21">
    <path clip-path="url(#p5bd0225cb0)" d="M 209.693706 252 
L 217.497902 252 
L 217.497902 242.138776 
L 209.693706 242.138776 
z
" style="fill:#1f77b4;opacity:0.5;"/>
   </g>
   <g id="patch_22">
    <path clip-path="url(#p5bd0225cb0)" d="M 217.497902 252 
L 225.302098 252 
L 225.302098 252 
L 217.497902 252 
z
" style="fill:#1f77b4;opacity:0.5;"/>
   </g>
   <g id="patch_23">
    <path clip-path="url(#p5bd0225cb0)" d="M 225.302098 252 
L 233.106294 252 
L 233.106294 252 
L 225.302098 252 
z
" style="fill:#1f77b4;opacity:0.5;"/>
   </g>
   <g id="patch_24">
    <path clip-path="url(#p5bd0225cb0)" d="M 233.106294 252 
L 240.91049 252 
L 240.91049 247.069388 
L 233.106294 247.069388 
z
" style="fill:#1f77b4;opacity:0.5;"/>
   </g>
   <g id="patch_25">
    <path clip-path="url(#p5bd0225cb0)" d="M 240.91049 252 
L 248.714685 252 
L 248.714685 247.069388 
L 240.91049 247.069388 
z
" style="fill:#1f77b4;opacity:0.5;"/>
   </g>
   <g id="patch_26">
    <path clip-path="url(#p5bd0225cb0)" d="M 248.714685 252 
L 256.518881 252 
L 256.518881 252 
L 248.714685 252 
z
" style="fill:#1f77b4;opacity:0.5;"/>
   </g>
   <g id="patch_27">
    <path clip-path="url(#p5bd0225cb0)" d="M 256.518881 252 
L 264.323077 252 
L 264.323077 252 
L 256.518881 252 
z
" style="fill:#1f77b4;opacity:0.5;"/>
   </g>
   <g id="patch_28">
    <path clip-path="url(#p5bd0225cb0)" d="M 264.323077 252 
L 272.127273 252 
L 272.127273 247.069388 
L 264.323077 247.069388 
z
" style="fill:#1f77b4;opacity:0.5;"/>
   </g>
   <g id="patch_29">
    <path clip-path="url(#p5bd0225cb0)" d="M 272.127273 252 
L 279.931469 252 
L 279.931469 252 
L 272.127273 252 
z
" style="fill:#1f77b4;opacity:0.5;"/>
   </g>
   <g id="patch_30">
    <path clip-path="url(#p5bd0225cb0)" d="M 279.931469 252 
L 287.735664 252 
L 287.735664 252 
L 279.931469 252 
z
" style="fill:#1f77b4;opacity:0.5;"/>
   </g>
   <g id="patch_31">
    <path clip-path="url(#p5bd0225cb0)" d="M 287.735664 252 
L 295.53986 252 
L 295.53986 252 
L 287.735664 252 
z
" style="fill:#1f77b4;opacity:0.5;"/>
   </g>
   <g id="patch_32">
    <path clip-path="url(#p5bd0225cb0)" d="M 295.53986 252 
L 303.344056 252 
L 303.344056 242.138776 
L 295.53986 242.138776 
z
" style="fill:#1f77b4;opacity:0.5;"/>
   </g>
   <g id="patch_33">
    <path clip-path="url(#p5bd0225cb0)" d="M 303.344056 252 
L 311.148252 252 
L 311.148252 247.069388 
L 303.344056 247.069388 
z
" style="fill:#1f77b4;opacity:0.5;"/>
   </g>
   <g id="patch_34">
    <path clip-path="url(#p5bd0225cb0)" d="M 311.148252 252 
L 318.952448 252 
L 318.952448 252 
L 311.148252 252 
z
" style="fill:#1f77b4;opacity:0.5;"/>
   </g>
   <g id="patch_35">
    <path clip-path="url(#p5bd0225cb0)" d="M 318.952448 252 
L 326.756643 252 
L 326.756643 252 
L 318.952448 252 
z
" style="fill:#1f77b4;opacity:0.5;"/>
   </g>
   <g id="patch_36">
    <path clip-path="url(#p5bd0225cb0)" d="M 326.756643 252 
L 334.560839 252 
L 334.560839 252 
L 326.756643 252 
z
" style="fill:#1f77b4;opacity:0.5;"/>
   </g>
   <g id="patch_37">
    <path clip-path="url(#p5bd0225cb0)" d="M 334.560839 252 
L 342.365035 252 
L 342.365035 252 
L 334.560839 252 
z
" style="fill:#1f77b4;opacity:0.5;"/>
   </g>
   <g id="patch_38">
    <path clip-path="url(#p5bd0225cb0)" d="M 342.365035 252 
L 350.169231 252 
L 350.169231 252 
L 342.365035 252 
z
" style="fill:#1f77b4;opacity:0.5;"/>
   </g>
   <g id="patch_39">
    <path clip-path="url(#p5bd0225cb0)" d="M 350.169231 252 
L 357.973427 252 
L 357.973427 252 
L 350.169231 252 
z
" style="fill:#1f77b4;opacity:0.5;"/>
   </g>
   <g id="patch_40">
    <path clip-path="url(#p5bd0225cb0)" d="M 357.973427 252 
L 365.777622 252 
L 365.777622 252 
L 357.973427 252 
z
" style="fill:#1f77b4;opacity:0.5;"/>
   </g>
   <g id="patch_41">
    <path clip-path="url(#p5bd0225cb0)" d="M 365.777622 252 
L 373.581818 252 
L 373.581818 252 
L 365.777622 252 
z
" style="fill:#1f77b4;opacity:0.5;"/>
   </g>
   <g id="patch_42">
    <path clip-path="url(#p5bd0225cb0)" d="M 69.218182 252 
L 77.022378 252 
L 77.022378 44.914286 
L 69.218182 44.914286 
z
" style="fill:#ff7f0e;opacity:0.5;"/>
   </g>
   <g id="patch_43">
    <path clip-path="url(#p5bd0225cb0)" d="M 77.022378 252 
L 84.826573 252 
L 84.826573 79.428571 
L 77.022378 79.428571 
z
" style="fill:#ff7f0e;opacity:0.5;"/>
   </g>
   <g id="patch_44">
    <path clip-path="url(#p5bd0225cb0)" d="M 84.826573 252 
L 92.630769 252 
L 92.630769 133.665306 
L 84.826573 133.665306 
z
" style="fill:#ff7f0e;opacity:0.5;"/>
   </g>
   <g id="patch_45">
    <path clip-path="url(#p5bd0225cb0)" d="M 92.630769 252 
L 100.434965 252 
L 100.434965 143.526531 
L 92.630769 143.526531 
z
" style="fill:#ff7f0e;opacity:0.5;"/>
   </g>
   <g id="patch_46">
    <path clip-path="url(#p5bd0225cb0)" d="M 100.434965 252 
L 108.239161 252 
L 108.239161 178.040816 
L 100.434965 178.040816 
z
" style="fill:#ff7f0e;opacity:0.5;"/>
   </g>
   <g id="patch_47">
    <path clip-path="url(#p5bd0225cb0)" d="M 108.239161 252 
L 116.043357 252 
L 116.043357 178.040816 
L 108.239161 178.040816 
z
" style="fill:#ff7f0e;opacity:0.5;"/>
   </g>
   <g id="patch_48">
    <path clip-path="url(#p5bd0225cb0)" d="M 116.043357 252 
L 123.847552 252 
L 123.847552 222.416327 
L 116.043357 222.416327 
z
" style="fill:#ff7f0e;opacity:0.5;"/>
   </g>
   <g id="patch_49">
    <path clip-path="url(#p5bd0225cb0)" d="M 123.847552 252 
L 131.651748 252 
L 131.651748 207.62449 
L 123.847552 207.62449 
z
" style="fill:#ff7f0e;opacity:0.5;"/>
   </g>
   <g id="patch_50">
    <path clip-path="url(#p5bd0225cb0)" d="M 131.651748 252 
L 139.455944 252 
L 139.455944 182.971429 
L 131.651748 182.971429 
z
" style="fill:#ff7f0e;opacity:0.5;"/>
   </g>
   <g id="patch_51">
    <path clip-path="url(#p5bd0225cb0)" d="M 139.455944 252 
L 147.26014 252 
L 147.26014 202.693878 
L 139.455944 202.693878 
z
" style="fill:#ff7f0e;opacity:0.5;"/>
   </g>
   <g id="patch_52">
    <path clip-path="url(#p5bd0225cb0)" d="M 147.26014 252 
L 155.064336 252 
L 155.064336 212.555102 
L 147.26014 212.555102 
z
" style="fill:#ff7f0e;opacity:0.5;"/>
   </g>
   <g id="patch_53">
    <path clip-path="url(#p5bd0225cb0)" d="M 155.064336 252 
L 162.868531 252 
L 162.868531 222.416327 
L 155.064336 222.416327 
z
" style="fill:#ff7f0e;opacity:0.5;"/>
   </g>
   <g id="patch_54">
    <path clip-path="url(#p5bd0225cb0)" d="M 162.868531 252 
L 170.672727 252 
L 170.672727 222.416327 
L 162.868531 222.416327 
z
" style="fill:#ff7f0e;opacity:0.5;"/>
   </g>
   <g id="patch_55">
    <path clip-path="url(#p5bd0225cb0)" d="M 170.672727 252 
L 178.476923 252 
L 178.476923 242.138776 
L 170.672727 242.138776 
z
" style="fill:#ff7f0e;opacity:0.5;"/>
   </g>
   <g id="patch_56">
    <path clip-path="url(#p5bd0225cb0)" d="M 178.476923 252 
L 186.281119 252 
L 186.281119 247.069388 
L 178.476923 247.069388 
z
" style="fill:#ff7f0e;opacity:0.5;"/>
   </g>
   <g id="patch_57">
    <path clip-path="url(#p5bd0225cb0)" d="M 186.281119 252 
L 194.085315 252 
L 194.085315 247.069388 
L 186.281119 247.069388 
z
" style="fill:#ff7f0e;opacity:0.5;"/>
   </g>
   <g id="patch_58">
    <path clip-path="url(#p5bd0225cb0)" d="M 194.085315 252 
L 201.88951 252 
L 201.88951 242.138776 
L 194.085315 242.138776 
z
" style="fill:#ff7f0e;opacity:0.5;"/>
   </g>
   <g id="patch_59">
    <path clip-path="url(#p5bd0225cb0)" d="M 201.88951 252 
L 209.693706 252 
L 209.693706 247.069388 
L 201.88951 247.069388 
z
" style="fill:#ff7f0e;opacity:0.5;"/>
   </g>
   <g id="patch_60">
    <path clip-path="url(#p5bd0225cb0)" d="M 209.693706 252 
L 217.497902 252 
L 217.497902 242.138776 
L 209.693706 242.138776 
z
" style="fill:#ff7f0e;opacity:0.5;"/>
   </g>
   <g id="patch_61">
    <path clip-path="url(#p5bd0225cb0)" d="M 217.497902 252 
L 225.302098 252 
L 225.302098 247.069388 
L 217.497902 247.069388 
z
" style="fill:#ff7f0e;opacity:0.5;"/>
   </g>
   <g id="patch_62">
    <path clip-path="url(#p5bd0225cb0)" d="M 225.302098 252 
L 233.106294 252 
L 233.106294 252 
L 225.302098 252 
z
" style="fill:#ff7f0e;opacity:0.5;"/>
   </g>
   <g id="patch_63">
    <path clip-path="url(#p5bd0225cb0)" d="M 233.106294 252 
L 240.91049 252 
L 240.91049 252 
L 233.106294 252 
z
" style="fill:#ff7f0e;opacity:0.5;"/>
   </g>
   <g id="patch_64">
    <path clip-path="url(#p5bd0225cb0)" d="M 240.91049 252 
L 248.714685 252 
L 248.714685 252 
L 240.91049 252 
z
" style="fill:#ff7f0e;opacity:0.5;"/>
   </g>
   <g id="patch_65">
    <path clip-path="url(#p5bd0225cb0)" d="M 248.714685 252 
L 256.518881 252 
L 256.518881 247.069388 
L 248.714685 247.069388 
z
" style="fill:#ff7f0e;opacity:0.5;"/>
   </g>
   <g id="patch_66">
    <path clip-path="url(#p5bd0225cb0)" d="M 256.518881 252 
L 264.323077 252 
L 264.323077 252 
L 256.518881 252 
z
" style="fill:#ff7f0e;opacity:0.5;"/>
   </g>
   <g id="patch_67">
    <path clip-path="url(#p5bd0225cb0)" d="M 264.323077 252 
L 272.127273 252 
L 272.127273 252 
L 264.323077 252 
z
" style="fill:#ff7f0e;opacity:0.5;"/>
   </g>
   <g id="patch_68">
    <path clip-path="url(#p5bd0225cb0)" d="M 272.127273 252 
L 279.931469 252 
L 279.931469 247.069388 
L 272.127273 247.069388 
z
" style="fill:#ff7f0e;opacity:0.5;"/>
   </g>
   <g id="patch_69">
    <path clip-path="url(#p5bd0225cb0)" d="M 279.931469 252 
L 287.735664 252 
L 287.735664 252 
L 279.931469 252 
z
" style="fill:#ff7f0e;opacity:0.5;"/>
   </g>
   <g id="patch_70">
    <path clip-path="url(#p5bd0225cb0)" d="M 287.735664 252 
L 295.53986 252 
L 295.53986 252 
L 287.735664 252 
z
" style="fill:#ff7f0e;opacity:0.5;"/>
   </g>
   <g id="patch_71">
    <path clip-path="url(#p5bd0225cb0)" d="M 295.53986 252 
L 303.344056 252 
L 303.344056 252 
L 295.53986 252 
z
" style="fill:#ff7f0e;opacity:0.5;"/>
   </g>
   <g id="patch_72">
    <path clip-path="url(#p5bd0225cb0)" d="M 303.344056 252 
L 311.148252 252 
L 311.148252 247.069388 
L 303.344056 247.069388 
z
" style="fill:#ff7f0e;opacity:0.5;"/>
   </g>
   <g id="patch_73">
    <path clip-path="url(#p5bd0225cb0)" d="M 311.148252 252 
L 318.952448 252 
L 318.952448 247.069388 
L 311.148252 247.069388 
z
" style="fill:#ff7f0e;opacity:0.5;"/>
   </g>
   <g id="patch_74">
    <path clip-path="url(#p5bd0225cb0)" d="M 318.952448 252 
L 326.756643 252 
L 326.756643 252 
L 318.952448 252 
z
" style="fill:#ff7f0e;opacity:0.5;"/>
   </g>
   <g id="patch_75">
    <path clip-path="url(#p5bd0225cb0)" d="M 326.756643 252 
L 334.560839 252 
L 334.560839 252 
L 326.756643 252 
z
" style="fill:#ff7f0e;opacity:0.5;"/>
   </g>
   <g id="patch_76">
    <path clip-path="url(#p5bd0225cb0)" d="M 334.560839 252 
L 342.365035 252 
L 342.365035 252 
L 334.560839 252 
z
" style="fill:#ff7f0e;opacity:0.5;"/>
   </g>
   <g id="patch_77">
    <path clip-path="url(#p5bd0225cb0)" d="M 342.365035 252 
L 350.169231 252 
L 350.169231 252 
L 342.365035 252 
z
" style="fill:#ff7f0e;opacity:0.5;"/>
   </g>
   <g id="patch_78">
    <path clip-path="url(#p5bd0225cb0)" d="M 350.169231 252 
L 357.973427 252 
L 357.973427 252 
L 350.169231 252 
z
" style="fill:#ff7f0e;opacity:0.5;"/>
   </g>
   <g id="patch_79">
    <path clip-path="url(#p5bd0225cb0)" d="M 357.973427 252 
L 365.777622 252 
L 365.777622 252 
L 357.973427 252 
z
" style="fill:#ff7f0e;opacity:0.5;"/>
   </g>
   <g id="patch_80">
    <path clip-path="url(#p5bd0225cb0)" d="M 365.777622 252 
L 373.581818 252 
L 373.581818 252 
L 365.777622 252 
z
" style="fill:#ff7f0e;opacity:0.5;"/>
   </g>
   <g id="matplotlib.axis_1">
    <g id="xtick_1">
     <g id="line2d_1">
      <defs>
       <path d="M 0 0 
L 0 3.5 
" id="m8a011e5cf3" style="stroke:#000000;stroke-width:0.8;"/>
      </defs>
      <g>
       <use style="stroke:#000000;stroke-width:0.8;" x="69.218182" xlink:href="#m8a011e5cf3" y="252"/>
      </g>
     </g>
     <g id="text_1">
      <!-- 0.0 -->
      <g transform="translate(61.266619 266.598437)scale(0.1 -0.1)">
       <defs>
        <path d="M 31.78125 66.40625 
Q 24.171875 66.40625 20.328125 58.90625 
Q 16.5 51.421875 16.5 36.375 
Q 16.5 21.390625 20.328125 13.890625 
Q 24.171875 6.390625 31.78125 6.390625 
Q 39.453125 6.390625 43.28125 13.890625 
Q 47.125 21.390625 47.125 36.375 
Q 47.125 51.421875 43.28125 58.90625 
Q 39.453125 66.40625 31.78125 66.40625 
z
M 31.78125 74.21875 
Q 44.046875 74.21875 50.515625 64.515625 
Q 56.984375 54.828125 56.984375 36.375 
Q 56.984375 17.96875 50.515625 8.265625 
Q 44.046875 -1.421875 31.78125 -1.421875 
Q 19.53125 -1.421875 13.0625 8.265625 
Q 6.59375 17.96875 6.59375 36.375 
Q 6.59375 54.828125 13.0625 64.515625 
Q 19.53125 74.21875 31.78125 74.21875 
z
" id="DejaVuSans-48"/>
        <path d="M 10.6875 12.40625 
L 21 12.40625 
L 21 0 
L 10.6875 0 
z
" id="DejaVuSans-46"/>
       </defs>
       <use xlink:href="#DejaVuSans-48"/>
       <use x="63.623047" xlink:href="#DejaVuSans-46"/>
       <use x="95.410156" xlink:href="#DejaVuSans-48"/>
      </g>
     </g>
    </g>
    <g id="xtick_2">
     <g id="line2d_2">
      <g>
       <use style="stroke:#000000;stroke-width:0.8;" x="119.945455" xlink:href="#m8a011e5cf3" y="252"/>
      </g>
     </g>
     <g id="text_2">
      <!-- 0.5 -->
      <g transform="translate(111.993892 266.598437)scale(0.1 -0.1)">
       <defs>
        <path d="M 10.796875 72.90625 
L 49.515625 72.90625 
L 49.515625 64.59375 
L 19.828125 64.59375 
L 19.828125 46.734375 
Q 21.96875 47.46875 24.109375 47.828125 
Q 26.265625 48.1875 28.421875 48.1875 
Q 40.625 48.1875 47.75 41.5 
Q 54.890625 34.8125 54.890625 23.390625 
Q 54.890625 11.625 47.5625 5.09375 
Q 40.234375 -1.421875 26.90625 -1.421875 
Q 22.3125 -1.421875 17.546875 -0.640625 
Q 12.796875 0.140625 7.71875 1.703125 
L 7.71875 11.625 
Q 12.109375 9.234375 16.796875 8.0625 
Q 21.484375 6.890625 26.703125 6.890625 
Q 35.15625 6.890625 40.078125 11.328125 
Q 45.015625 15.765625 45.015625 23.390625 
Q 45.015625 31 40.078125 35.4375 
Q 35.15625 39.890625 26.703125 39.890625 
Q 22.75 39.890625 18.8125 39.015625 
Q 14.890625 38.140625 10.796875 36.28125 
z
" id="DejaVuSans-53"/>
       </defs>
       <use xlink:href="#DejaVuSans-48"/>
       <use x="63.623047" xlink:href="#DejaVuSans-46"/>
       <use x="95.410156" xlink:href="#DejaVuSans-53"/>
      </g>
     </g>
    </g>
    <g id="xtick_3">
     <g id="line2d_3">
      <g>
       <use style="stroke:#000000;stroke-width:0.8;" x="170.672727" xlink:href="#m8a011e5cf3" y="252"/>
      </g>
     </g>
     <g id="text_3">
      <!-- 1.0 -->
      <g transform="translate(162.721165 266.598437)scale(0.1 -0.1)">
       <defs>
        <path d="M 12.40625 8.296875 
L 28.515625 8.296875 
L 28.515625 63.921875 
L 10.984375 60.40625 
L 10.984375 69.390625 
L 28.421875 72.90625 
L 38.28125 72.90625 
L 38.28125 8.296875 
L 54.390625 8.296875 
L 54.390625 0 
L 12.40625 0 
z
" id="DejaVuSans-49"/>
       </defs>
       <use xlink:href="#DejaVuSans-49"/>
       <use x="63.623047" xlink:href="#DejaVuSans-46"/>
       <use x="95.410156" xlink:href="#DejaVuSans-48"/>
      </g>
     </g>
    </g>
    <g id="xtick_4">
     <g id="line2d_4">
      <g>
       <use style="stroke:#000000;stroke-width:0.8;" x="221.4" xlink:href="#m8a011e5cf3" y="252"/>
      </g>
     </g>
     <g id="text_4">
      <!-- 1.5 -->
      <g transform="translate(213.448438 266.598437)scale(0.1 -0.1)">
       <use xlink:href="#DejaVuSans-49"/>
       <use x="63.623047" xlink:href="#DejaVuSans-46"/>
       <use x="95.410156" xlink:href="#DejaVuSans-53"/>
      </g>
     </g>
    </g>
    <g id="xtick_5">
     <g id="line2d_5">
      <g>
       <use style="stroke:#000000;stroke-width:0.8;" x="272.127273" xlink:href="#m8a011e5cf3" y="252"/>
      </g>
     </g>
     <g id="text_5">
      <!-- 2.0 -->
      <g transform="translate(264.17571 266.598437)scale(0.1 -0.1)">
       <defs>
        <path d="M 19.1875 8.296875 
L 53.609375 8.296875 
L 53.609375 0 
L 7.328125 0 
L 7.328125 8.296875 
Q 12.9375 14.109375 22.625 23.890625 
Q 32.328125 33.6875 34.8125 36.53125 
Q 39.546875 41.84375 41.421875 45.53125 
Q 43.3125 49.21875 43.3125 52.78125 
Q 43.3125 58.59375 39.234375 62.25 
Q 35.15625 65.921875 28.609375 65.921875 
Q 23.96875 65.921875 18.8125 64.3125 
Q 13.671875 62.703125 7.8125 59.421875 
L 7.8125 69.390625 
Q 13.765625 71.78125 18.9375 73 
Q 24.125 74.21875 28.421875 74.21875 
Q 39.75 74.21875 46.484375 68.546875 
Q 53.21875 62.890625 53.21875 53.421875 
Q 53.21875 48.921875 51.53125 44.890625 
Q 49.859375 40.875 45.40625 35.40625 
Q 44.1875 33.984375 37.640625 27.21875 
Q 31.109375 20.453125 19.1875 8.296875 
z
" id="DejaVuSans-50"/>
       </defs>
       <use xlink:href="#DejaVuSans-50"/>
       <use x="63.623047" xlink:href="#DejaVuSans-46"/>
       <use x="95.410156" xlink:href="#DejaVuSans-48"/>
      </g>
     </g>
    </g>
    <g id="xtick_6">
     <g id="line2d_6">
      <g>
       <use style="stroke:#000000;stroke-width:0.8;" x="322.854545" xlink:href="#m8a011e5cf3" y="252"/>
      </g>
     </g>
     <g id="text_6">
      <!-- 2.5 -->
      <g transform="translate(314.902983 266.598437)scale(0.1 -0.1)">
       <use xlink:href="#DejaVuSans-50"/>
       <use x="63.623047" xlink:href="#DejaVuSans-46"/>
       <use x="95.410156" xlink:href="#DejaVuSans-53"/>
      </g>
     </g>
    </g>
    <g id="xtick_7">
     <g id="line2d_7">
      <g>
       <use style="stroke:#000000;stroke-width:0.8;" x="373.581818" xlink:href="#m8a011e5cf3" y="252"/>
      </g>
     </g>
     <g id="text_7">
      <!-- 3.0 -->
      <g transform="translate(365.630256 266.598437)scale(0.1 -0.1)">
       <defs>
        <path d="M 40.578125 39.3125 
Q 47.65625 37.796875 51.625 33 
Q 55.609375 28.21875 55.609375 21.1875 
Q 55.609375 10.40625 48.1875 4.484375 
Q 40.765625 -1.421875 27.09375 -1.421875 
Q 22.515625 -1.421875 17.65625 -0.515625 
Q 12.796875 0.390625 7.625 2.203125 
L 7.625 11.71875 
Q 11.71875 9.328125 16.59375 8.109375 
Q 21.484375 6.890625 26.8125 6.890625 
Q 36.078125 6.890625 40.9375 10.546875 
Q 45.796875 14.203125 45.796875 21.1875 
Q 45.796875 27.640625 41.28125 31.265625 
Q 36.765625 34.90625 28.71875 34.90625 
L 20.21875 34.90625 
L 20.21875 43.015625 
L 29.109375 43.015625 
Q 36.375 43.015625 40.234375 45.921875 
Q 44.09375 48.828125 44.09375 54.296875 
Q 44.09375 59.90625 40.109375 62.90625 
Q 36.140625 65.921875 28.71875 65.921875 
Q 24.65625 65.921875 20.015625 65.03125 
Q 15.375 64.15625 9.8125 62.3125 
L 9.8125 71.09375 
Q 15.4375 72.65625 20.34375 73.4375 
Q 25.25 74.21875 29.59375 74.21875 
Q 40.828125 74.21875 47.359375 69.109375 
Q 53.90625 64.015625 53.90625 55.328125 
Q 53.90625 49.265625 50.4375 45.09375 
Q 46.96875 40.921875 40.578125 39.3125 
z
" id="DejaVuSans-51"/>
       </defs>
       <use xlink:href="#DejaVuSans-51"/>
       <use x="63.623047" xlink:href="#DejaVuSans-46"/>
       <use x="95.410156" xlink:href="#DejaVuSans-48"/>
      </g>
     </g>
    </g>
    <g id="text_8">
     <!-- Error between prediction and true value -->
     <g transform="translate(121.238281 280.276563)scale(0.1 -0.1)">
      <defs>
       <path d="M 9.8125 72.90625 
L 55.90625 72.90625 
L 55.90625 64.59375 
L 19.671875 64.59375 
L 19.671875 43.015625 
L 54.390625 43.015625 
L 54.390625 34.71875 
L 19.671875 34.71875 
L 19.671875 8.296875 
L 56.78125 8.296875 
L 56.78125 0 
L 9.8125 0 
z
" id="DejaVuSans-69"/>
       <path d="M 41.109375 46.296875 
Q 39.59375 47.171875 37.8125 47.578125 
Q 36.03125 48 33.890625 48 
Q 26.265625 48 22.1875 43.046875 
Q 18.109375 38.09375 18.109375 28.8125 
L 18.109375 0 
L 9.078125 0 
L 9.078125 54.6875 
L 18.109375 54.6875 
L 18.109375 46.1875 
Q 20.953125 51.171875 25.484375 53.578125 
Q 30.03125 56 36.53125 56 
Q 37.453125 56 38.578125 55.875 
Q 39.703125 55.765625 41.0625 55.515625 
z
" id="DejaVuSans-114"/>
       <path d="M 30.609375 48.390625 
Q 23.390625 48.390625 19.1875 42.75 
Q 14.984375 37.109375 14.984375 27.296875 
Q 14.984375 17.484375 19.15625 11.84375 
Q 23.34375 6.203125 30.609375 6.203125 
Q 37.796875 6.203125 41.984375 11.859375 
Q 46.1875 17.53125 46.1875 27.296875 
Q 46.1875 37.015625 41.984375 42.703125 
Q 37.796875 48.390625 30.609375 48.390625 
z
M 30.609375 56 
Q 42.328125 56 49.015625 48.375 
Q 55.71875 40.765625 55.71875 27.296875 
Q 55.71875 13.875 49.015625 6.21875 
Q 42.328125 -1.421875 30.609375 -1.421875 
Q 18.84375 -1.421875 12.171875 6.21875 
Q 5.515625 13.875 5.515625 27.296875 
Q 5.515625 40.765625 12.171875 48.375 
Q 18.84375 56 30.609375 56 
z
" id="DejaVuSans-111"/>
       <path id="DejaVuSans-32"/>
       <path d="M 48.6875 27.296875 
Q 48.6875 37.203125 44.609375 42.84375 
Q 40.53125 48.484375 33.40625 48.484375 
Q 26.265625 48.484375 22.1875 42.84375 
Q 18.109375 37.203125 18.109375 27.296875 
Q 18.109375 17.390625 22.1875 11.75 
Q 26.265625 6.109375 33.40625 6.109375 
Q 40.53125 6.109375 44.609375 11.75 
Q 48.6875 17.390625 48.6875 27.296875 
z
M 18.109375 46.390625 
Q 20.953125 51.265625 25.265625 53.625 
Q 29.59375 56 35.59375 56 
Q 45.5625 56 51.78125 48.09375 
Q 58.015625 40.1875 58.015625 27.296875 
Q 58.015625 14.40625 51.78125 6.484375 
Q 45.5625 -1.421875 35.59375 -1.421875 
Q 29.59375 -1.421875 25.265625 0.953125 
Q 20.953125 3.328125 18.109375 8.203125 
L 18.109375 0 
L 9.078125 0 
L 9.078125 75.984375 
L 18.109375 75.984375 
z
" id="DejaVuSans-98"/>
       <path d="M 56.203125 29.59375 
L 56.203125 25.203125 
L 14.890625 25.203125 
Q 15.484375 15.921875 20.484375 11.0625 
Q 25.484375 6.203125 34.421875 6.203125 
Q 39.59375 6.203125 44.453125 7.46875 
Q 49.3125 8.734375 54.109375 11.28125 
L 54.109375 2.78125 
Q 49.265625 0.734375 44.1875 -0.34375 
Q 39.109375 -1.421875 33.890625 -1.421875 
Q 20.796875 -1.421875 13.15625 6.1875 
Q 5.515625 13.8125 5.515625 26.8125 
Q 5.515625 40.234375 12.765625 48.109375 
Q 20.015625 56 32.328125 56 
Q 43.359375 56 49.78125 48.890625 
Q 56.203125 41.796875 56.203125 29.59375 
z
M 47.21875 32.234375 
Q 47.125 39.59375 43.09375 43.984375 
Q 39.0625 48.390625 32.421875 48.390625 
Q 24.90625 48.390625 20.390625 44.140625 
Q 15.875 39.890625 15.1875 32.171875 
z
" id="DejaVuSans-101"/>
       <path d="M 18.3125 70.21875 
L 18.3125 54.6875 
L 36.8125 54.6875 
L 36.8125 47.703125 
L 18.3125 47.703125 
L 18.3125 18.015625 
Q 18.3125 11.328125 20.140625 9.421875 
Q 21.96875 7.515625 27.59375 7.515625 
L 36.8125 7.515625 
L 36.8125 0 
L 27.59375 0 
Q 17.1875 0 13.234375 3.875 
Q 9.28125 7.765625 9.28125 18.015625 
L 9.28125 47.703125 
L 2.6875 47.703125 
L 2.6875 54.6875 
L 9.28125 54.6875 
L 9.28125 70.21875 
z
" id="DejaVuSans-116"/>
       <path d="M 4.203125 54.6875 
L 13.1875 54.6875 
L 24.421875 12.015625 
L 35.59375 54.6875 
L 46.1875 54.6875 
L 57.421875 12.015625 
L 68.609375 54.6875 
L 77.59375 54.6875 
L 63.28125 0 
L 52.6875 0 
L 40.921875 44.828125 
L 29.109375 0 
L 18.5 0 
z
" id="DejaVuSans-119"/>
       <path d="M 54.890625 33.015625 
L 54.890625 0 
L 45.90625 0 
L 45.90625 32.71875 
Q 45.90625 40.484375 42.875 44.328125 
Q 39.84375 48.1875 33.796875 48.1875 
Q 26.515625 48.1875 22.3125 43.546875 
Q 18.109375 38.921875 18.109375 30.90625 
L 18.109375 0 
L 9.078125 0 
L 9.078125 54.6875 
L 18.109375 54.6875 
L 18.109375 46.1875 
Q 21.34375 51.125 25.703125 53.5625 
Q 30.078125 56 35.796875 56 
Q 45.21875 56 50.046875 50.171875 
Q 54.890625 44.34375 54.890625 33.015625 
z
" id="DejaVuSans-110"/>
       <path d="M 18.109375 8.203125 
L 18.109375 -20.796875 
L 9.078125 -20.796875 
L 9.078125 54.6875 
L 18.109375 54.6875 
L 18.109375 46.390625 
Q 20.953125 51.265625 25.265625 53.625 
Q 29.59375 56 35.59375 56 
Q 45.5625 56 51.78125 48.09375 
Q 58.015625 40.1875 58.015625 27.296875 
Q 58.015625 14.40625 51.78125 6.484375 
Q 45.5625 -1.421875 35.59375 -1.421875 
Q 29.59375 -1.421875 25.265625 0.953125 
Q 20.953125 3.328125 18.109375 8.203125 
z
M 48.6875 27.296875 
Q 48.6875 37.203125 44.609375 42.84375 
Q 40.53125 48.484375 33.40625 48.484375 
Q 26.265625 48.484375 22.1875 42.84375 
Q 18.109375 37.203125 18.109375 27.296875 
Q 18.109375 17.390625 22.1875 11.75 
Q 26.265625 6.109375 33.40625 6.109375 
Q 40.53125 6.109375 44.609375 11.75 
Q 48.6875 17.390625 48.6875 27.296875 
z
" id="DejaVuSans-112"/>
       <path d="M 45.40625 46.390625 
L 45.40625 75.984375 
L 54.390625 75.984375 
L 54.390625 0 
L 45.40625 0 
L 45.40625 8.203125 
Q 42.578125 3.328125 38.25 0.953125 
Q 33.9375 -1.421875 27.875 -1.421875 
Q 17.96875 -1.421875 11.734375 6.484375 
Q 5.515625 14.40625 5.515625 27.296875 
Q 5.515625 40.1875 11.734375 48.09375 
Q 17.96875 56 27.875 56 
Q 33.9375 56 38.25 53.625 
Q 42.578125 51.265625 45.40625 46.390625 
z
M 14.796875 27.296875 
Q 14.796875 17.390625 18.875 11.75 
Q 22.953125 6.109375 30.078125 6.109375 
Q 37.203125 6.109375 41.296875 11.75 
Q 45.40625 17.390625 45.40625 27.296875 
Q 45.40625 37.203125 41.296875 42.84375 
Q 37.203125 48.484375 30.078125 48.484375 
Q 22.953125 48.484375 18.875 42.84375 
Q 14.796875 37.203125 14.796875 27.296875 
z
" id="DejaVuSans-100"/>
       <path d="M 9.421875 54.6875 
L 18.40625 54.6875 
L 18.40625 0 
L 9.421875 0 
z
M 9.421875 75.984375 
L 18.40625 75.984375 
L 18.40625 64.59375 
L 9.421875 64.59375 
z
" id="DejaVuSans-105"/>
       <path d="M 48.78125 52.59375 
L 48.78125 44.1875 
Q 44.96875 46.296875 41.140625 47.34375 
Q 37.3125 48.390625 33.40625 48.390625 
Q 24.65625 48.390625 19.8125 42.84375 
Q 14.984375 37.3125 14.984375 27.296875 
Q 14.984375 17.28125 19.8125 11.734375 
Q 24.65625 6.203125 33.40625 6.203125 
Q 37.3125 6.203125 41.140625 7.25 
Q 44.96875 8.296875 48.78125 10.40625 
L 48.78125 2.09375 
Q 45.015625 0.34375 40.984375 -0.53125 
Q 36.96875 -1.421875 32.421875 -1.421875 
Q 20.0625 -1.421875 12.78125 6.34375 
Q 5.515625 14.109375 5.515625 27.296875 
Q 5.515625 40.671875 12.859375 48.328125 
Q 20.21875 56 33.015625 56 
Q 37.15625 56 41.109375 55.140625 
Q 45.0625 54.296875 48.78125 52.59375 
z
" id="DejaVuSans-99"/>
       <path d="M 34.28125 27.484375 
Q 23.390625 27.484375 19.1875 25 
Q 14.984375 22.515625 14.984375 16.5 
Q 14.984375 11.71875 18.140625 8.90625 
Q 21.296875 6.109375 26.703125 6.109375 
Q 34.1875 6.109375 38.703125 11.40625 
Q 43.21875 16.703125 43.21875 25.484375 
L 43.21875 27.484375 
z
M 52.203125 31.203125 
L 52.203125 0 
L 43.21875 0 
L 43.21875 8.296875 
Q 40.140625 3.328125 35.546875 0.953125 
Q 30.953125 -1.421875 24.3125 -1.421875 
Q 15.921875 -1.421875 10.953125 3.296875 
Q 6 8.015625 6 15.921875 
Q 6 25.140625 12.171875 29.828125 
Q 18.359375 34.515625 30.609375 34.515625 
L 43.21875 34.515625 
L 43.21875 35.40625 
Q 43.21875 41.609375 39.140625 45 
Q 35.0625 48.390625 27.6875 48.390625 
Q 23 48.390625 18.546875 47.265625 
Q 14.109375 46.140625 10.015625 43.890625 
L 10.015625 52.203125 
Q 14.9375 54.109375 19.578125 55.046875 
Q 24.21875 56 28.609375 56 
Q 40.484375 56 46.34375 49.84375 
Q 52.203125 43.703125 52.203125 31.203125 
z
" id="DejaVuSans-97"/>
       <path d="M 8.5 21.578125 
L 8.5 54.6875 
L 17.484375 54.6875 
L 17.484375 21.921875 
Q 17.484375 14.15625 20.5 10.265625 
Q 23.53125 6.390625 29.59375 6.390625 
Q 36.859375 6.390625 41.078125 11.03125 
Q 45.3125 15.671875 45.3125 23.6875 
L 45.3125 54.6875 
L 54.296875 54.6875 
L 54.296875 0 
L 45.3125 0 
L 45.3125 8.40625 
Q 42.046875 3.421875 37.71875 1 
Q 33.40625 -1.421875 27.6875 -1.421875 
Q 18.265625 -1.421875 13.375 4.4375 
Q 8.5 10.296875 8.5 21.578125 
z
M 31.109375 56 
z
" id="DejaVuSans-117"/>
       <path d="M 2.984375 54.6875 
L 12.5 54.6875 
L 29.59375 8.796875 
L 46.6875 54.6875 
L 56.203125 54.6875 
L 35.6875 0 
L 23.484375 0 
z
" id="DejaVuSans-118"/>
       <path d="M 9.421875 75.984375 
L 18.40625 75.984375 
L 18.40625 0 
L 9.421875 0 
z
" id="DejaVuSans-108"/>
      </defs>
      <use xlink:href="#DejaVuSans-69"/>
      <use x="63.183594" xlink:href="#DejaVuSans-114"/>
      <use x="102.546875" xlink:href="#DejaVuSans-114"/>
      <use x="141.410156" xlink:href="#DejaVuSans-111"/>
      <use x="202.591797" xlink:href="#DejaVuSans-114"/>
      <use x="243.705078" xlink:href="#DejaVuSans-32"/>
      <use x="275.492188" xlink:href="#DejaVuSans-98"/>
      <use x="338.96875" xlink:href="#DejaVuSans-101"/>
      <use x="400.492188" xlink:href="#DejaVuSans-116"/>
      <use x="439.701172" xlink:href="#DejaVuSans-119"/>
      <use x="521.488281" xlink:href="#DejaVuSans-101"/>
      <use x="583.011719" xlink:href="#DejaVuSans-101"/>
      <use x="644.535156" xlink:href="#DejaVuSans-110"/>
      <use x="707.914062" xlink:href="#DejaVuSans-32"/>
      <use x="739.701172" xlink:href="#DejaVuSans-112"/>
      <use x="803.177734" xlink:href="#DejaVuSans-114"/>
      <use x="842.041016" xlink:href="#DejaVuSans-101"/>
      <use x="903.564453" xlink:href="#DejaVuSans-100"/>
      <use x="967.041016" xlink:href="#DejaVuSans-105"/>
      <use x="994.824219" xlink:href="#DejaVuSans-99"/>
      <use x="1049.804688" xlink:href="#DejaVuSans-116"/>
      <use x="1089.013672" xlink:href="#DejaVuSans-105"/>
      <use x="1116.796875" xlink:href="#DejaVuSans-111"/>
      <use x="1177.978516" xlink:href="#DejaVuSans-110"/>
      <use x="1241.357422" xlink:href="#DejaVuSans-32"/>
      <use x="1273.144531" xlink:href="#DejaVuSans-97"/>
      <use x="1334.423828" xlink:href="#DejaVuSans-110"/>
      <use x="1397.802734" xlink:href="#DejaVuSans-100"/>
      <use x="1461.279297" xlink:href="#DejaVuSans-32"/>
      <use x="1493.066406" xlink:href="#DejaVuSans-116"/>
      <use x="1532.275391" xlink:href="#DejaVuSans-114"/>
      <use x="1573.388672" xlink:href="#DejaVuSans-117"/>
      <use x="1636.767578" xlink:href="#DejaVuSans-101"/>
      <use x="1698.291016" xlink:href="#DejaVuSans-32"/>
      <use x="1730.078125" xlink:href="#DejaVuSans-118"/>
      <use x="1789.257812" xlink:href="#DejaVuSans-97"/>
      <use x="1850.537109" xlink:href="#DejaVuSans-108"/>
      <use x="1878.320312" xlink:href="#DejaVuSans-117"/>
      <use x="1941.699219" xlink:href="#DejaVuSans-101"/>
     </g>
    </g>
   </g>
   <g id="matplotlib.axis_2">
    <g id="ytick_1">
     <g id="line2d_8">
      <defs>
       <path d="M 0 0 
L -3.5 0 
" id="mee3fddd2e3" style="stroke:#000000;stroke-width:0.8;"/>
      </defs>
      <g>
       <use style="stroke:#000000;stroke-width:0.8;" x="54" xlink:href="#mee3fddd2e3" y="252"/>
      </g>
     </g>
     <g id="text_9">
      <!-- 0 -->
      <g transform="translate(40.6375 255.799219)scale(0.1 -0.1)">
       <use xlink:href="#DejaVuSans-48"/>
      </g>
     </g>
    </g>
    <g id="ytick_2">
     <g id="line2d_9">
      <g>
       <use style="stroke:#000000;stroke-width:0.8;" x="54" xlink:href="#mee3fddd2e3" y="227.346939"/>
      </g>
     </g>
     <g id="text_10">
      <!-- 5 -->
      <g transform="translate(40.6375 231.146158)scale(0.1 -0.1)">
       <use xlink:href="#DejaVuSans-53"/>
      </g>
     </g>
    </g>
    <g id="ytick_3">
     <g id="line2d_10">
      <g>
       <use style="stroke:#000000;stroke-width:0.8;" x="54" xlink:href="#mee3fddd2e3" y="202.693878"/>
      </g>
     </g>
     <g id="text_11">
      <!-- 10 -->
      <g transform="translate(34.275 206.493096)scale(0.1 -0.1)">
       <use xlink:href="#DejaVuSans-49"/>
       <use x="63.623047" xlink:href="#DejaVuSans-48"/>
      </g>
     </g>
    </g>
    <g id="ytick_4">
     <g id="line2d_11">
      <g>
       <use style="stroke:#000000;stroke-width:0.8;" x="54" xlink:href="#mee3fddd2e3" y="178.040816"/>
      </g>
     </g>
     <g id="text_12">
      <!-- 15 -->
      <g transform="translate(34.275 181.840035)scale(0.1 -0.1)">
       <use xlink:href="#DejaVuSans-49"/>
       <use x="63.623047" xlink:href="#DejaVuSans-53"/>
      </g>
     </g>
    </g>
    <g id="ytick_5">
     <g id="line2d_12">
      <g>
       <use style="stroke:#000000;stroke-width:0.8;" x="54" xlink:href="#mee3fddd2e3" y="153.387755"/>
      </g>
     </g>
     <g id="text_13">
      <!-- 20 -->
      <g transform="translate(34.275 157.186974)scale(0.1 -0.1)">
       <use xlink:href="#DejaVuSans-50"/>
       <use x="63.623047" xlink:href="#DejaVuSans-48"/>
      </g>
     </g>
    </g>
    <g id="ytick_6">
     <g id="line2d_13">
      <g>
       <use style="stroke:#000000;stroke-width:0.8;" x="54" xlink:href="#mee3fddd2e3" y="128.734694"/>
      </g>
     </g>
     <g id="text_14">
      <!-- 25 -->
      <g transform="translate(34.275 132.533913)scale(0.1 -0.1)">
       <use xlink:href="#DejaVuSans-50"/>
       <use x="63.623047" xlink:href="#DejaVuSans-53"/>
      </g>
     </g>
    </g>
    <g id="ytick_7">
     <g id="line2d_14">
      <g>
       <use style="stroke:#000000;stroke-width:0.8;" x="54" xlink:href="#mee3fddd2e3" y="104.081633"/>
      </g>
     </g>
     <g id="text_15">
      <!-- 30 -->
      <g transform="translate(34.275 107.880851)scale(0.1 -0.1)">
       <use xlink:href="#DejaVuSans-51"/>
       <use x="63.623047" xlink:href="#DejaVuSans-48"/>
      </g>
     </g>
    </g>
    <g id="ytick_8">
     <g id="line2d_15">
      <g>
       <use style="stroke:#000000;stroke-width:0.8;" x="54" xlink:href="#mee3fddd2e3" y="79.428571"/>
      </g>
     </g>
     <g id="text_16">
      <!-- 35 -->
      <g transform="translate(34.275 83.22779)scale(0.1 -0.1)">
       <use xlink:href="#DejaVuSans-51"/>
       <use x="63.623047" xlink:href="#DejaVuSans-53"/>
      </g>
     </g>
    </g>
    <g id="ytick_9">
     <g id="line2d_16">
      <g>
       <use style="stroke:#000000;stroke-width:0.8;" x="54" xlink:href="#mee3fddd2e3" y="54.77551"/>
      </g>
     </g>
     <g id="text_17">
      <!-- 40 -->
      <g transform="translate(34.275 58.574729)scale(0.1 -0.1)">
       <defs>
        <path d="M 37.796875 64.3125 
L 12.890625 25.390625 
L 37.796875 25.390625 
z
M 35.203125 72.90625 
L 47.609375 72.90625 
L 47.609375 25.390625 
L 58.015625 25.390625 
L 58.015625 17.1875 
L 47.609375 17.1875 
L 47.609375 0 
L 37.796875 0 
L 37.796875 17.1875 
L 4.890625 17.1875 
L 4.890625 26.703125 
z
" id="DejaVuSans-52"/>
       </defs>
       <use xlink:href="#DejaVuSans-52"/>
       <use x="63.623047" xlink:href="#DejaVuSans-48"/>
      </g>
     </g>
    </g>
    <g id="text_18">
     <!-- Frequency -->
     <g transform="translate(28.195312 169.109688)rotate(-90)scale(0.1 -0.1)">
      <defs>
       <path d="M 9.8125 72.90625 
L 51.703125 72.90625 
L 51.703125 64.59375 
L 19.671875 64.59375 
L 19.671875 43.109375 
L 48.578125 43.109375 
L 48.578125 34.8125 
L 19.671875 34.8125 
L 19.671875 0 
L 9.8125 0 
z
" id="DejaVuSans-70"/>
       <path d="M 14.796875 27.296875 
Q 14.796875 17.390625 18.875 11.75 
Q 22.953125 6.109375 30.078125 6.109375 
Q 37.203125 6.109375 41.296875 11.75 
Q 45.40625 17.390625 45.40625 27.296875 
Q 45.40625 37.203125 41.296875 42.84375 
Q 37.203125 48.484375 30.078125 48.484375 
Q 22.953125 48.484375 18.875 42.84375 
Q 14.796875 37.203125 14.796875 27.296875 
z
M 45.40625 8.203125 
Q 42.578125 3.328125 38.25 0.953125 
Q 33.9375 -1.421875 27.875 -1.421875 
Q 17.96875 -1.421875 11.734375 6.484375 
Q 5.515625 14.40625 5.515625 27.296875 
Q 5.515625 40.1875 11.734375 48.09375 
Q 17.96875 56 27.875 56 
Q 33.9375 56 38.25 53.625 
Q 42.578125 51.265625 45.40625 46.390625 
L 45.40625 54.6875 
L 54.390625 54.6875 
L 54.390625 -20.796875 
L 45.40625 -20.796875 
z
" id="DejaVuSans-113"/>
       <path d="M 32.171875 -5.078125 
Q 28.375 -14.84375 24.75 -17.8125 
Q 21.140625 -20.796875 15.09375 -20.796875 
L 7.90625 -20.796875 
L 7.90625 -13.28125 
L 13.1875 -13.28125 
Q 16.890625 -13.28125 18.9375 -11.515625 
Q 21 -9.765625 23.484375 -3.21875 
L 25.09375 0.875 
L 2.984375 54.6875 
L 12.5 54.6875 
L 29.59375 11.921875 
L 46.6875 54.6875 
L 56.203125 54.6875 
z
" id="DejaVuSans-121"/>
      </defs>
      <use xlink:href="#DejaVuSans-70"/>
      <use x="50.269531" xlink:href="#DejaVuSans-114"/>
      <use x="89.132812" xlink:href="#DejaVuSans-101"/>
      <use x="150.65625" xlink:href="#DejaVuSans-113"/>
      <use x="214.132812" xlink:href="#DejaVuSans-117"/>
      <use x="277.511719" xlink:href="#DejaVuSans-101"/>
      <use x="339.035156" xlink:href="#DejaVuSans-110"/>
      <use x="402.414062" xlink:href="#DejaVuSans-99"/>
      <use x="457.394531" xlink:href="#DejaVuSans-121"/>
     </g>
    </g>
   </g>
   <g id="patch_81">
    <path d="M 54 252 
L 54 34.56 
" style="fill:none;stroke:#000000;stroke-linecap:square;stroke-linejoin:miter;stroke-width:0.8;"/>
   </g>
   <g id="patch_82">
    <path d="M 388.8 252 
L 388.8 34.56 
" style="fill:none;stroke:#000000;stroke-linecap:square;stroke-linejoin:miter;stroke-width:0.8;"/>
   </g>
   <g id="patch_83">
    <path d="M 54 252 
L 388.8 252 
" style="fill:none;stroke:#000000;stroke-linecap:square;stroke-linejoin:miter;stroke-width:0.8;"/>
   </g>
   <g id="patch_84">
    <path d="M 54 34.56 
L 388.8 34.56 
" style="fill:none;stroke:#000000;stroke-linecap:square;stroke-linejoin:miter;stroke-width:0.8;"/>
   </g>
   <g id="text_19">
    <!-- Histogram of the test errors -->
    <g transform="translate(137.847188 1.68525)scale(0.12 -0.12)">
     <defs>
      <path d="M 9.8125 72.90625 
L 19.671875 72.90625 
L 19.671875 43.015625 
L 55.515625 43.015625 
L 55.515625 72.90625 
L 65.375 72.90625 
L 65.375 0 
L 55.515625 0 
L 55.515625 34.71875 
L 19.671875 34.71875 
L 19.671875 0 
L 9.8125 0 
z
" id="DejaVuSans-72"/>
      <path d="M 44.28125 53.078125 
L 44.28125 44.578125 
Q 40.484375 46.53125 36.375 47.5 
Q 32.28125 48.484375 27.875 48.484375 
Q 21.1875 48.484375 17.84375 46.4375 
Q 14.5 44.390625 14.5 40.28125 
Q 14.5 37.15625 16.890625 35.375 
Q 19.28125 33.59375 26.515625 31.984375 
L 29.59375 31.296875 
Q 39.15625 29.25 43.1875 25.515625 
Q 47.21875 21.78125 47.21875 15.09375 
Q 47.21875 7.46875 41.1875 3.015625 
Q 35.15625 -1.421875 24.609375 -1.421875 
Q 20.21875 -1.421875 15.453125 -0.5625 
Q 10.6875 0.296875 5.421875 2 
L 5.421875 11.28125 
Q 10.40625 8.6875 15.234375 7.390625 
Q 20.0625 6.109375 24.8125 6.109375 
Q 31.15625 6.109375 34.5625 8.28125 
Q 37.984375 10.453125 37.984375 14.40625 
Q 37.984375 18.0625 35.515625 20.015625 
Q 33.0625 21.96875 24.703125 23.78125 
L 21.578125 24.515625 
Q 13.234375 26.265625 9.515625 29.90625 
Q 5.8125 33.546875 5.8125 39.890625 
Q 5.8125 47.609375 11.28125 51.796875 
Q 16.75 56 26.8125 56 
Q 31.78125 56 36.171875 55.265625 
Q 40.578125 54.546875 44.28125 53.078125 
z
" id="DejaVuSans-115"/>
      <path d="M 45.40625 27.984375 
Q 45.40625 37.75 41.375 43.109375 
Q 37.359375 48.484375 30.078125 48.484375 
Q 22.859375 48.484375 18.828125 43.109375 
Q 14.796875 37.75 14.796875 27.984375 
Q 14.796875 18.265625 18.828125 12.890625 
Q 22.859375 7.515625 30.078125 7.515625 
Q 37.359375 7.515625 41.375 12.890625 
Q 45.40625 18.265625 45.40625 27.984375 
z
M 54.390625 6.78125 
Q 54.390625 -7.171875 48.1875 -13.984375 
Q 42 -20.796875 29.203125 -20.796875 
Q 24.46875 -20.796875 20.265625 -20.09375 
Q 16.0625 -19.390625 12.109375 -17.921875 
L 12.109375 -9.1875 
Q 16.0625 -11.328125 19.921875 -12.34375 
Q 23.78125 -13.375 27.78125 -13.375 
Q 36.625 -13.375 41.015625 -8.765625 
Q 45.40625 -4.15625 45.40625 5.171875 
L 45.40625 9.625 
Q 42.625 4.78125 38.28125 2.390625 
Q 33.9375 0 27.875 0 
Q 17.828125 0 11.671875 7.65625 
Q 5.515625 15.328125 5.515625 27.984375 
Q 5.515625 40.671875 11.671875 48.328125 
Q 17.828125 56 27.875 56 
Q 33.9375 56 38.28125 53.609375 
Q 42.625 51.21875 45.40625 46.390625 
L 45.40625 54.6875 
L 54.390625 54.6875 
z
" id="DejaVuSans-103"/>
      <path d="M 52 44.1875 
Q 55.375 50.25 60.0625 53.125 
Q 64.75 56 71.09375 56 
Q 79.640625 56 84.28125 50.015625 
Q 88.921875 44.046875 88.921875 33.015625 
L 88.921875 0 
L 79.890625 0 
L 79.890625 32.71875 
Q 79.890625 40.578125 77.09375 44.375 
Q 74.3125 48.1875 68.609375 48.1875 
Q 61.625 48.1875 57.5625 43.546875 
Q 53.515625 38.921875 53.515625 30.90625 
L 53.515625 0 
L 44.484375 0 
L 44.484375 32.71875 
Q 44.484375 40.625 41.703125 44.40625 
Q 38.921875 48.1875 33.109375 48.1875 
Q 26.21875 48.1875 22.15625 43.53125 
Q 18.109375 38.875 18.109375 30.90625 
L 18.109375 0 
L 9.078125 0 
L 9.078125 54.6875 
L 18.109375 54.6875 
L 18.109375 46.1875 
Q 21.1875 51.21875 25.484375 53.609375 
Q 29.78125 56 35.6875 56 
Q 41.65625 56 45.828125 52.96875 
Q 50 49.953125 52 44.1875 
z
" id="DejaVuSans-109"/>
      <path d="M 37.109375 75.984375 
L 37.109375 68.5 
L 28.515625 68.5 
Q 23.6875 68.5 21.796875 66.546875 
Q 19.921875 64.59375 19.921875 59.515625 
L 19.921875 54.6875 
L 34.71875 54.6875 
L 34.71875 47.703125 
L 19.921875 47.703125 
L 19.921875 0 
L 10.890625 0 
L 10.890625 47.703125 
L 2.296875 47.703125 
L 2.296875 54.6875 
L 10.890625 54.6875 
L 10.890625 58.5 
Q 10.890625 67.625 15.140625 71.796875 
Q 19.390625 75.984375 28.609375 75.984375 
z
" id="DejaVuSans-102"/>
      <path d="M 54.890625 33.015625 
L 54.890625 0 
L 45.90625 0 
L 45.90625 32.71875 
Q 45.90625 40.484375 42.875 44.328125 
Q 39.84375 48.1875 33.796875 48.1875 
Q 26.515625 48.1875 22.3125 43.546875 
Q 18.109375 38.921875 18.109375 30.90625 
L 18.109375 0 
L 9.078125 0 
L 9.078125 75.984375 
L 18.109375 75.984375 
L 18.109375 46.1875 
Q 21.34375 51.125 25.703125 53.5625 
Q 30.078125 56 35.796875 56 
Q 45.21875 56 50.046875 50.171875 
Q 54.890625 44.34375 54.890625 33.015625 
z
" id="DejaVuSans-104"/>
     </defs>
     <use xlink:href="#DejaVuSans-72"/>
     <use x="75.195312" xlink:href="#DejaVuSans-105"/>
     <use x="102.978516" xlink:href="#DejaVuSans-115"/>
     <use x="155.078125" xlink:href="#DejaVuSans-116"/>
     <use x="194.287109" xlink:href="#DejaVuSans-111"/>
     <use x="255.46875" xlink:href="#DejaVuSans-103"/>
     <use x="318.945312" xlink:href="#DejaVuSans-114"/>
     <use x="360.058594" xlink:href="#DejaVuSans-97"/>
     <use x="421.337891" xlink:href="#DejaVuSans-109"/>
     <use x="518.75" xlink:href="#DejaVuSans-32"/>
     <use x="550.537109" xlink:href="#DejaVuSans-111"/>
     <use x="611.71875" xlink:href="#DejaVuSans-102"/>
     <use x="646.923828" xlink:href="#DejaVuSans-32"/>
     <use x="678.710938" xlink:href="#DejaVuSans-116"/>
     <use x="717.919922" xlink:href="#DejaVuSans-104"/>
     <use x="781.298828" xlink:href="#DejaVuSans-101"/>
     <use x="842.822266" xlink:href="#DejaVuSans-32"/>
     <use x="874.609375" xlink:href="#DejaVuSans-116"/>
     <use x="913.818359" xlink:href="#DejaVuSans-101"/>
     <use x="975.341797" xlink:href="#DejaVuSans-115"/>
     <use x="1027.441406" xlink:href="#DejaVuSans-116"/>
     <use x="1066.650391" xlink:href="#DejaVuSans-32"/>
     <use x="1098.4375" xlink:href="#DejaVuSans-101"/>
     <use x="1159.960938" xlink:href="#DejaVuSans-114"/>
     <use x="1199.324219" xlink:href="#DejaVuSans-114"/>
     <use x="1238.1875" xlink:href="#DejaVuSans-111"/>
     <use x="1299.369141" xlink:href="#DejaVuSans-114"/>
     <use x="1340.482422" xlink:href="#DejaVuSans-115"/>
    </g>
    <!-- on the ESOL data -->
    <g transform="translate(169.1775 15.122625)scale(0.12 -0.12)">
     <defs>
      <path d="M 53.515625 70.515625 
L 53.515625 60.890625 
Q 47.90625 63.578125 42.921875 64.890625 
Q 37.9375 66.21875 33.296875 66.21875 
Q 25.25 66.21875 20.875 63.09375 
Q 16.5 59.96875 16.5 54.203125 
Q 16.5 49.359375 19.40625 46.890625 
Q 22.3125 44.4375 30.421875 42.921875 
L 36.375 41.703125 
Q 47.40625 39.59375 52.65625 34.296875 
Q 57.90625 29 57.90625 20.125 
Q 57.90625 9.515625 50.796875 4.046875 
Q 43.703125 -1.421875 29.984375 -1.421875 
Q 24.8125 -1.421875 18.96875 -0.25 
Q 13.140625 0.921875 6.890625 3.21875 
L 6.890625 13.375 
Q 12.890625 10.015625 18.65625 8.296875 
Q 24.421875 6.59375 29.984375 6.59375 
Q 38.421875 6.59375 43.015625 9.90625 
Q 47.609375 13.234375 47.609375 19.390625 
Q 47.609375 24.75 44.3125 27.78125 
Q 41.015625 30.8125 33.5 32.328125 
L 27.484375 33.5 
Q 16.453125 35.6875 11.515625 40.375 
Q 6.59375 45.0625 6.59375 53.421875 
Q 6.59375 63.09375 13.40625 68.65625 
Q 20.21875 74.21875 32.171875 74.21875 
Q 37.3125 74.21875 42.625 73.28125 
Q 47.953125 72.359375 53.515625 70.515625 
z
" id="DejaVuSans-83"/>
      <path d="M 39.40625 66.21875 
Q 28.65625 66.21875 22.328125 58.203125 
Q 16.015625 50.203125 16.015625 36.375 
Q 16.015625 22.609375 22.328125 14.59375 
Q 28.65625 6.59375 39.40625 6.59375 
Q 50.140625 6.59375 56.421875 14.59375 
Q 62.703125 22.609375 62.703125 36.375 
Q 62.703125 50.203125 56.421875 58.203125 
Q 50.140625 66.21875 39.40625 66.21875 
z
M 39.40625 74.21875 
Q 54.734375 74.21875 63.90625 63.9375 
Q 73.09375 53.65625 73.09375 36.375 
Q 73.09375 19.140625 63.90625 8.859375 
Q 54.734375 -1.421875 39.40625 -1.421875 
Q 24.03125 -1.421875 14.8125 8.828125 
Q 5.609375 19.09375 5.609375 36.375 
Q 5.609375 53.65625 14.8125 63.9375 
Q 24.03125 74.21875 39.40625 74.21875 
z
" id="DejaVuSans-79"/>
      <path d="M 9.8125 72.90625 
L 19.671875 72.90625 
L 19.671875 8.296875 
L 55.171875 8.296875 
L 55.171875 0 
L 9.8125 0 
z
" id="DejaVuSans-76"/>
     </defs>
     <use xlink:href="#DejaVuSans-111"/>
     <use x="61.181641" xlink:href="#DejaVuSans-110"/>
     <use x="124.560547" xlink:href="#DejaVuSans-32"/>
     <use x="156.347656" xlink:href="#DejaVuSans-116"/>
     <use x="195.556641" xlink:href="#DejaVuSans-104"/>
     <use x="258.935547" xlink:href="#DejaVuSans-101"/>
     <use x="320.458984" xlink:href="#DejaVuSans-32"/>
     <use x="352.246094" xlink:href="#DejaVuSans-69"/>
     <use x="415.429688" xlink:href="#DejaVuSans-83"/>
     <use x="478.90625" xlink:href="#DejaVuSans-79"/>
     <use x="557.617188" xlink:href="#DejaVuSans-76"/>
     <use x="613.330078" xlink:href="#DejaVuSans-32"/>
     <use x="645.117188" xlink:href="#DejaVuSans-100"/>
     <use x="708.59375" xlink:href="#DejaVuSans-97"/>
     <use x="769.873047" xlink:href="#DejaVuSans-116"/>
     <use x="809.082031" xlink:href="#DejaVuSans-97"/>
    </g>
    <!-- using the Maxsmi model -->
    <g transform="translate(147.900937 28.56)scale(0.12 -0.12)">
     <defs>
      <path d="M 9.8125 72.90625 
L 24.515625 72.90625 
L 43.109375 23.296875 
L 61.8125 72.90625 
L 76.515625 72.90625 
L 76.515625 0 
L 66.890625 0 
L 66.890625 64.015625 
L 48.09375 14.015625 
L 38.1875 14.015625 
L 19.390625 64.015625 
L 19.390625 0 
L 9.8125 0 
z
" id="DejaVuSans-77"/>
      <path d="M 54.890625 54.6875 
L 35.109375 28.078125 
L 55.90625 0 
L 45.3125 0 
L 29.390625 21.484375 
L 13.484375 0 
L 2.875 0 
L 24.125 28.609375 
L 4.6875 54.6875 
L 15.28125 54.6875 
L 29.78125 35.203125 
L 44.28125 54.6875 
z
" id="DejaVuSans-120"/>
     </defs>
     <use xlink:href="#DejaVuSans-117"/>
     <use x="63.378906" xlink:href="#DejaVuSans-115"/>
     <use x="115.478516" xlink:href="#DejaVuSans-105"/>
     <use x="143.261719" xlink:href="#DejaVuSans-110"/>
     <use x="206.640625" xlink:href="#DejaVuSans-103"/>
     <use x="270.117188" xlink:href="#DejaVuSans-32"/>
     <use x="301.904297" xlink:href="#DejaVuSans-116"/>
     <use x="341.113281" xlink:href="#DejaVuSans-104"/>
     <use x="404.492188" xlink:href="#DejaVuSans-101"/>
     <use x="466.015625" xlink:href="#DejaVuSans-32"/>
     <use x="497.802734" xlink:href="#DejaVuSans-77"/>
     <use x="584.082031" xlink:href="#DejaVuSans-97"/>
     <use x="645.361328" xlink:href="#DejaVuSans-120"/>
     <use x="704.541016" xlink:href="#DejaVuSans-115"/>
     <use x="756.640625" xlink:href="#DejaVuSans-109"/>
     <use x="854.052734" xlink:href="#DejaVuSans-105"/>
     <use x="881.835938" xlink:href="#DejaVuSans-32"/>
     <use x="913.623047" xlink:href="#DejaVuSans-109"/>
     <use x="1011.035156" xlink:href="#DejaVuSans-111"/>
     <use x="1072.216797" xlink:href="#DejaVuSans-100"/>
     <use x="1135.693359" xlink:href="#DejaVuSans-101"/>
     <use x="1197.216797" xlink:href="#DejaVuSans-108"/>
    </g>
   </g>
   <g id="legend_1">
    <g id="patch_85">
     <path d="M 256.951563 71.91625 
L 381.8 71.91625 
Q 383.8 71.91625 383.8 69.91625 
L 383.8 41.56 
Q 383.8 39.56 381.8 39.56 
L 256.951563 39.56 
Q 254.951563 39.56 254.951563 41.56 
L 254.951563 69.91625 
Q 254.951563 71.91625 256.951563 71.91625 
z
" style="fill:#ffffff;opacity:0.8;stroke:#cccccc;stroke-linejoin:miter;"/>
    </g>
    <g id="patch_86">
     <path d="M 258.951563 51.158437 
L 278.951563 51.158437 
L 278.951563 44.158437 
L 258.951563 44.158437 
z
" style="fill:#1f77b4;opacity:0.5;"/>
    </g>
    <g id="text_20">
     <!-- canonical -->
     <g transform="translate(286.951563 51.158437)scale(0.1 -0.1)">
      <use xlink:href="#DejaVuSans-99"/>
      <use x="54.980469" xlink:href="#DejaVuSans-97"/>
      <use x="116.259766" xlink:href="#DejaVuSans-110"/>
      <use x="179.638672" xlink:href="#DejaVuSans-111"/>
      <use x="240.820312" xlink:href="#DejaVuSans-110"/>
      <use x="304.199219" xlink:href="#DejaVuSans-105"/>
      <use x="331.982422" xlink:href="#DejaVuSans-99"/>
      <use x="386.962891" xlink:href="#DejaVuSans-97"/>
      <use x="448.242188" xlink:href="#DejaVuSans-108"/>
     </g>
    </g>
    <g id="patch_87">
     <path d="M 258.951563 65.836562 
L 278.951563 65.836562 
L 278.951563 58.836562 
L 258.951563 58.836562 
z
" style="fill:#ff7f0e;opacity:0.5;"/>
    </g>
    <g id="text_21">
     <!-- ensemble learning -->
     <g transform="translate(286.951563 65.836562)scale(0.1 -0.1)">
      <use xlink:href="#DejaVuSans-101"/>
      <use x="61.523438" xlink:href="#DejaVuSans-110"/>
      <use x="124.902344" xlink:href="#DejaVuSans-115"/>
      <use x="177.001953" xlink:href="#DejaVuSans-101"/>
      <use x="238.525391" xlink:href="#DejaVuSans-109"/>
      <use x="335.9375" xlink:href="#DejaVuSans-98"/>
      <use x="399.414062" xlink:href="#DejaVuSans-108"/>
      <use x="427.197266" xlink:href="#DejaVuSans-101"/>
      <use x="488.720703" xlink:href="#DejaVuSans-32"/>
      <use x="520.507812" xlink:href="#DejaVuSans-108"/>
      <use x="548.291016" xlink:href="#DejaVuSans-101"/>
      <use x="609.814453" xlink:href="#DejaVuSans-97"/>
      <use x="671.09375" xlink:href="#DejaVuSans-114"/>
      <use x="710.457031" xlink:href="#DejaVuSans-110"/>
      <use x="773.835938" xlink:href="#DejaVuSans-105"/>
      <use x="801.619141" xlink:href="#DejaVuSans-110"/>
      <use x="864.998047" xlink:href="#DejaVuSans-103"/>
     </g>
    </g>
   </g>
  </g>
 </g>
 <defs>
  <clipPath id="p5bd0225cb0">
   <rect height="217.44" width="334.8" x="54" y="34.56"/>
  </clipPath>
 </defs>
</svg>
