<?xml version="1.0" encoding="utf-8" standalone="no"?>
<!DOCTYPE svg PUBLIC "-//W3C//DTD SVG 1.1//EN"
  "http://www.w3.org/Graphics/SVG/1.1/DTD/svg11.dtd">
<!-- Created with matplotlib (https://matplotlib.org/) -->
<svg height="288pt" version="1.1" viewBox="0 0 432 288" width="432pt" xmlns="http://www.w3.org/2000/svg" xmlns:xlink="http://www.w3.org/1999/xlink">
 <metadata>
  <rdf:RDF xmlns:cc="http://creativecommons.org/ns#" xmlns:dc="http://purl.org/dc/elements/1.1/" xmlns:rdf="http://www.w3.org/1999/02/22-rdf-syntax-ns#">
   <cc:Work>
    <dc:type rdf:resource="http://purl.org/dc/dcmitype/StillImage"/>
    <dc:date>2021-11-10T14:19:16.263177</dc:date>
    <dc:format>image/svg+xml</dc:format>
    <dc:creator>
     <cc:Agent>
      <dc:title>Matplotlib v3.3.2, https://matplotlib.org/</dc:title>
     </cc:Agent>
    </dc:creator>
   </cc:Work>
  </rdf:RDF>
 </metadata>
 <defs>
  <style type="text/css">*{stroke-linecap:butt;stroke-linejoin:round;}</style>
 </defs>
 <g id="figure_1">
  <g id="patch_1">
   <path d="M 0 288 
L 432 288 
L 432 0 
L 0 0 
z
" style="fill:#ffffff;"/>
  </g>
  <g id="axes_1">
   <g id="patch_2">
    <path d="M 54 252 
L 388.8 252 
L 388.8 34.56 
L 54 34.56 
z
" style="fill:#ffffff;"/>
   </g>
   <g id="matplotlib.axis_1">
    <g id="xtick_1">
     <g id="line2d_1">
      <defs>
       <path d="M 0 0 
L 0 3.5 
" id="mf599136451" style="stroke:#000000;stroke-width:0.8;"/>
      </defs>
      <g>
       <use style="stroke:#000000;stroke-width:0.8;" x="69.218182" xlink:href="#mf599136451" y="252"/>
      </g>
     </g>
     <g id="text_1">
      <!-- 100 -->
      <g transform="translate(59.674432 266.598437)scale(0.1 -0.1)">
       <defs>
        <path d="M 12.40625 8.296875 
L 28.515625 8.296875 
L 28.515625 63.921875 
L 10.984375 60.40625 
L 10.984375 69.390625 
L 28.421875 72.90625 
L 38.28125 72.90625 
L 38.28125 8.296875 
L 54.390625 8.296875 
L 54.390625 0 
L 12.40625 0 
z
" id="DejaVuSans-49"/>
        <path d="M 31.78125 66.40625 
Q 24.171875 66.40625 20.328125 58.90625 
Q 16.5 51.421875 16.5 36.375 
Q 16.5 21.390625 20.328125 13.890625 
Q 24.171875 6.390625 31.78125 6.390625 
Q 39.453125 6.390625 43.28125 13.890625 
Q 47.125 21.390625 47.125 36.375 
Q 47.125 51.421875 43.28125 58.90625 
Q 39.453125 66.40625 31.78125 66.40625 
z
M 31.78125 74.21875 
Q 44.046875 74.21875 50.515625 64.515625 
Q 56.984375 54.828125 56.984375 36.375 
Q 56.984375 17.96875 50.515625 8.265625 
Q 44.046875 -1.421875 31.78125 -1.421875 
Q 19.53125 -1.421875 13.0625 8.265625 
Q 6.59375 17.96875 6.59375 36.375 
Q 6.59375 54.828125 13.0625 64.515625 
Q 19.53125 74.21875 31.78125 74.21875 
z
" id="DejaVuSans-48"/>
       </defs>
       <use xlink:href="#DejaVuSans-49"/>
       <use x="63.623047" xlink:href="#DejaVuSans-48"/>
       <use x="127.246094" xlink:href="#DejaVuSans-48"/>
      </g>
     </g>
    </g>
    <g id="xtick_2">
     <g id="line2d_2">
      <g>
       <use style="stroke:#000000;stroke-width:0.8;" x="99.690822" xlink:href="#mf599136451" y="252"/>
      </g>
     </g>
     <g id="text_2">
      <!-- 90 -->
      <g transform="translate(93.328322 266.598437)scale(0.1 -0.1)">
       <defs>
        <path d="M 10.984375 1.515625 
L 10.984375 10.5 
Q 14.703125 8.734375 18.5 7.8125 
Q 22.3125 6.890625 25.984375 6.890625 
Q 35.75 6.890625 40.890625 13.453125 
Q 46.046875 20.015625 46.78125 33.40625 
Q 43.953125 29.203125 39.59375 26.953125 
Q 35.25 24.703125 29.984375 24.703125 
Q 19.046875 24.703125 12.671875 31.3125 
Q 6.296875 37.9375 6.296875 49.421875 
Q 6.296875 60.640625 12.9375 67.421875 
Q 19.578125 74.21875 30.609375 74.21875 
Q 43.265625 74.21875 49.921875 64.515625 
Q 56.59375 54.828125 56.59375 36.375 
Q 56.59375 19.140625 48.40625 8.859375 
Q 40.234375 -1.421875 26.421875 -1.421875 
Q 22.703125 -1.421875 18.890625 -0.6875 
Q 15.09375 0.046875 10.984375 1.515625 
z
M 30.609375 32.421875 
Q 37.25 32.421875 41.125 36.953125 
Q 45.015625 41.5 45.015625 49.421875 
Q 45.015625 57.28125 41.125 61.84375 
Q 37.25 66.40625 30.609375 66.40625 
Q 23.96875 66.40625 20.09375 61.84375 
Q 16.21875 57.28125 16.21875 49.421875 
Q 16.21875 41.5 20.09375 36.953125 
Q 23.96875 32.421875 30.609375 32.421875 
z
" id="DejaVuSans-57"/>
       </defs>
       <use xlink:href="#DejaVuSans-57"/>
       <use x="63.623047" xlink:href="#DejaVuSans-48"/>
      </g>
     </g>
    </g>
    <g id="xtick_3">
     <g id="line2d_3">
      <g>
       <use style="stroke:#000000;stroke-width:0.8;" x="130.163463" xlink:href="#mf599136451" y="252"/>
      </g>
     </g>
     <g id="text_3">
      <!-- 80 -->
      <g transform="translate(123.800963 266.598437)scale(0.1 -0.1)">
       <defs>
        <path d="M 31.78125 34.625 
Q 24.75 34.625 20.71875 30.859375 
Q 16.703125 27.09375 16.703125 20.515625 
Q 16.703125 13.921875 20.71875 10.15625 
Q 24.75 6.390625 31.78125 6.390625 
Q 38.8125 6.390625 42.859375 10.171875 
Q 46.921875 13.96875 46.921875 20.515625 
Q 46.921875 27.09375 42.890625 30.859375 
Q 38.875 34.625 31.78125 34.625 
z
M 21.921875 38.8125 
Q 15.578125 40.375 12.03125 44.71875 
Q 8.5 49.078125 8.5 55.328125 
Q 8.5 64.0625 14.71875 69.140625 
Q 20.953125 74.21875 31.78125 74.21875 
Q 42.671875 74.21875 48.875 69.140625 
Q 55.078125 64.0625 55.078125 55.328125 
Q 55.078125 49.078125 51.53125 44.71875 
Q 48 40.375 41.703125 38.8125 
Q 48.828125 37.15625 52.796875 32.3125 
Q 56.78125 27.484375 56.78125 20.515625 
Q 56.78125 9.90625 50.3125 4.234375 
Q 43.84375 -1.421875 31.78125 -1.421875 
Q 19.734375 -1.421875 13.25 4.234375 
Q 6.78125 9.90625 6.78125 20.515625 
Q 6.78125 27.484375 10.78125 32.3125 
Q 14.796875 37.15625 21.921875 38.8125 
z
M 18.3125 54.390625 
Q 18.3125 48.734375 21.84375 45.5625 
Q 25.390625 42.390625 31.78125 42.390625 
Q 38.140625 42.390625 41.71875 45.5625 
Q 45.3125 48.734375 45.3125 54.390625 
Q 45.3125 60.0625 41.71875 63.234375 
Q 38.140625 66.40625 31.78125 66.40625 
Q 25.390625 66.40625 21.84375 63.234375 
Q 18.3125 60.0625 18.3125 54.390625 
z
" id="DejaVuSans-56"/>
       </defs>
       <use xlink:href="#DejaVuSans-56"/>
       <use x="63.623047" xlink:href="#DejaVuSans-48"/>
      </g>
     </g>
    </g>
    <g id="xtick_4">
     <g id="line2d_4">
      <g>
       <use style="stroke:#000000;stroke-width:0.8;" x="160.636104" xlink:href="#mf599136451" y="252"/>
      </g>
     </g>
     <g id="text_4">
      <!-- 70 -->
      <g transform="translate(154.273604 266.598437)scale(0.1 -0.1)">
       <defs>
        <path d="M 8.203125 72.90625 
L 55.078125 72.90625 
L 55.078125 68.703125 
L 28.609375 0 
L 18.3125 0 
L 43.21875 64.59375 
L 8.203125 64.59375 
z
" id="DejaVuSans-55"/>
       </defs>
       <use xlink:href="#DejaVuSans-55"/>
       <use x="63.623047" xlink:href="#DejaVuSans-48"/>
      </g>
     </g>
    </g>
    <g id="xtick_5">
     <g id="line2d_5">
      <g>
       <use style="stroke:#000000;stroke-width:0.8;" x="191.108744" xlink:href="#mf599136451" y="252"/>
      </g>
     </g>
     <g id="text_5">
      <!-- 60 -->
      <g transform="translate(184.746244 266.598437)scale(0.1 -0.1)">
       <defs>
        <path d="M 33.015625 40.375 
Q 26.375 40.375 22.484375 35.828125 
Q 18.609375 31.296875 18.609375 23.390625 
Q 18.609375 15.53125 22.484375 10.953125 
Q 26.375 6.390625 33.015625 6.390625 
Q 39.65625 6.390625 43.53125 10.953125 
Q 47.40625 15.53125 47.40625 23.390625 
Q 47.40625 31.296875 43.53125 35.828125 
Q 39.65625 40.375 33.015625 40.375 
z
M 52.59375 71.296875 
L 52.59375 62.3125 
Q 48.875 64.0625 45.09375 64.984375 
Q 41.3125 65.921875 37.59375 65.921875 
Q 27.828125 65.921875 22.671875 59.328125 
Q 17.53125 52.734375 16.796875 39.40625 
Q 19.671875 43.65625 24.015625 45.921875 
Q 28.375 48.1875 33.59375 48.1875 
Q 44.578125 48.1875 50.953125 41.515625 
Q 57.328125 34.859375 57.328125 23.390625 
Q 57.328125 12.15625 50.6875 5.359375 
Q 44.046875 -1.421875 33.015625 -1.421875 
Q 20.359375 -1.421875 13.671875 8.265625 
Q 6.984375 17.96875 6.984375 36.375 
Q 6.984375 53.65625 15.1875 63.9375 
Q 23.390625 74.21875 37.203125 74.21875 
Q 40.921875 74.21875 44.703125 73.484375 
Q 48.484375 72.75 52.59375 71.296875 
z
" id="DejaVuSans-54"/>
       </defs>
       <use xlink:href="#DejaVuSans-54"/>
       <use x="63.623047" xlink:href="#DejaVuSans-48"/>
      </g>
     </g>
    </g>
    <g id="xtick_6">
     <g id="line2d_6">
      <g>
       <use style="stroke:#000000;stroke-width:0.8;" x="221.581385" xlink:href="#mf599136451" y="252"/>
      </g>
     </g>
     <g id="text_6">
      <!-- 50 -->
      <g transform="translate(215.218885 266.598437)scale(0.1 -0.1)">
       <defs>
        <path d="M 10.796875 72.90625 
L 49.515625 72.90625 
L 49.515625 64.59375 
L 19.828125 64.59375 
L 19.828125 46.734375 
Q 21.96875 47.46875 24.109375 47.828125 
Q 26.265625 48.1875 28.421875 48.1875 
Q 40.625 48.1875 47.75 41.5 
Q 54.890625 34.8125 54.890625 23.390625 
Q 54.890625 11.625 47.5625 5.09375 
Q 40.234375 -1.421875 26.90625 -1.421875 
Q 22.3125 -1.421875 17.546875 -0.640625 
Q 12.796875 0.140625 7.71875 1.703125 
L 7.71875 11.625 
Q 12.109375 9.234375 16.796875 8.0625 
Q 21.484375 6.890625 26.703125 6.890625 
Q 35.15625 6.890625 40.078125 11.328125 
Q 45.015625 15.765625 45.015625 23.390625 
Q 45.015625 31 40.078125 35.4375 
Q 35.15625 39.890625 26.703125 39.890625 
Q 22.75 39.890625 18.8125 39.015625 
Q 14.890625 38.140625 10.796875 36.28125 
z
" id="DejaVuSans-53"/>
       </defs>
       <use xlink:href="#DejaVuSans-53"/>
       <use x="63.623047" xlink:href="#DejaVuSans-48"/>
      </g>
     </g>
    </g>
    <g id="xtick_7">
     <g id="line2d_7">
      <g>
       <use style="stroke:#000000;stroke-width:0.8;" x="252.054025" xlink:href="#mf599136451" y="252"/>
      </g>
     </g>
     <g id="text_7">
      <!-- 40 -->
      <g transform="translate(245.691525 266.598437)scale(0.1 -0.1)">
       <defs>
        <path d="M 37.796875 64.3125 
L 12.890625 25.390625 
L 37.796875 25.390625 
z
M 35.203125 72.90625 
L 47.609375 72.90625 
L 47.609375 25.390625 
L 58.015625 25.390625 
L 58.015625 17.1875 
L 47.609375 17.1875 
L 47.609375 0 
L 37.796875 0 
L 37.796875 17.1875 
L 4.890625 17.1875 
L 4.890625 26.703125 
z
" id="DejaVuSans-52"/>
       </defs>
       <use xlink:href="#DejaVuSans-52"/>
       <use x="63.623047" xlink:href="#DejaVuSans-48"/>
      </g>
     </g>
    </g>
    <g id="xtick_8">
     <g id="line2d_8">
      <g>
       <use style="stroke:#000000;stroke-width:0.8;" x="282.526666" xlink:href="#mf599136451" y="252"/>
      </g>
     </g>
     <g id="text_8">
      <!-- 30 -->
      <g transform="translate(276.164166 266.598437)scale(0.1 -0.1)">
       <defs>
        <path d="M 40.578125 39.3125 
Q 47.65625 37.796875 51.625 33 
Q 55.609375 28.21875 55.609375 21.1875 
Q 55.609375 10.40625 48.1875 4.484375 
Q 40.765625 -1.421875 27.09375 -1.421875 
Q 22.515625 -1.421875 17.65625 -0.515625 
Q 12.796875 0.390625 7.625 2.203125 
L 7.625 11.71875 
Q 11.71875 9.328125 16.59375 8.109375 
Q 21.484375 6.890625 26.8125 6.890625 
Q 36.078125 6.890625 40.9375 10.546875 
Q 45.796875 14.203125 45.796875 21.1875 
Q 45.796875 27.640625 41.28125 31.265625 
Q 36.765625 34.90625 28.71875 34.90625 
L 20.21875 34.90625 
L 20.21875 43.015625 
L 29.109375 43.015625 
Q 36.375 43.015625 40.234375 45.921875 
Q 44.09375 48.828125 44.09375 54.296875 
Q 44.09375 59.90625 40.109375 62.90625 
Q 36.140625 65.921875 28.71875 65.921875 
Q 24.65625 65.921875 20.015625 65.03125 
Q 15.375 64.15625 9.8125 62.3125 
L 9.8125 71.09375 
Q 15.4375 72.65625 20.34375 73.4375 
Q 25.25 74.21875 29.59375 74.21875 
Q 40.828125 74.21875 47.359375 69.109375 
Q 53.90625 64.015625 53.90625 55.328125 
Q 53.90625 49.265625 50.4375 45.09375 
Q 46.96875 40.921875 40.578125 39.3125 
z
" id="DejaVuSans-51"/>
       </defs>
       <use xlink:href="#DejaVuSans-51"/>
       <use x="63.623047" xlink:href="#DejaVuSans-48"/>
      </g>
     </g>
    </g>
    <g id="xtick_9">
     <g id="line2d_9">
      <g>
       <use style="stroke:#000000;stroke-width:0.8;" x="312.999307" xlink:href="#mf599136451" y="252"/>
      </g>
     </g>
     <g id="text_9">
      <!-- 20 -->
      <g transform="translate(306.636807 266.598437)scale(0.1 -0.1)">
       <defs>
        <path d="M 19.1875 8.296875 
L 53.609375 8.296875 
L 53.609375 0 
L 7.328125 0 
L 7.328125 8.296875 
Q 12.9375 14.109375 22.625 23.890625 
Q 32.328125 33.6875 34.8125 36.53125 
Q 39.546875 41.84375 41.421875 45.53125 
Q 43.3125 49.21875 43.3125 52.78125 
Q 43.3125 58.59375 39.234375 62.25 
Q 35.15625 65.921875 28.609375 65.921875 
Q 23.96875 65.921875 18.8125 64.3125 
Q 13.671875 62.703125 7.8125 59.421875 
L 7.8125 69.390625 
Q 13.765625 71.78125 18.9375 73 
Q 24.125 74.21875 28.421875 74.21875 
Q 39.75 74.21875 46.484375 68.546875 
Q 53.21875 62.890625 53.21875 53.421875 
Q 53.21875 48.921875 51.53125 44.890625 
Q 49.859375 40.875 45.40625 35.40625 
Q 44.1875 33.984375 37.640625 27.21875 
Q 31.109375 20.453125 19.1875 8.296875 
z
" id="DejaVuSans-50"/>
       </defs>
       <use xlink:href="#DejaVuSans-50"/>
       <use x="63.623047" xlink:href="#DejaVuSans-48"/>
      </g>
     </g>
    </g>
    <g id="xtick_10">
     <g id="line2d_10">
      <g>
       <use style="stroke:#000000;stroke-width:0.8;" x="343.471947" xlink:href="#mf599136451" y="252"/>
      </g>
     </g>
     <g id="text_10">
      <!-- 10 -->
      <g transform="translate(337.109447 266.598437)scale(0.1 -0.1)">
       <use xlink:href="#DejaVuSans-49"/>
       <use x="63.623047" xlink:href="#DejaVuSans-48"/>
      </g>
     </g>
    </g>
    <g id="xtick_11">
     <g id="line2d_11">
      <g>
       <use style="stroke:#000000;stroke-width:0.8;" x="373.944588" xlink:href="#mf599136451" y="252"/>
      </g>
     </g>
     <g id="text_11">
      <!-- 0 -->
      <g transform="translate(370.763338 266.598437)scale(0.1 -0.1)">
       <use xlink:href="#DejaVuSans-48"/>
      </g>
     </g>
    </g>
    <g id="text_12">
     <!-- % of compounds ranked by uncertainty -->
     <g transform="translate(122.748437 280.276563)scale(0.1 -0.1)">
      <defs>
       <path d="M 72.703125 32.078125 
Q 68.453125 32.078125 66.03125 28.46875 
Q 63.625 24.859375 63.625 18.40625 
Q 63.625 12.0625 66.03125 8.421875 
Q 68.453125 4.78125 72.703125 4.78125 
Q 76.859375 4.78125 79.265625 8.421875 
Q 81.6875 12.0625 81.6875 18.40625 
Q 81.6875 24.8125 79.265625 28.4375 
Q 76.859375 32.078125 72.703125 32.078125 
z
M 72.703125 38.28125 
Q 80.421875 38.28125 84.953125 32.90625 
Q 89.5 27.546875 89.5 18.40625 
Q 89.5 9.28125 84.9375 3.921875 
Q 80.375 -1.421875 72.703125 -1.421875 
Q 64.890625 -1.421875 60.34375 3.921875 
Q 55.8125 9.28125 55.8125 18.40625 
Q 55.8125 27.59375 60.375 32.9375 
Q 64.9375 38.28125 72.703125 38.28125 
z
M 22.3125 68.015625 
Q 18.109375 68.015625 15.6875 64.375 
Q 13.28125 60.75 13.28125 54.390625 
Q 13.28125 47.953125 15.671875 44.328125 
Q 18.0625 40.71875 22.3125 40.71875 
Q 26.5625 40.71875 28.96875 44.328125 
Q 31.390625 47.953125 31.390625 54.390625 
Q 31.390625 60.6875 28.953125 64.34375 
Q 26.515625 68.015625 22.3125 68.015625 
z
M 66.40625 74.21875 
L 74.21875 74.21875 
L 28.609375 -1.421875 
L 20.796875 -1.421875 
z
M 22.3125 74.21875 
Q 30.03125 74.21875 34.609375 68.875 
Q 39.203125 63.53125 39.203125 54.390625 
Q 39.203125 45.171875 34.640625 39.84375 
Q 30.078125 34.515625 22.3125 34.515625 
Q 14.546875 34.515625 10.03125 39.859375 
Q 5.515625 45.21875 5.515625 54.390625 
Q 5.515625 63.484375 10.046875 68.84375 
Q 14.59375 74.21875 22.3125 74.21875 
z
" id="DejaVuSans-37"/>
       <path id="DejaVuSans-32"/>
       <path d="M 30.609375 48.390625 
Q 23.390625 48.390625 19.1875 42.75 
Q 14.984375 37.109375 14.984375 27.296875 
Q 14.984375 17.484375 19.15625 11.84375 
Q 23.34375 6.203125 30.609375 6.203125 
Q 37.796875 6.203125 41.984375 11.859375 
Q 46.1875 17.53125 46.1875 27.296875 
Q 46.1875 37.015625 41.984375 42.703125 
Q 37.796875 48.390625 30.609375 48.390625 
z
M 30.609375 56 
Q 42.328125 56 49.015625 48.375 
Q 55.71875 40.765625 55.71875 27.296875 
Q 55.71875 13.875 49.015625 6.21875 
Q 42.328125 -1.421875 30.609375 -1.421875 
Q 18.84375 -1.421875 12.171875 6.21875 
Q 5.515625 13.875 5.515625 27.296875 
Q 5.515625 40.765625 12.171875 48.375 
Q 18.84375 56 30.609375 56 
z
" id="DejaVuSans-111"/>
       <path d="M 37.109375 75.984375 
L 37.109375 68.5 
L 28.515625 68.5 
Q 23.6875 68.5 21.796875 66.546875 
Q 19.921875 64.59375 19.921875 59.515625 
L 19.921875 54.6875 
L 34.71875 54.6875 
L 34.71875 47.703125 
L 19.921875 47.703125 
L 19.921875 0 
L 10.890625 0 
L 10.890625 47.703125 
L 2.296875 47.703125 
L 2.296875 54.6875 
L 10.890625 54.6875 
L 10.890625 58.5 
Q 10.890625 67.625 15.140625 71.796875 
Q 19.390625 75.984375 28.609375 75.984375 
z
" id="DejaVuSans-102"/>
       <path d="M 48.78125 52.59375 
L 48.78125 44.1875 
Q 44.96875 46.296875 41.140625 47.34375 
Q 37.3125 48.390625 33.40625 48.390625 
Q 24.65625 48.390625 19.8125 42.84375 
Q 14.984375 37.3125 14.984375 27.296875 
Q 14.984375 17.28125 19.8125 11.734375 
Q 24.65625 6.203125 33.40625 6.203125 
Q 37.3125 6.203125 41.140625 7.25 
Q 44.96875 8.296875 48.78125 10.40625 
L 48.78125 2.09375 
Q 45.015625 0.34375 40.984375 -0.53125 
Q 36.96875 -1.421875 32.421875 -1.421875 
Q 20.0625 -1.421875 12.78125 6.34375 
Q 5.515625 14.109375 5.515625 27.296875 
Q 5.515625 40.671875 12.859375 48.328125 
Q 20.21875 56 33.015625 56 
Q 37.15625 56 41.109375 55.140625 
Q 45.0625 54.296875 48.78125 52.59375 
z
" id="DejaVuSans-99"/>
       <path d="M 52 44.1875 
Q 55.375 50.25 60.0625 53.125 
Q 64.75 56 71.09375 56 
Q 79.640625 56 84.28125 50.015625 
Q 88.921875 44.046875 88.921875 33.015625 
L 88.921875 0 
L 79.890625 0 
L 79.890625 32.71875 
Q 79.890625 40.578125 77.09375 44.375 
Q 74.3125 48.1875 68.609375 48.1875 
Q 61.625 48.1875 57.5625 43.546875 
Q 53.515625 38.921875 53.515625 30.90625 
L 53.515625 0 
L 44.484375 0 
L 44.484375 32.71875 
Q 44.484375 40.625 41.703125 44.40625 
Q 38.921875 48.1875 33.109375 48.1875 
Q 26.21875 48.1875 22.15625 43.53125 
Q 18.109375 38.875 18.109375 30.90625 
L 18.109375 0 
L 9.078125 0 
L 9.078125 54.6875 
L 18.109375 54.6875 
L 18.109375 46.1875 
Q 21.1875 51.21875 25.484375 53.609375 
Q 29.78125 56 35.6875 56 
Q 41.65625 56 45.828125 52.96875 
Q 50 49.953125 52 44.1875 
z
" id="DejaVuSans-109"/>
       <path d="M 18.109375 8.203125 
L 18.109375 -20.796875 
L 9.078125 -20.796875 
L 9.078125 54.6875 
L 18.109375 54.6875 
L 18.109375 46.390625 
Q 20.953125 51.265625 25.265625 53.625 
Q 29.59375 56 35.59375 56 
Q 45.5625 56 51.78125 48.09375 
Q 58.015625 40.1875 58.015625 27.296875 
Q 58.015625 14.40625 51.78125 6.484375 
Q 45.5625 -1.421875 35.59375 -1.421875 
Q 29.59375 -1.421875 25.265625 0.953125 
Q 20.953125 3.328125 18.109375 8.203125 
z
M 48.6875 27.296875 
Q 48.6875 37.203125 44.609375 42.84375 
Q 40.53125 48.484375 33.40625 48.484375 
Q 26.265625 48.484375 22.1875 42.84375 
Q 18.109375 37.203125 18.109375 27.296875 
Q 18.109375 17.390625 22.1875 11.75 
Q 26.265625 6.109375 33.40625 6.109375 
Q 40.53125 6.109375 44.609375 11.75 
Q 48.6875 17.390625 48.6875 27.296875 
z
" id="DejaVuSans-112"/>
       <path d="M 8.5 21.578125 
L 8.5 54.6875 
L 17.484375 54.6875 
L 17.484375 21.921875 
Q 17.484375 14.15625 20.5 10.265625 
Q 23.53125 6.390625 29.59375 6.390625 
Q 36.859375 6.390625 41.078125 11.03125 
Q 45.3125 15.671875 45.3125 23.6875 
L 45.3125 54.6875 
L 54.296875 54.6875 
L 54.296875 0 
L 45.3125 0 
L 45.3125 8.40625 
Q 42.046875 3.421875 37.71875 1 
Q 33.40625 -1.421875 27.6875 -1.421875 
Q 18.265625 -1.421875 13.375 4.4375 
Q 8.5 10.296875 8.5 21.578125 
z
M 31.109375 56 
z
" id="DejaVuSans-117"/>
       <path d="M 54.890625 33.015625 
L 54.890625 0 
L 45.90625 0 
L 45.90625 32.71875 
Q 45.90625 40.484375 42.875 44.328125 
Q 39.84375 48.1875 33.796875 48.1875 
Q 26.515625 48.1875 22.3125 43.546875 
Q 18.109375 38.921875 18.109375 30.90625 
L 18.109375 0 
L 9.078125 0 
L 9.078125 54.6875 
L 18.109375 54.6875 
L 18.109375 46.1875 
Q 21.34375 51.125 25.703125 53.5625 
Q 30.078125 56 35.796875 56 
Q 45.21875 56 50.046875 50.171875 
Q 54.890625 44.34375 54.890625 33.015625 
z
" id="DejaVuSans-110"/>
       <path d="M 45.40625 46.390625 
L 45.40625 75.984375 
L 54.390625 75.984375 
L 54.390625 0 
L 45.40625 0 
L 45.40625 8.203125 
Q 42.578125 3.328125 38.25 0.953125 
Q 33.9375 -1.421875 27.875 -1.421875 
Q 17.96875 -1.421875 11.734375 6.484375 
Q 5.515625 14.40625 5.515625 27.296875 
Q 5.515625 40.1875 11.734375 48.09375 
Q 17.96875 56 27.875 56 
Q 33.9375 56 38.25 53.625 
Q 42.578125 51.265625 45.40625 46.390625 
z
M 14.796875 27.296875 
Q 14.796875 17.390625 18.875 11.75 
Q 22.953125 6.109375 30.078125 6.109375 
Q 37.203125 6.109375 41.296875 11.75 
Q 45.40625 17.390625 45.40625 27.296875 
Q 45.40625 37.203125 41.296875 42.84375 
Q 37.203125 48.484375 30.078125 48.484375 
Q 22.953125 48.484375 18.875 42.84375 
Q 14.796875 37.203125 14.796875 27.296875 
z
" id="DejaVuSans-100"/>
       <path d="M 44.28125 53.078125 
L 44.28125 44.578125 
Q 40.484375 46.53125 36.375 47.5 
Q 32.28125 48.484375 27.875 48.484375 
Q 21.1875 48.484375 17.84375 46.4375 
Q 14.5 44.390625 14.5 40.28125 
Q 14.5 37.15625 16.890625 35.375 
Q 19.28125 33.59375 26.515625 31.984375 
L 29.59375 31.296875 
Q 39.15625 29.25 43.1875 25.515625 
Q 47.21875 21.78125 47.21875 15.09375 
Q 47.21875 7.46875 41.1875 3.015625 
Q 35.15625 -1.421875 24.609375 -1.421875 
Q 20.21875 -1.421875 15.453125 -0.5625 
Q 10.6875 0.296875 5.421875 2 
L 5.421875 11.28125 
Q 10.40625 8.6875 15.234375 7.390625 
Q 20.0625 6.109375 24.8125 6.109375 
Q 31.15625 6.109375 34.5625 8.28125 
Q 37.984375 10.453125 37.984375 14.40625 
Q 37.984375 18.0625 35.515625 20.015625 
Q 33.0625 21.96875 24.703125 23.78125 
L 21.578125 24.515625 
Q 13.234375 26.265625 9.515625 29.90625 
Q 5.8125 33.546875 5.8125 39.890625 
Q 5.8125 47.609375 11.28125 51.796875 
Q 16.75 56 26.8125 56 
Q 31.78125 56 36.171875 55.265625 
Q 40.578125 54.546875 44.28125 53.078125 
z
" id="DejaVuSans-115"/>
       <path d="M 41.109375 46.296875 
Q 39.59375 47.171875 37.8125 47.578125 
Q 36.03125 48 33.890625 48 
Q 26.265625 48 22.1875 43.046875 
Q 18.109375 38.09375 18.109375 28.8125 
L 18.109375 0 
L 9.078125 0 
L 9.078125 54.6875 
L 18.109375 54.6875 
L 18.109375 46.1875 
Q 20.953125 51.171875 25.484375 53.578125 
Q 30.03125 56 36.53125 56 
Q 37.453125 56 38.578125 55.875 
Q 39.703125 55.765625 41.0625 55.515625 
z
" id="DejaVuSans-114"/>
       <path d="M 34.28125 27.484375 
Q 23.390625 27.484375 19.1875 25 
Q 14.984375 22.515625 14.984375 16.5 
Q 14.984375 11.71875 18.140625 8.90625 
Q 21.296875 6.109375 26.703125 6.109375 
Q 34.1875 6.109375 38.703125 11.40625 
Q 43.21875 16.703125 43.21875 25.484375 
L 43.21875 27.484375 
z
M 52.203125 31.203125 
L 52.203125 0 
L 43.21875 0 
L 43.21875 8.296875 
Q 40.140625 3.328125 35.546875 0.953125 
Q 30.953125 -1.421875 24.3125 -1.421875 
Q 15.921875 -1.421875 10.953125 3.296875 
Q 6 8.015625 6 15.921875 
Q 6 25.140625 12.171875 29.828125 
Q 18.359375 34.515625 30.609375 34.515625 
L 43.21875 34.515625 
L 43.21875 35.40625 
Q 43.21875 41.609375 39.140625 45 
Q 35.0625 48.390625 27.6875 48.390625 
Q 23 48.390625 18.546875 47.265625 
Q 14.109375 46.140625 10.015625 43.890625 
L 10.015625 52.203125 
Q 14.9375 54.109375 19.578125 55.046875 
Q 24.21875 56 28.609375 56 
Q 40.484375 56 46.34375 49.84375 
Q 52.203125 43.703125 52.203125 31.203125 
z
" id="DejaVuSans-97"/>
       <path d="M 9.078125 75.984375 
L 18.109375 75.984375 
L 18.109375 31.109375 
L 44.921875 54.6875 
L 56.390625 54.6875 
L 27.390625 29.109375 
L 57.625 0 
L 45.90625 0 
L 18.109375 26.703125 
L 18.109375 0 
L 9.078125 0 
z
" id="DejaVuSans-107"/>
       <path d="M 56.203125 29.59375 
L 56.203125 25.203125 
L 14.890625 25.203125 
Q 15.484375 15.921875 20.484375 11.0625 
Q 25.484375 6.203125 34.421875 6.203125 
Q 39.59375 6.203125 44.453125 7.46875 
Q 49.3125 8.734375 54.109375 11.28125 
L 54.109375 2.78125 
Q 49.265625 0.734375 44.1875 -0.34375 
Q 39.109375 -1.421875 33.890625 -1.421875 
Q 20.796875 -1.421875 13.15625 6.1875 
Q 5.515625 13.8125 5.515625 26.8125 
Q 5.515625 40.234375 12.765625 48.109375 
Q 20.015625 56 32.328125 56 
Q 43.359375 56 49.78125 48.890625 
Q 56.203125 41.796875 56.203125 29.59375 
z
M 47.21875 32.234375 
Q 47.125 39.59375 43.09375 43.984375 
Q 39.0625 48.390625 32.421875 48.390625 
Q 24.90625 48.390625 20.390625 44.140625 
Q 15.875 39.890625 15.1875 32.171875 
z
" id="DejaVuSans-101"/>
       <path d="M 48.6875 27.296875 
Q 48.6875 37.203125 44.609375 42.84375 
Q 40.53125 48.484375 33.40625 48.484375 
Q 26.265625 48.484375 22.1875 42.84375 
Q 18.109375 37.203125 18.109375 27.296875 
Q 18.109375 17.390625 22.1875 11.75 
Q 26.265625 6.109375 33.40625 6.109375 
Q 40.53125 6.109375 44.609375 11.75 
Q 48.6875 17.390625 48.6875 27.296875 
z
M 18.109375 46.390625 
Q 20.953125 51.265625 25.265625 53.625 
Q 29.59375 56 35.59375 56 
Q 45.5625 56 51.78125 48.09375 
Q 58.015625 40.1875 58.015625 27.296875 
Q 58.015625 14.40625 51.78125 6.484375 
Q 45.5625 -1.421875 35.59375 -1.421875 
Q 29.59375 -1.421875 25.265625 0.953125 
Q 20.953125 3.328125 18.109375 8.203125 
L 18.109375 0 
L 9.078125 0 
L 9.078125 75.984375 
L 18.109375 75.984375 
z
" id="DejaVuSans-98"/>
       <path d="M 32.171875 -5.078125 
Q 28.375 -14.84375 24.75 -17.8125 
Q 21.140625 -20.796875 15.09375 -20.796875 
L 7.90625 -20.796875 
L 7.90625 -13.28125 
L 13.1875 -13.28125 
Q 16.890625 -13.28125 18.9375 -11.515625 
Q 21 -9.765625 23.484375 -3.21875 
L 25.09375 0.875 
L 2.984375 54.6875 
L 12.5 54.6875 
L 29.59375 11.921875 
L 46.6875 54.6875 
L 56.203125 54.6875 
z
" id="DejaVuSans-121"/>
       <path d="M 18.3125 70.21875 
L 18.3125 54.6875 
L 36.8125 54.6875 
L 36.8125 47.703125 
L 18.3125 47.703125 
L 18.3125 18.015625 
Q 18.3125 11.328125 20.140625 9.421875 
Q 21.96875 7.515625 27.59375 7.515625 
L 36.8125 7.515625 
L 36.8125 0 
L 27.59375 0 
Q 17.1875 0 13.234375 3.875 
Q 9.28125 7.765625 9.28125 18.015625 
L 9.28125 47.703125 
L 2.6875 47.703125 
L 2.6875 54.6875 
L 9.28125 54.6875 
L 9.28125 70.21875 
z
" id="DejaVuSans-116"/>
       <path d="M 9.421875 54.6875 
L 18.40625 54.6875 
L 18.40625 0 
L 9.421875 0 
z
M 9.421875 75.984375 
L 18.40625 75.984375 
L 18.40625 64.59375 
L 9.421875 64.59375 
z
" id="DejaVuSans-105"/>
      </defs>
      <use xlink:href="#DejaVuSans-37"/>
      <use x="95.019531" xlink:href="#DejaVuSans-32"/>
      <use x="126.806641" xlink:href="#DejaVuSans-111"/>
      <use x="187.988281" xlink:href="#DejaVuSans-102"/>
      <use x="223.193359" xlink:href="#DejaVuSans-32"/>
      <use x="254.980469" xlink:href="#DejaVuSans-99"/>
      <use x="309.960938" xlink:href="#DejaVuSans-111"/>
      <use x="371.142578" xlink:href="#DejaVuSans-109"/>
      <use x="468.554688" xlink:href="#DejaVuSans-112"/>
      <use x="532.03125" xlink:href="#DejaVuSans-111"/>
      <use x="593.212891" xlink:href="#DejaVuSans-117"/>
      <use x="656.591797" xlink:href="#DejaVuSans-110"/>
      <use x="719.970703" xlink:href="#DejaVuSans-100"/>
      <use x="783.447266" xlink:href="#DejaVuSans-115"/>
      <use x="835.546875" xlink:href="#DejaVuSans-32"/>
      <use x="867.333984" xlink:href="#DejaVuSans-114"/>
      <use x="908.447266" xlink:href="#DejaVuSans-97"/>
      <use x="969.726562" xlink:href="#DejaVuSans-110"/>
      <use x="1033.105469" xlink:href="#DejaVuSans-107"/>
      <use x="1087.390625" xlink:href="#DejaVuSans-101"/>
      <use x="1148.914062" xlink:href="#DejaVuSans-100"/>
      <use x="1212.390625" xlink:href="#DejaVuSans-32"/>
      <use x="1244.177734" xlink:href="#DejaVuSans-98"/>
      <use x="1307.654297" xlink:href="#DejaVuSans-121"/>
      <use x="1366.833984" xlink:href="#DejaVuSans-32"/>
      <use x="1398.621094" xlink:href="#DejaVuSans-117"/>
      <use x="1462" xlink:href="#DejaVuSans-110"/>
      <use x="1525.378906" xlink:href="#DejaVuSans-99"/>
      <use x="1580.359375" xlink:href="#DejaVuSans-101"/>
      <use x="1641.882812" xlink:href="#DejaVuSans-114"/>
      <use x="1682.996094" xlink:href="#DejaVuSans-116"/>
      <use x="1722.205078" xlink:href="#DejaVuSans-97"/>
      <use x="1783.484375" xlink:href="#DejaVuSans-105"/>
      <use x="1811.267578" xlink:href="#DejaVuSans-110"/>
      <use x="1874.646484" xlink:href="#DejaVuSans-116"/>
      <use x="1913.855469" xlink:href="#DejaVuSans-121"/>
     </g>
    </g>
   </g>
   <g id="matplotlib.axis_2">
    <g id="ytick_1">
     <g id="line2d_12">
      <defs>
       <path d="M 0 0 
L -3.5 0 
" id="meffddec370" style="stroke:#000000;stroke-width:0.8;"/>
      </defs>
      <g>
       <use style="stroke:#000000;stroke-width:0.8;" x="54" xlink:href="#meffddec370" y="248.093808"/>
      </g>
     </g>
     <g id="text_13">
      <!-- 0.0 -->
      <g transform="translate(31.096875 251.893027)scale(0.1 -0.1)">
       <defs>
        <path d="M 10.6875 12.40625 
L 21 12.40625 
L 21 0 
L 10.6875 0 
z
" id="DejaVuSans-46"/>
       </defs>
       <use xlink:href="#DejaVuSans-48"/>
       <use x="63.623047" xlink:href="#DejaVuSans-46"/>
       <use x="95.410156" xlink:href="#DejaVuSans-48"/>
      </g>
     </g>
    </g>
    <g id="ytick_2">
     <g id="line2d_13">
      <g>
       <use style="stroke:#000000;stroke-width:0.8;" x="54" xlink:href="#meffddec370" y="201.510173"/>
      </g>
     </g>
     <g id="text_14">
      <!-- 0.1 -->
      <g transform="translate(31.096875 205.309392)scale(0.1 -0.1)">
       <use xlink:href="#DejaVuSans-48"/>
       <use x="63.623047" xlink:href="#DejaVuSans-46"/>
       <use x="95.410156" xlink:href="#DejaVuSans-49"/>
      </g>
     </g>
    </g>
    <g id="ytick_3">
     <g id="line2d_14">
      <g>
       <use style="stroke:#000000;stroke-width:0.8;" x="54" xlink:href="#meffddec370" y="154.926538"/>
      </g>
     </g>
     <g id="text_15">
      <!-- 0.2 -->
      <g transform="translate(31.096875 158.725757)scale(0.1 -0.1)">
       <use xlink:href="#DejaVuSans-48"/>
       <use x="63.623047" xlink:href="#DejaVuSans-46"/>
       <use x="95.410156" xlink:href="#DejaVuSans-50"/>
      </g>
     </g>
    </g>
    <g id="ytick_4">
     <g id="line2d_15">
      <g>
       <use style="stroke:#000000;stroke-width:0.8;" x="54" xlink:href="#meffddec370" y="108.342903"/>
      </g>
     </g>
     <g id="text_16">
      <!-- 0.3 -->
      <g transform="translate(31.096875 112.142122)scale(0.1 -0.1)">
       <use xlink:href="#DejaVuSans-48"/>
       <use x="63.623047" xlink:href="#DejaVuSans-46"/>
       <use x="95.410156" xlink:href="#DejaVuSans-51"/>
      </g>
     </g>
    </g>
    <g id="ytick_5">
     <g id="line2d_16">
      <g>
       <use style="stroke:#000000;stroke-width:0.8;" x="54" xlink:href="#meffddec370" y="61.759268"/>
      </g>
     </g>
     <g id="text_17">
      <!-- 0.4 -->
      <g transform="translate(31.096875 65.558487)scale(0.1 -0.1)">
       <use xlink:href="#DejaVuSans-48"/>
       <use x="63.623047" xlink:href="#DejaVuSans-46"/>
       <use x="95.410156" xlink:href="#DejaVuSans-52"/>
      </g>
     </g>
    </g>
    <g id="text_18">
     <!-- Mean prediction error -->
     <g transform="translate(25.017187 197.2675)rotate(-90)scale(0.1 -0.1)">
      <defs>
       <path d="M 9.8125 72.90625 
L 24.515625 72.90625 
L 43.109375 23.296875 
L 61.8125 72.90625 
L 76.515625 72.90625 
L 76.515625 0 
L 66.890625 0 
L 66.890625 64.015625 
L 48.09375 14.015625 
L 38.1875 14.015625 
L 19.390625 64.015625 
L 19.390625 0 
L 9.8125 0 
z
" id="DejaVuSans-77"/>
      </defs>
      <use xlink:href="#DejaVuSans-77"/>
      <use x="86.279297" xlink:href="#DejaVuSans-101"/>
      <use x="147.802734" xlink:href="#DejaVuSans-97"/>
      <use x="209.082031" xlink:href="#DejaVuSans-110"/>
      <use x="272.460938" xlink:href="#DejaVuSans-32"/>
      <use x="304.248047" xlink:href="#DejaVuSans-112"/>
      <use x="367.724609" xlink:href="#DejaVuSans-114"/>
      <use x="406.587891" xlink:href="#DejaVuSans-101"/>
      <use x="468.111328" xlink:href="#DejaVuSans-100"/>
      <use x="531.587891" xlink:href="#DejaVuSans-105"/>
      <use x="559.371094" xlink:href="#DejaVuSans-99"/>
      <use x="614.351562" xlink:href="#DejaVuSans-116"/>
      <use x="653.560547" xlink:href="#DejaVuSans-105"/>
      <use x="681.34375" xlink:href="#DejaVuSans-111"/>
      <use x="742.525391" xlink:href="#DejaVuSans-110"/>
      <use x="805.904297" xlink:href="#DejaVuSans-32"/>
      <use x="837.691406" xlink:href="#DejaVuSans-101"/>
      <use x="899.214844" xlink:href="#DejaVuSans-114"/>
      <use x="938.578125" xlink:href="#DejaVuSans-114"/>
      <use x="977.441406" xlink:href="#DejaVuSans-111"/>
      <use x="1038.623047" xlink:href="#DejaVuSans-114"/>
     </g>
    </g>
   </g>
   <g id="line2d_17">
    <path clip-path="url(#p10fbbe3f1d)" d="M 69.218182 44.443636 
L 69.943721 46.615769 
L 70.30649 46.904097 
L 70.66926 46.885569 
L 71.032029 47.242605 
L 71.394799 47.187487 
L 71.757569 47.27227 
L 72.483108 47.225962 
L 72.845877 48.181729 
L 73.208647 48.315301 
L 73.934186 48.167015 
L 74.659725 48.524819 
L 75.748033 47.999502 
L 76.110803 48.57779 
L 76.836342 48.521194 
L 77.199111 48.768574 
L 77.924651 48.554915 
L 78.65019 48.935736 
L 79.012959 49.210164 
L 79.738498 48.84605 
L 80.464037 49.787097 
L 81.189576 49.572656 
L 81.552346 50.117396 
L 82.277885 50.580396 
L 82.640654 50.743561 
L 83.003424 51.219619 
L 83.366194 51.317536 
L 83.728963 51.854186 
L 84.091733 51.742792 
L 84.454502 52.080621 
L 84.817272 51.881365 
L 85.180041 51.87527 
L 85.90558 52.255828 
L 86.26835 53.048218 
L 86.993889 53.076866 
L 87.356658 52.858436 
L 87.719428 52.888327 
L 88.082197 53.084135 
L 88.444967 52.90153 
L 88.807736 53.04108 
L 89.533276 53.512407 
L 90.621584 53.077514 
L 91.347123 53.423781 
L 91.709893 53.951701 
L 92.072662 53.716077 
L 92.435432 53.999451 
L 93.160971 54.704083 
L 93.52374 54.702181 
L 93.88651 54.507363 
L 94.249279 55.152172 
L 94.612049 54.942716 
L 95.337588 54.757303 
L 95.700358 54.965338 
L 96.063127 54.821798 
L 96.425897 55.177446 
L 96.788666 55.11249 
L 97.514205 55.55295 
L 97.876975 55.309479 
L 98.239744 55.308245 
L 98.965283 54.884544 
L 99.328053 54.883957 
L 100.053592 54.674432 
L 101.141901 54.602063 
L 101.50467 54.406332 
L 101.86744 54.744162 
L 102.592979 54.404794 
L 102.955748 54.935089 
L 103.318518 54.944434 
L 104.406826 54.27874 
L 105.132365 54.115278 
L 105.495135 54.742006 
L 105.857904 54.653722 
L 106.583443 54.881317 
L 106.946213 54.701294 
L 107.308983 54.953381 
L 107.671752 54.770767 
L 108.034522 54.959314 
L 108.397291 54.795356 
L 109.12283 54.952842 
L 109.4856 55.270957 
L 109.848369 56.239095 
L 110.573908 56.810696 
L 110.936678 56.623225 
L 111.299447 57.138468 
L 112.387756 56.898036 
L 113.476065 56.545495 
L 113.838834 56.627661 
L 114.201604 57.115352 
L 114.564373 57.116054 
L 114.927143 57.640196 
L 115.289912 57.65399 
L 115.652682 58.01317 
L 116.015451 58.11262 
L 116.378221 58.509836 
L 116.74099 58.392428 
L 117.10376 58.621085 
L 118.192068 58.78271 
L 118.917608 58.3749 
L 119.280377 58.516327 
L 120.005916 58.397868 
L 120.368686 58.605591 
L 120.731455 58.394599 
L 121.094225 58.745082 
L 121.456994 58.484821 
L 121.819764 58.496305 
L 122.182533 58.804306 
L 122.545303 58.717026 
L 122.908072 59.091702 
L 123.270842 59.284139 
L 123.996381 59.33982 
L 124.359151 59.809273 
L 125.08469 59.425953 
L 125.447459 59.508892 
L 125.810229 59.286836 
L 126.172998 59.285976 
L 126.535768 59.505247 
L 128.349615 58.721243 
L 128.712385 58.762016 
L 129.437924 58.412626 
L 129.800693 58.331548 
L 130.163463 58.422715 
L 130.889002 58.897215 
L 131.251772 59.922359 
L 131.614541 59.909365 
L 131.977311 60.217757 
L 132.34008 60.061842 
L 132.70285 61.021599 
L 133.065619 60.890744 
L 133.428389 61.462445 
L 133.791158 61.364367 
L 134.153928 61.139643 
L 134.516697 61.246957 
L 134.879467 60.992382 
L 135.242236 61.241363 
L 135.605006 61.287813 
L 135.967775 61.168305 
L 136.330545 61.208344 
L 137.418854 60.566342 
L 137.781623 60.501351 
L 138.144393 60.670075 
L 138.507162 60.704142 
L 139.232701 60.225632 
L 139.95824 60.919777 
L 140.32101 60.650608 
L 140.683779 61.296021 
L 141.772088 60.843668 
L 142.860397 60.070452 
L 143.223166 60.255035 
L 143.585936 60.036147 
L 143.948705 60.591922 
L 144.311475 60.740261 
L 144.674244 61.639176 
L 145.399783 61.735941 
L 145.762553 61.470208 
L 146.125322 61.867835 
L 146.850861 61.913732 
L 147.93917 61.496806 
L 148.30194 62.513514 
L 149.027479 62.373908 
L 149.390248 62.692027 
L 149.753018 62.511569 
L 150.115787 62.981868 
L 150.478557 62.698223 
L 153.380713 61.77189 
L 153.743483 61.859473 
L 154.106252 61.621281 
L 155.55733 61.517086 
L 155.9201 61.721575 
L 156.645639 61.660326 
L 157.008408 61.494745 
L 157.371178 62.056442 
L 157.733947 62.180288 
L 158.096717 62.691036 
L 158.822256 62.326012 
L 159.185025 62.434099 
L 159.910565 61.871572 
L 160.273334 61.825478 
L 160.998873 61.248776 
L 161.361643 61.407482 
L 161.724412 61.707516 
L 162.449951 61.481461 
L 163.53826 60.686079 
L 163.901029 61.541453 
L 164.989338 61.773573 
L 165.714877 62.231321 
L 166.077647 62.791399 
L 166.440416 62.572695 
L 166.803186 62.533692 
L 167.165955 62.668616 
L 168.254264 62.087808 
L 169.342572 61.506205 
L 169.705342 61.214131 
L 170.068111 61.354885 
L 170.430881 62.023181 
L 170.79365 61.73197 
L 171.15642 61.691284 
L 171.51919 61.994029 
L 171.881959 61.885492 
L 172.244729 62.491896 
L 172.607498 62.295765 
L 172.970268 62.32856 
L 173.333037 63.800796 
L 173.695807 63.618268 
L 174.058576 63.890239 
L 174.784115 63.916769 
L 175.146885 63.791843 
L 175.509654 64.520596 
L 176.235193 64.001477 
L 176.597963 63.67455 
L 176.960732 64.332255 
L 177.323502 64.647003 
L 177.686272 65.213443 
L 178.411811 65.232488 
L 178.77458 65.169744 
L 179.13735 65.29168 
L 179.500119 65.232618 
L 180.588428 64.488413 
L 180.951197 64.756441 
L 181.676736 64.288827 
L 182.039506 63.998342 
L 183.127814 64.486294 
L 183.490584 64.218617 
L 183.853354 64.218118 
L 184.216123 64.539807 
L 184.578893 64.708177 
L 184.941662 65.253173 
L 185.667201 65.083663 
L 186.029971 64.779711 
L 187.481049 64.697085 
L 187.843818 65.369725 
L 188.932127 64.665352 
L 189.294897 64.828845 
L 189.657666 65.11889 
L 190.020436 65.254459 
L 190.383205 65.653964 
L 190.745975 66.353522 
L 191.471514 66.652347 
L 191.834283 66.333569 
L 192.197053 66.19808 
L 192.559822 66.233582 
L 192.922592 67.088387 
L 193.648131 66.918876 
L 194.0109 67.474057 
L 194.37367 67.400862 
L 194.736439 67.499053 
L 195.099209 68.131923 
L 195.824748 68.234918 
L 196.187518 67.997822 
L 196.550287 68.365441 
L 196.913057 68.184502 
L 197.275826 68.169771 
L 197.638596 69.193819 
L 198.001365 68.970348 
L 198.726904 69.018192 
L 199.089674 69.124985 
L 199.452443 68.822032 
L 199.815213 69.295532 
L 200.177982 69.02832 
L 200.540752 68.924827 
L 200.903522 69.051025 
L 201.266291 68.930125 
L 201.629061 69.214229 
L 201.99183 69.664243 
L 202.3546 69.351164 
L 202.717369 69.297291 
L 203.080139 69.092562 
L 203.442908 68.75984 
L 204.168447 69.175257 
L 204.531217 69.129102 
L 204.893986 69.221772 
L 205.256756 68.849053 
L 205.619525 69.998748 
L 205.982295 69.817284 
L 206.345064 70.08401 
L 206.707834 70.85762 
L 207.433373 70.275456 
L 207.796143 70.357345 
L 208.158912 70.056117 
L 208.521682 72.163172 
L 208.884451 71.906633 
L 209.247221 72.327035 
L 209.60999 72.016726 
L 209.97276 72.044724 
L 210.335529 71.771365 
L 210.698299 71.777556 
L 211.423838 72.326839 
L 212.149377 71.823433 
L 212.512146 71.857196 
L 212.874916 71.775729 
L 213.237686 72.796132 
L 213.600455 72.862159 
L 213.963225 72.754917 
L 214.325994 73.195065 
L 214.688764 72.880544 
L 215.051533 73.068798 
L 215.414303 73.015131 
L 215.777072 72.645264 
L 216.139842 72.58069 
L 216.502611 73.122829 
L 217.22815 72.343576 
L 217.59092 72.320045 
L 218.316459 71.892682 
L 219.404768 71.505857 
L 219.767537 71.626092 
L 220.130307 71.552618 
L 220.493076 72.490101 
L 220.855846 72.39623 
L 221.218615 72.144246 
L 221.581385 72.212943 
L 221.944154 72.449413 
L 222.306924 72.112859 
L 222.669693 71.969118 
L 223.395232 71.267749 
L 223.758002 71.188435 
L 224.120771 70.903482 
L 224.483541 70.969913 
L 224.846311 70.57595 
L 225.20908 70.894713 
L 225.57185 70.795419 
L 225.934619 71.30685 
L 226.297389 72.277166 
L 226.660158 72.265037 
L 227.022928 72.077343 
L 227.385697 71.711749 
L 227.748467 71.793822 
L 228.111236 71.360835 
L 228.474006 71.226485 
L 228.836775 71.687812 
L 229.199545 71.295798 
L 229.562314 72.058903 
L 230.287854 72.87233 
L 230.650623 72.592795 
L 231.013393 72.788855 
L 231.376162 72.674075 
L 231.738932 75.523903 
L 232.464471 75.104075 
L 232.82724 76.029574 
L 233.19001 77.512838 
L 233.552779 77.41929 
L 233.915549 77.449186 
L 234.278318 77.226786 
L 234.641088 77.368515 
L 235.003857 78.95098 
L 235.366627 78.89071 
L 236.454936 77.996308 
L 236.817705 78.649854 
L 237.180475 78.383149 
L 237.543244 79.323887 
L 238.268783 79.157191 
L 238.631553 79.127814 
L 238.994322 78.969659 
L 239.357092 79.229901 
L 239.719861 78.789256 
L 240.082631 78.83235 
L 240.4454 79.081727 
L 240.80817 79.049694 
L 241.170939 79.270337 
L 241.533709 78.906281 
L 241.896478 79.483358 
L 242.259248 80.871968 
L 242.622018 80.438585 
L 242.984787 80.726822 
L 244.073096 80.672068 
L 244.798635 79.991944 
L 245.161404 80.707021 
L 245.524174 80.641894 
L 246.249713 80.089967 
L 246.612482 79.759843 
L 246.975252 80.080675 
L 247.338021 79.945887 
L 247.700791 81.219112 
L 248.063561 81.352431 
L 248.42633 81.2559 
L 248.7891 81.405052 
L 249.151869 80.935389 
L 249.514639 80.66715 
L 249.877408 81.464647 
L 250.240178 81.193662 
L 250.602947 81.308302 
L 250.965717 81.685063 
L 251.691256 81.147308 
L 252.054025 82.718088 
L 252.416795 83.583163 
L 252.779564 83.383576 
L 253.142334 83.539663 
L 253.505103 84.247255 
L 253.867873 83.851659 
L 254.230643 84.632942 
L 254.593412 84.51207 
L 254.956182 84.610577 
L 255.318951 84.840928 
L 255.681721 84.412883 
L 256.40726 84.599888 
L 256.770029 85.553712 
L 257.132799 85.778894 
L 257.495568 85.330643 
L 257.858338 85.312507 
L 258.221107 85.677607 
L 258.583877 85.759627 
L 258.946646 86.159388 
L 259.309416 85.740714 
L 259.672186 87.03157 
L 260.397725 86.126585 
L 260.760494 86.993818 
L 261.486033 86.535035 
L 261.848803 87.305938 
L 262.574342 86.83373 
L 262.937111 87.35265 
L 263.299881 87.117277 
L 264.02542 86.377131 
L 265.113728 85.962434 
L 265.839268 86.30117 
L 266.202037 86.244156 
L 266.927576 87.084006 
L 267.653115 87.092358 
L 268.015885 89.262851 
L 268.378654 88.87556 
L 268.741424 88.858626 
L 269.104193 88.958733 
L 269.466963 88.683933 
L 269.829732 89.311746 
L 270.192502 89.612479 
L 270.555271 89.212049 
L 270.918041 89.962516 
L 271.28081 89.466427 
L 271.64358 89.338557 
L 272.00635 88.821761 
L 272.369119 89.450245 
L 272.731889 90.866614 
L 273.094658 90.879086 
L 273.820197 90.506941 
L 274.545736 89.73669 
L 275.271275 90.278656 
L 275.634045 89.937731 
L 275.996814 90.192681 
L 276.359584 90.24703 
L 276.722353 91.593594 
L 277.085123 91.314913 
L 277.810662 91.255955 
L 278.173432 90.698254 
L 278.536201 90.474212 
L 278.898971 89.921202 
L 279.26174 89.993796 
L 279.62451 91.622115 
L 279.987279 91.527099 
L 280.350049 92.021288 
L 280.712818 91.874309 
L 281.075588 92.007237 
L 281.438357 92.779616 
L 281.801127 94.307619 
L 282.163896 94.215276 
L 282.526666 94.329578 
L 282.889435 93.803869 
L 283.252205 93.915169 
L 283.977744 93.226286 
L 284.340514 92.720285 
L 284.703283 93.076403 
L 285.066053 92.588353 
L 285.428822 92.442222 
L 285.791592 92.441279 
L 286.154361 92.719338 
L 286.517131 92.6406 
L 286.8799 92.688536 
L 287.24267 94.377387 
L 287.605439 94.673081 
L 287.968209 94.610391 
L 288.330978 95.10316 
L 288.693748 94.65058 
L 289.056517 94.885415 
L 289.419287 95.397446 
L 290.144826 94.973863 
L 290.507596 95.565416 
L 290.870365 95.81782 
L 291.595904 95.716837 
L 291.958674 95.837238 
L 292.321443 95.6623 
L 293.409752 94.171885 
L 294.135291 94.526406 
L 295.2236 93.259718 
L 295.586369 93.923474 
L 295.949139 93.45109 
L 296.311908 93.176094 
L 296.674678 93.976856 
L 297.037447 93.920346 
L 297.400217 93.638476 
L 297.762986 94.179307 
L 298.125756 94.168738 
L 298.488525 93.820255 
L 298.851295 93.181066 
L 299.214064 93.206014 
L 299.576834 94.866619 
L 300.302373 94.034121 
L 300.665142 94.657057 
L 301.027912 93.953728 
L 301.390682 96.166644 
L 301.753451 96.604963 
L 302.116221 96.41439 
L 302.47899 96.514415 
L 302.84176 96.091584 
L 303.204529 95.324088 
L 303.567299 97.44651 
L 303.930068 97.622628 
L 304.292838 97.382927 
L 305.018377 100.376187 
L 305.743916 99.557628 
L 306.106685 98.791545 
L 306.469455 99.689387 
L 307.194994 99.061197 
L 307.557764 98.963729 
L 308.283303 97.915545 
L 308.646072 98.751261 
L 309.371611 98.4855 
L 309.734381 98.86844 
L 310.09715 98.1582 
L 310.45992 101.338499 
L 311.548228 99.102062 
L 311.910998 99.410921 
L 312.636537 98.583283 
L 312.999307 98.449834 
L 313.362076 100.782407 
L 313.724846 100.625359 
L 314.087615 101.92146 
L 314.813154 100.442682 
L 315.175924 103.655556 
L 315.538693 104.084822 
L 315.901463 104.09212 
L 316.264232 103.267168 
L 316.627002 103.70434 
L 316.989771 103.256834 
L 317.352541 103.821837 
L 317.71531 103.66492 
L 318.07808 102.913328 
L 318.440849 103.813985 
L 318.803619 103.828965 
L 319.166389 102.972219 
L 319.529158 103.509273 
L 319.891928 103.046606 
L 320.254697 102.790713 
L 320.617467 102.117772 
L 320.980236 102.200293 
L 321.343006 102.69571 
L 321.705775 101.77454 
L 322.068545 101.367689 
L 322.431314 101.976835 
L 322.794084 101.454177 
L 323.156853 101.294349 
L 323.519623 103.301663 
L 323.882392 102.97163 
L 324.245162 103.030647 
L 324.607932 105.585799 
L 324.970701 104.83907 
L 325.333471 104.758567 
L 325.69624 103.781121 
L 326.05901 104.883383 
L 326.421779 105.161837 
L 327.872857 103.076013 
L 328.235627 102.681726 
L 328.598396 102.90155 
L 328.961166 104.046225 
L 329.323935 103.250359 
L 329.686705 102.969544 
L 331.137783 99.90316 
L 331.500553 99.64082 
L 331.863322 99.608822 
L 332.226092 99.251474 
L 332.951631 97.334784 
L 333.3144 98.407169 
L 333.67717 97.412491 
L 334.039939 98.27811 
L 334.402709 99.865972 
L 334.765478 99.408337 
L 335.491017 102.330041 
L 336.216557 100.555912 
L 336.579326 100.092201 
L 336.942096 98.965644 
L 337.304865 98.670677 
L 337.667635 98.913677 
L 338.030404 99.74521 
L 338.393174 98.277253 
L 338.755943 99.379418 
L 339.481482 97.057502 
L 339.844252 97.545095 
L 340.207021 97.552915 
L 340.569791 100.545345 
L 340.93256 99.065326 
L 342.020869 96.610698 
L 342.746408 93.539373 
L 343.109178 92.725121 
L 343.471947 91.194483 
L 343.834717 90.531019 
L 344.197486 95.331777 
L 344.560256 96.864084 
L 344.923025 99.834014 
L 345.285795 107.484789 
L 345.648564 106.056319 
L 346.011334 106.162121 
L 346.736873 104.459985 
L 347.099642 107.138495 
L 347.462412 106.617838 
L 348.91349 99.942553 
L 349.27626 99.88258 
L 349.639029 106.785359 
L 350.001799 105.21046 
L 350.364568 105.303667 
L 350.727338 104.583205 
L 351.090107 108.630845 
L 351.452877 106.851154 
L 351.815646 107.348911 
L 352.178416 107.289023 
L 352.541185 105.043571 
L 352.903955 105.409123 
L 353.266724 103.130314 
L 353.629494 102.031294 
L 353.992264 100.509461 
L 354.355033 98.145583 
L 354.717803 99.279178 
L 355.080572 100.897475 
L 355.443342 107.429954 
L 356.168881 103.640107 
L 356.53165 105.166703 
L 356.89442 104.406721 
L 357.257189 105.505414 
L 357.619959 102.664306 
L 357.982728 105.88304 
L 359.071037 102.823171 
L 359.796576 103.436308 
L 360.159346 106.655104 
L 360.522115 108.619754 
L 361.247654 101.945646 
L 361.610424 98.145273 
L 361.973193 98.023607 
L 362.335963 101.761518 
L 362.698732 108.495974 
L 363.424271 106.624797 
L 363.787041 112.406074 
L 364.14981 111.624386 
L 364.51258 118.11977 
L 364.875349 114.881301 
L 365.238119 128.46653 
L 365.600889 125.476265 
L 365.963658 135.563514 
L 366.689197 133.586364 
L 367.051967 130.3547 
L 367.414736 133.59814 
L 367.777506 127.879642 
L 368.503045 137.211175 
L 368.865814 131.500083 
L 369.228584 129.199754 
L 369.591353 149.679884 
L 369.954123 154.80102 
L 370.316892 148.715029 
L 370.679662 168.183342 
L 371.042431 165.933276 
L 371.405201 160.252975 
L 371.767971 163.381711 
L 372.13074 152.674791 
L 372.49351 149.358256 
L 372.856279 205.037643 
L 373.219049 235.505626 
L 373.581818 242.116364 
L 373.581818 242.116364 
" style="fill:none;stroke:#1f77b4;stroke-linecap:square;stroke-width:1.5;"/>
   </g>
   <g id="patch_3">
    <path d="M 54 252 
L 54 34.56 
" style="fill:none;stroke:#000000;stroke-linecap:square;stroke-linejoin:miter;stroke-width:0.8;"/>
   </g>
   <g id="patch_4">
    <path d="M 388.8 252 
L 388.8 34.56 
" style="fill:none;stroke:#000000;stroke-linecap:square;stroke-linejoin:miter;stroke-width:0.8;"/>
   </g>
   <g id="patch_5">
    <path d="M 54 252 
L 388.8 252 
" style="fill:none;stroke:#000000;stroke-linecap:square;stroke-linejoin:miter;stroke-width:0.8;"/>
   </g>
   <g id="patch_6">
    <path d="M 54 34.56 
L 388.8 34.56 
" style="fill:none;stroke:#000000;stroke-linecap:square;stroke-linejoin:miter;stroke-width:0.8;"/>
   </g>
   <g id="text_19">
    <!-- Confidence curve -->
    <g transform="translate(168.945 15.122625)scale(0.12 -0.12)">
     <defs>
      <path d="M 64.40625 67.28125 
L 64.40625 56.890625 
Q 59.421875 61.53125 53.78125 63.8125 
Q 48.140625 66.109375 41.796875 66.109375 
Q 29.296875 66.109375 22.65625 58.46875 
Q 16.015625 50.828125 16.015625 36.375 
Q 16.015625 21.96875 22.65625 14.328125 
Q 29.296875 6.6875 41.796875 6.6875 
Q 48.140625 6.6875 53.78125 8.984375 
Q 59.421875 11.28125 64.40625 15.921875 
L 64.40625 5.609375 
Q 59.234375 2.09375 53.4375 0.328125 
Q 47.65625 -1.421875 41.21875 -1.421875 
Q 24.65625 -1.421875 15.125 8.703125 
Q 5.609375 18.84375 5.609375 36.375 
Q 5.609375 53.953125 15.125 64.078125 
Q 24.65625 74.21875 41.21875 74.21875 
Q 47.75 74.21875 53.53125 72.484375 
Q 59.328125 70.75 64.40625 67.28125 
z
" id="DejaVuSans-67"/>
      <path d="M 2.984375 54.6875 
L 12.5 54.6875 
L 29.59375 8.796875 
L 46.6875 54.6875 
L 56.203125 54.6875 
L 35.6875 0 
L 23.484375 0 
z
" id="DejaVuSans-118"/>
     </defs>
     <use xlink:href="#DejaVuSans-67"/>
     <use x="69.824219" xlink:href="#DejaVuSans-111"/>
     <use x="131.005859" xlink:href="#DejaVuSans-110"/>
     <use x="194.384766" xlink:href="#DejaVuSans-102"/>
     <use x="229.589844" xlink:href="#DejaVuSans-105"/>
     <use x="257.373047" xlink:href="#DejaVuSans-100"/>
     <use x="320.849609" xlink:href="#DejaVuSans-101"/>
     <use x="382.373047" xlink:href="#DejaVuSans-110"/>
     <use x="445.751953" xlink:href="#DejaVuSans-99"/>
     <use x="500.732422" xlink:href="#DejaVuSans-101"/>
     <use x="562.255859" xlink:href="#DejaVuSans-32"/>
     <use x="594.042969" xlink:href="#DejaVuSans-99"/>
     <use x="649.023438" xlink:href="#DejaVuSans-117"/>
     <use x="712.402344" xlink:href="#DejaVuSans-114"/>
     <use x="753.515625" xlink:href="#DejaVuSans-118"/>
     <use x="812.695312" xlink:href="#DejaVuSans-101"/>
    </g>
    <!-- using the Maxsmi model on the lipophilicity data -->
    <g transform="translate(75.1425 28.56)scale(0.12 -0.12)">
     <defs>
      <path d="M 45.40625 27.984375 
Q 45.40625 37.75 41.375 43.109375 
Q 37.359375 48.484375 30.078125 48.484375 
Q 22.859375 48.484375 18.828125 43.109375 
Q 14.796875 37.75 14.796875 27.984375 
Q 14.796875 18.265625 18.828125 12.890625 
Q 22.859375 7.515625 30.078125 7.515625 
Q 37.359375 7.515625 41.375 12.890625 
Q 45.40625 18.265625 45.40625 27.984375 
z
M 54.390625 6.78125 
Q 54.390625 -7.171875 48.1875 -13.984375 
Q 42 -20.796875 29.203125 -20.796875 
Q 24.46875 -20.796875 20.265625 -20.09375 
Q 16.0625 -19.390625 12.109375 -17.921875 
L 12.109375 -9.1875 
Q 16.0625 -11.328125 19.921875 -12.34375 
Q 23.78125 -13.375 27.78125 -13.375 
Q 36.625 -13.375 41.015625 -8.765625 
Q 45.40625 -4.15625 45.40625 5.171875 
L 45.40625 9.625 
Q 42.625 4.78125 38.28125 2.390625 
Q 33.9375 0 27.875 0 
Q 17.828125 0 11.671875 7.65625 
Q 5.515625 15.328125 5.515625 27.984375 
Q 5.515625 40.671875 11.671875 48.328125 
Q 17.828125 56 27.875 56 
Q 33.9375 56 38.28125 53.609375 
Q 42.625 51.21875 45.40625 46.390625 
L 45.40625 54.6875 
L 54.390625 54.6875 
z
" id="DejaVuSans-103"/>
      <path d="M 54.890625 33.015625 
L 54.890625 0 
L 45.90625 0 
L 45.90625 32.71875 
Q 45.90625 40.484375 42.875 44.328125 
Q 39.84375 48.1875 33.796875 48.1875 
Q 26.515625 48.1875 22.3125 43.546875 
Q 18.109375 38.921875 18.109375 30.90625 
L 18.109375 0 
L 9.078125 0 
L 9.078125 75.984375 
L 18.109375 75.984375 
L 18.109375 46.1875 
Q 21.34375 51.125 25.703125 53.5625 
Q 30.078125 56 35.796875 56 
Q 45.21875 56 50.046875 50.171875 
Q 54.890625 44.34375 54.890625 33.015625 
z
" id="DejaVuSans-104"/>
      <path d="M 54.890625 54.6875 
L 35.109375 28.078125 
L 55.90625 0 
L 45.3125 0 
L 29.390625 21.484375 
L 13.484375 0 
L 2.875 0 
L 24.125 28.609375 
L 4.6875 54.6875 
L 15.28125 54.6875 
L 29.78125 35.203125 
L 44.28125 54.6875 
z
" id="DejaVuSans-120"/>
      <path d="M 9.421875 75.984375 
L 18.40625 75.984375 
L 18.40625 0 
L 9.421875 0 
z
" id="DejaVuSans-108"/>
     </defs>
     <use xlink:href="#DejaVuSans-117"/>
     <use x="63.378906" xlink:href="#DejaVuSans-115"/>
     <use x="115.478516" xlink:href="#DejaVuSans-105"/>
     <use x="143.261719" xlink:href="#DejaVuSans-110"/>
     <use x="206.640625" xlink:href="#DejaVuSans-103"/>
     <use x="270.117188" xlink:href="#DejaVuSans-32"/>
     <use x="301.904297" xlink:href="#DejaVuSans-116"/>
     <use x="341.113281" xlink:href="#DejaVuSans-104"/>
     <use x="404.492188" xlink:href="#DejaVuSans-101"/>
     <use x="466.015625" xlink:href="#DejaVuSans-32"/>
     <use x="497.802734" xlink:href="#DejaVuSans-77"/>
     <use x="584.082031" xlink:href="#DejaVuSans-97"/>
     <use x="645.361328" xlink:href="#DejaVuSans-120"/>
     <use x="704.541016" xlink:href="#DejaVuSans-115"/>
     <use x="756.640625" xlink:href="#DejaVuSans-109"/>
     <use x="854.052734" xlink:href="#DejaVuSans-105"/>
     <use x="881.835938" xlink:href="#DejaVuSans-32"/>
     <use x="913.623047" xlink:href="#DejaVuSans-109"/>
     <use x="1011.035156" xlink:href="#DejaVuSans-111"/>
     <use x="1072.216797" xlink:href="#DejaVuSans-100"/>
     <use x="1135.693359" xlink:href="#DejaVuSans-101"/>
     <use x="1197.216797" xlink:href="#DejaVuSans-108"/>
     <use x="1225" xlink:href="#DejaVuSans-32"/>
     <use x="1256.787109" xlink:href="#DejaVuSans-111"/>
     <use x="1317.96875" xlink:href="#DejaVuSans-110"/>
     <use x="1381.347656" xlink:href="#DejaVuSans-32"/>
     <use x="1413.134766" xlink:href="#DejaVuSans-116"/>
     <use x="1452.34375" xlink:href="#DejaVuSans-104"/>
     <use x="1515.722656" xlink:href="#DejaVuSans-101"/>
     <use x="1577.246094" xlink:href="#DejaVuSans-32"/>
     <use x="1609.033203" xlink:href="#DejaVuSans-108"/>
     <use x="1636.816406" xlink:href="#DejaVuSans-105"/>
     <use x="1664.599609" xlink:href="#DejaVuSans-112"/>
     <use x="1728.076172" xlink:href="#DejaVuSans-111"/>
     <use x="1789.257812" xlink:href="#DejaVuSans-112"/>
     <use x="1852.734375" xlink:href="#DejaVuSans-104"/>
     <use x="1916.113281" xlink:href="#DejaVuSans-105"/>
     <use x="1943.896484" xlink:href="#DejaVuSans-108"/>
     <use x="1971.679688" xlink:href="#DejaVuSans-105"/>
     <use x="1999.462891" xlink:href="#DejaVuSans-99"/>
     <use x="2054.443359" xlink:href="#DejaVuSans-105"/>
     <use x="2082.226562" xlink:href="#DejaVuSans-116"/>
     <use x="2121.435547" xlink:href="#DejaVuSans-121"/>
     <use x="2180.615234" xlink:href="#DejaVuSans-32"/>
     <use x="2212.402344" xlink:href="#DejaVuSans-100"/>
     <use x="2275.878906" xlink:href="#DejaVuSans-97"/>
     <use x="2337.158203" xlink:href="#DejaVuSans-116"/>
     <use x="2376.367188" xlink:href="#DejaVuSans-97"/>
    </g>
   </g>
  </g>
 </g>
 <defs>
  <clipPath id="p10fbbe3f1d">
   <rect height="217.44" width="334.8" x="54" y="34.56"/>
  </clipPath>
 </defs>
</svg>
